<svg width="16" height="16" viewBox="0 0 16 16" fill="none" xmlns="http://www.w3.org/2000/svg">
<path d="M9.24956 2.20393C8.82002 1.04311 7.17816 1.04311 6.74862 2.20393L6.2951 3.42956L4.95269 2.8123C3.82814 2.2952 2.66717 3.45617 3.18427 4.58073L3.89359 6.12335L2.20399 6.74856C1.04317 7.1781 1.04317 8.81995 2.20399 9.2495L3.73076 9.81445L3.18427 11.003C2.66717 12.1275 3.82814 13.2885 4.95269 12.7714L6.16406 12.2144L6.74862 13.7941C7.17817 14.955 8.82002 14.955 9.24956 13.7941L9.88202 12.0849L11.3749 12.7714C12.4995 13.2885 13.6604 12.1275 13.1433 11.003L12.549 9.71028L13.7942 9.2495C14.955 8.81995 14.955 7.1781 13.7942 6.74856L12.3861 6.22753L13.1433 4.58073C13.6604 3.45617 12.4995 2.2952 11.3749 2.8123L9.75099 3.55901L9.24956 2.20393Z" fill="#FFBC3A"/>
</svg>
