<svg width="240" height="240" viewBox="0 0 240 240" fill="none" xmlns="http://www.w3.org/2000/svg">
<ellipse cx="120" cy="144" rx="111.5" ry="85" fill="#DFD8D2"/>
<path d="M27.196 50.4814L76.6425 71.3403L134.101 51.4294L80.0498 39.3418L27.196 50.4814Z" fill="#7E6551" stroke="#7E6551" stroke-width="2.89048" stroke-linecap="round" stroke-linejoin="round"/>
<path d="M41.5772 46.2263C41.6075 46.2263 41.6396 46.2263 41.6699 46.2227C41.7411 46.2174 41.8106 46.2085 41.8784 46.1942L50.7316 45.6739C51.1094 45.6525 51.4622 45.4796 51.7135 45.1981C51.9647 44.9147 52.0931 44.544 52.0717 44.1662C52.0378 43.5799 51.6565 38.2641 48.9691 32.5544C45.0753 24.2804 38.4212 19.3405 29.723 18.2695C25.3249 17.7278 21.9657 16.5017 20.5045 14.905C19.9984 14.3526 19.8879 13.9267 19.8647 13.7984C20.0108 10.6495 17.6977 7.93719 14.5489 7.59326C14.3314 7.57009 14.1122 7.55762 13.8948 7.55762C10.8457 7.55762 8.29743 9.84577 7.96597 12.8806C7.88399 13.6273 7.62915 17.5603 10.6105 21.6429C13.9679 26.2388 19.9075 29.0919 28.2617 30.1201C32.7988 30.6797 35.9138 33.0017 38.0648 37.4319C39.8629 41.135 40.1498 44.8648 40.1515 44.9022C40.205 45.6525 40.8305 46.2263 41.5718 46.2263H41.5772Z" fill="#FFC671"/>
<path d="M13.8984 8.98311C11.6085 8.98311 9.64112 10.7081 9.38629 13.0355C9.31501 13.6913 9.09404 17.1449 11.7653 20.8017C14.8821 25.0679 20.492 27.7267 28.44 28.7051C33.4333 29.3199 37.0027 31.9715 39.3514 36.8098C41.2903 40.8052 41.5754 44.7631 41.579 44.8041V44.7863L50.6514 44.2534C50.6193 43.6939 50.2558 38.6328 47.6825 33.1637C44.0079 25.3548 37.7387 20.6947 29.552 19.6861C24.7529 19.0945 21.1674 17.7401 19.4567 15.869C18.5353 14.8603 18.448 14.0121 18.4391 13.8303C18.6013 11.4138 16.8281 9.27715 14.3974 9.01163C14.2299 8.99381 14.0624 8.9849 13.8984 8.9849M18.4213 14.0138C18.4213 14.0138 18.4213 14.0103 18.4213 14.0085C18.4213 14.0103 18.4213 14.0121 18.4213 14.0138ZM18.4213 14.021C18.4213 14.021 18.4213 14.0156 18.4213 14.0138C18.4213 14.0156 18.4213 14.0192 18.4213 14.021ZM13.8984 6.13184C14.1675 6.13184 14.4384 6.14609 14.7057 6.17639C18.5157 6.5916 21.3385 9.80642 21.2993 13.5897C21.3385 13.6646 21.4151 13.7875 21.5595 13.9426C22.0157 14.4397 23.9635 16.1238 29.8995 16.8544C34.4704 17.4176 38.5442 19.0089 42.0085 21.584C45.4532 24.1448 48.2296 27.6323 50.2611 31.9466C53.0037 37.7757 53.4368 43.0773 53.4974 44.0823C53.5419 44.8379 53.2853 45.5793 52.7828 46.1442C52.2802 46.7091 51.5745 47.0512 50.8189 47.0958L42.0709 47.6108C41.9675 47.6286 41.8624 47.6411 41.7554 47.6482C41.6966 47.6518 41.636 47.6536 41.5772 47.6536C40.0928 47.6536 38.8418 46.5042 38.7366 45.0055C38.7295 44.9163 38.4426 41.461 36.7889 38.0537C34.8696 34.0993 32.1074 32.0286 28.0942 31.5349C19.3337 30.4568 13.0662 27.4113 9.46648 22.4839C6.25702 18.0894 6.42632 13.9051 6.55462 12.7254C6.9645 8.96708 10.1223 6.13184 13.9002 6.13184H13.8984Z" fill="#7E6551"/>
<path d="M52.5598 35.8365C61.233 33.5251 73.399 35.9772 73.399 35.9772L74.994 28.6281C74.6108 24.0322 73.7608 13.8068 77.3124 11.6933C81.0387 9.47462 89.024 16.5315 90.8863 18.2227C93.2404 16.4638 96.792 15.6245 99.351 15.7136C99.1906 13.6856 99.2566 7.16152 102.612 6.49147C106.463 5.72162 114.22 14.2469 115.12 15.3073C119.841 20.8655 127.146 30.5705 125.551 38.9337C124.897 42.3695 120.477 45.3704 120.864 45.6858C128.254 51.7199 127.326 69.4815 120.908 80.0313C114.035 91.3295 105.684 87.5444 96.3946 88.9985C79.9962 91.5665 66.1835 89.6329 57.1842 87.5765C44.1717 84.563 34.7785 73.6408 34.0728 61.1469C33.3368 48.1166 43.1523 38.3438 52.5615 35.8365H52.5598Z" fill="#FEFEFE"/>
<path d="M73.246 35.9487C73.3458 35.9683 73.3974 35.979 73.3974 35.979L74.9924 28.6299C74.6092 24.034 73.7592 13.8086 77.3108 11.6951C81.0371 9.4764 89.0225 16.5333 90.8847 18.2245C93.2388 16.4656 96.7904 15.6263 99.3494 15.7154C100.511 20.7354 103.024 28.6459 101.148 35.5389C98.4869 45.3116 89.7763 53.1099 79.7807 48.3375C76.124 46.5911 74.1815 41.7743 73.246 35.9487Z" fill="#FFC671"/>
<path d="M122.109 30.465C123.763 30.8054 127.919 31.1279 131.315 29.6934" stroke="#7E6551" stroke-width="2.01906" stroke-linecap="round" stroke-linejoin="round"/>
<path d="M118.578 27.7322C120.597 27.6128 125.389 26.7788 128.404 24.4033" stroke="#7E6551" stroke-width="2.01906" stroke-linecap="round" stroke-linejoin="round"/>
<path d="M52.5596 35.8367C61.2328 33.5254 73.3989 35.9775 73.3989 35.9775C73.3989 35.9775 74.2222 32.1818 74.6855 30.0469L83.0255 34.7461L76.3018 45.1034C76.3018 45.1034 60.5468 55.5124 42.6853 41.2381C45.6809 38.6096 49.147 36.7438 52.5578 35.835L52.5596 35.8367Z" fill="#FFC671"/>
<path d="M108.074 33.0507C106.799 33.0507 105.765 32.0167 105.765 30.7412C105.765 29.4657 106.799 28.4316 108.074 28.4316C109.35 28.4316 110.384 29.4657 110.384 30.7412C110.384 32.0167 109.35 33.0507 108.074 33.0507Z" fill="#7E6551"/>
<path d="M95.8992 35.539C94.6237 35.539 93.5897 34.505 93.5897 33.2295C93.5897 31.9539 94.6237 30.9199 95.8992 30.9199C97.1747 30.9199 98.2087 31.9539 98.2087 33.2295C98.2087 34.505 97.1747 35.539 95.8992 35.539Z" fill="#7E6551"/>
<path d="M76.0558 39.3418C76.0558 39.3418 76.0808 51.6682 89.995 52.6163" stroke="#7E6551" stroke-width="2.89048" stroke-linecap="round"/>
<path d="M58.5492 35.2661C58.5635 35.1503 58.5848 35.0362 58.6116 34.9275C64.5333 34.5729 70.4765 35.4639 72.59 35.831C71.8878 38.8997 69.3805 42.7008 66.4668 43.2835C62.3717 44.1051 58.1607 38.4346 58.5492 35.2661Z" fill="#96887C"/>
<path d="M80.5272 91.6806C85.909 91.6806 91.2783 91.2636 96.6174 90.4278C98.9037 90.0696 101.181 90.0429 103.382 90.0161C109.89 89.9395 116.619 89.8593 122.142 80.7815C125.385 75.4514 127.39 68.1272 127.507 61.1897C127.62 54.5391 125.986 49.0165 122.976 45.7073C123.157 45.5112 123.357 45.3099 123.564 45.1031C124.822 43.8343 126.388 42.2554 126.969 39.2046C128.245 32.5148 124.729 24.3922 116.22 14.3735C115.646 13.6981 113.438 11.2799 110.911 9.11646C107.242 5.97649 104.435 4.65421 102.327 5.07655C98.3958 5.86065 97.8773 11.5294 97.863 14.3111C95.705 14.484 93.1352 15.1451 91.0164 16.405C86.3225 12.2867 80.2956 8.23791 76.5729 10.4548C72.8021 12.6984 72.8733 20.4485 73.5363 28.5354L72.2835 34.3111C72.0732 34.279 71.8398 34.2433 71.5814 34.2041C70.3927 34.0242 68.5216 33.7729 66.3475 33.6018C60.7091 33.1581 55.9457 33.4414 52.1891 34.4412C47.0229 35.8169 41.9922 39.1707 38.3871 43.6401C35.5091 47.2077 32.1731 53.1562 32.6293 61.2307C33.3742 74.4428 43.3377 85.8568 56.8581 88.9879C64.7151 90.7842 72.6328 91.6823 80.529 91.6823L80.5272 91.6806ZM120.72 43.8914C119.982 44.1337 119.533 44.5614 119.378 45.1637C119.224 45.7661 119.442 46.3951 119.946 46.8068C123.026 49.3213 124.727 54.5462 124.615 61.1416C124.506 67.589 122.657 74.3697 119.67 79.2811C114.98 86.9902 109.846 87.0508 103.346 87.1274C101.042 87.1542 98.6596 87.1827 96.1683 87.5729C83.3607 89.5777 70.3517 89.1055 57.5032 86.1705C45.2302 83.3299 36.1863 73.0065 35.5127 61.0685C35.1082 53.9118 38.0753 48.628 40.6343 45.456C43.8634 41.4535 48.3452 38.4579 52.9304 37.2354C61.1688 35.0399 72.9927 37.3726 73.1121 37.3976L73.3919 36.0022L74.8104 36.2856L76.4517 28.7261L76.4339 28.5105C76.2503 26.3025 75.942 22.6066 76.1202 19.3098C76.384 14.4377 77.5583 13.2294 78.0502 12.9372C79.5133 12.0657 83.7474 13.6945 89.9133 19.2937L90.7954 20.0957L91.7506 19.3828C93.9336 17.7505 97.193 17.0876 99.2993 17.1606L100.917 17.2177L100.789 15.6031C100.552 12.6021 101.151 8.25929 102.892 7.91179C103.304 7.82982 104.961 7.8316 109.029 11.3137C111.456 13.3898 113.579 15.7314 114.014 16.2447C121.81 25.424 125.212 32.9674 124.127 38.6646C123.712 40.8494 122.642 41.9275 121.509 43.0681C121.245 43.3336 120.974 43.6062 120.718 43.8914H120.72Z" fill="#7E6551"/>
<path d="M81.1917 40.3857C79.6787 41.1342 75.7404 42.501 72.0925 41.9753" stroke="#7E6551" stroke-width="2.01906" stroke-linecap="round" stroke-linejoin="round"/>
<path d="M81.4772 35.4716C79.4938 35.869 74.6466 36.2788 71.127 34.748" stroke="#7E6551" stroke-width="2.01906" stroke-linecap="round" stroke-linejoin="round"/>
<path d="M106.265 35.0456C106.572 34.2632 108.436 33.889 109.35 34.7925C109.956 35.3913 110.159 36.5639 109.603 37.1163C109.001 37.7169 107.812 37.2838 107.194 36.8205C106.679 36.4338 106.036 35.6301 106.264 35.0456H106.265Z" fill="#96887C"/>
<path d="M106.838 36.3179C106.374 36.3821 105.699 36.4195 104.911 36.2591C104.405 36.1558 103.985 35.9972 103.658 35.8457C103.42 36.1807 103.006 36.6708 102.363 37.0896C101.909 37.3836 101.477 37.5529 101.148 37.6527" stroke="#7E6551" stroke-width="1.15655" stroke-linecap="round" stroke-linejoin="round"/>
<path d="M104.311 33.9496C104.259 33.9086 104.186 33.8784 104.079 33.8623C103.862 33.8285 103.56 33.8694 103.206 33.9657C102.851 34.0619 102.571 34.1795 102.4 34.3185C102.316 34.3862 102.268 34.4504 102.245 34.511C102.222 34.568 102.215 34.6357 102.24 34.7248C102.292 34.9155 102.472 35.14 102.741 35.2969C103.004 35.4501 103.316 35.5178 103.607 35.4394C103.897 35.361 104.132 35.1454 104.282 34.8781C104.434 34.6072 104.476 34.3221 104.425 34.1314C104.401 34.0423 104.36 33.9871 104.312 33.9496H104.311Z" fill="#7E6551" stroke="#7E6551" stroke-width="0.459769"/>
<path d="M27.1963 50.4814L31.9366 102.225L76.6428 119.994V66.4932L27.1963 50.4814Z" fill="#FFE9BF" stroke="#7E6551" stroke-width="2.89048" stroke-linecap="round" stroke-linejoin="round"/>
<path d="M76.6425 66.4933L134.101 51.4297L126.713 103.647L76.6425 119.994V66.4933Z" fill="#FFE9BF" stroke="#7E6551" stroke-width="2.89048" stroke-linecap="round" stroke-linejoin="round"/>
<path d="M27.1963 50.4814L7.28548 69.0878L55.3153 86.1688L76.6428 66.4932L27.1963 50.4814Z" fill="#FFE9BF" stroke="#7E6551" stroke-width="2.89048" stroke-linecap="round" stroke-linejoin="round"/>
<path d="M134.101 51.4297L152.301 72.3438L89.8029 90.1037L76.6425 66.4933L134.101 51.4297Z" fill="#FFE9BF" stroke="#7E6551" stroke-width="2.89048" stroke-linecap="round" stroke-linejoin="round"/>
<path d="M28.4399 28.7051C20.492 27.7268 14.8821 25.068 11.7653 20.8018C11.6958 20.7055 11.6281 20.6093 11.5621 20.5149C14.9676 20.0212 20.4492 19.9571 24.8259 23.3519C27.4241 25.3674 28.6163 27.2457 29.0957 28.8014C28.8801 28.7657 28.6627 28.7337 28.4399 28.7069V28.7051Z" fill="#96887C"/>
<path d="M35.475 28.4318C33.0389 27.2379 34.3398 23.1801 35.2166 21.0791C37.4976 21.9559 39.5719 23.1855 41.4146 24.7555C39.588 27.0597 37.2356 29.2961 35.475 28.4318Z" fill="#96887C"/>
<path d="M206.995 147.723C208.245 147.723 209.545 147.606 210.868 147.374C216.454 146.394 221.414 143.495 224.136 139.612C227.417 134.932 229.951 126.901 223.379 115.239C219.567 108.473 218.705 106.12 220.352 103.548C221.048 102.46 221.77 101.557 223.528 101.557C224.911 101.557 226.67 102.133 228.749 103.265C229.658 103.758 230.682 104.021 231.709 104.021C233.982 104.021 236.071 102.781 237.159 100.785C237.95 99.3317 238.129 97.6561 237.661 96.0664C237.194 94.4767 236.132 93.1667 234.679 92.375C230.8 90.2639 227.026 89.1924 223.458 89.1924C217.805 89.1924 213.119 91.8441 209.908 96.8644C203.994 106.104 208.753 114.545 212.578 121.327C215.309 126.173 215.783 129.928 213.987 132.49C213.294 133.479 211.265 134.713 208.734 135.158C208.14 135.263 207.564 135.317 207.033 135.317C206.111 135.317 205.577 135.158 205.44 135.091C204.394 134.366 203.173 133.982 201.905 133.982C199.886 133.982 197.988 134.967 196.827 136.617C194.862 139.415 195.536 143.291 198.334 145.256C200.63 146.868 203.625 147.72 206.998 147.72L206.995 147.723Z" fill="#FBD28F"/>
<path d="M223.452 90.7849C218.454 90.7849 214.178 93.1346 211.24 97.7225C205.841 106.155 210.153 113.801 213.955 120.548C217.014 125.972 217.459 130.299 215.281 133.406C214.219 134.919 211.695 136.255 209.002 136.725C208.264 136.855 207.603 136.906 207.024 136.906C205.752 136.906 204.888 136.655 204.544 136.41C203.737 135.844 202.811 135.571 201.896 135.571C200.446 135.571 199.018 136.255 198.118 137.53C196.656 139.612 197.155 142.49 199.241 143.952C201.282 145.389 203.962 146.13 206.992 146.13C208.146 146.13 209.348 146.022 210.588 145.806C215.768 144.9 220.343 142.242 222.829 138.7C225.85 134.391 228.155 126.961 221.987 116.02C218.155 109.223 216.814 106.116 219.004 102.692C219.612 101.745 220.747 99.9704 223.522 99.9704C224.998 99.9704 226.937 100.473 229.503 101.872C230.202 102.253 230.959 102.435 231.703 102.435C233.337 102.435 234.921 101.563 235.757 100.028C236.975 97.7925 236.148 94.9914 233.913 93.7736C230.234 91.7706 226.692 90.7849 223.452 90.7849ZM223.452 87.6055C227.287 87.6055 231.318 88.7405 235.433 90.9821C237.261 91.9772 238.59 93.6242 239.178 95.6177C239.766 97.6144 239.544 99.7193 238.549 101.547C237.185 104.056 234.562 105.614 231.703 105.614C230.409 105.614 229.125 105.287 227.983 104.667C225.684 103.414 224.289 103.153 223.522 103.153C222.578 103.153 222.266 103.496 221.685 104.412C220.616 106.081 220.89 107.604 224.759 114.466C227.831 119.915 229.268 125.142 229.032 130.01C228.845 133.854 227.637 137.396 225.436 140.534C222.476 144.753 217.135 147.898 211.142 148.947C209.73 149.195 208.337 149.319 206.996 149.319C203.291 149.319 199.978 148.365 197.416 146.566C193.902 144.095 193.054 139.227 195.521 135.714C196.977 133.641 199.362 132.404 201.899 132.404C203.412 132.404 204.868 132.837 206.134 133.66C206.286 133.695 206.592 133.74 207.027 133.74C207.463 133.74 207.949 133.695 208.455 133.606C210.642 133.221 212.27 132.178 212.68 131.593C214.095 129.574 213.593 126.389 211.189 122.122C209.24 118.666 207.034 114.752 206.051 110.494C204.849 105.277 205.67 100.543 208.563 96.0215C212.032 90.6005 217.319 87.6182 223.452 87.6182V87.6055Z" fill="#7E6551"/>
<path d="M124.415 131.056C125.19 145.456 129.88 159.458 170.565 160.209C191.378 160.59 211.087 158.594 208.375 140.871C206.178 126.519 191.804 120.691 184.637 116.583C177.471 112.475 168.663 103.252 147.237 102.857C127.839 102.501 123.337 111.003 124.415 131.056Z" fill="#FBD28F" stroke="#7E6551" stroke-width="3.17947"/>
<path d="M123.865 157.456C126.586 154.353 125.311 139.199 124.351 131.057L146.531 140.188C144.996 148.286 144.7 149.237 144.922 159.755C145.145 170.275 137.699 167.627 132.564 167.535C119.242 167.29 120.463 161.338 123.865 157.456Z" fill="#FBD28F"/>
<path d="M133.108 168.095C127.402 167.989 122.834 164.773 122.906 160.91C122.977 157.048 127.661 154.002 133.367 154.108C139.073 154.213 143.64 157.43 143.569 161.292C143.497 165.155 138.814 168.201 133.108 168.095Z" fill="white"/>
<path d="M124.352 131.057C125.312 139.199 126.278 154.632 123.83 159.37C121.382 164.104 124.139 167.261 131.871 167.404C137.006 167.5 143.82 166.788 144.92 159.758C146.551 149.339 144.993 148.286 146.528 140.191" stroke="#7E6551" stroke-width="3.17947" stroke-linecap="round" stroke-linejoin="round"/>
<path d="M120.18 96.0217C123.976 88.9188 128.046 86.7281 129.079 81.0559C130.262 74.5539 131.092 67.9056 136.214 68.001C141.339 68.0964 143.12 74.6525 143.342 76.8781C146.093 76.2804 152.105 76.2072 154.998 77.6475C157.094 74.3536 158.795 68.4175 162.327 68.4811C170.327 68.6274 181.21 94.7753 171.672 110.765H127.264C125.423 109.76 117.02 101.936 120.18 96.0249V96.0217Z" fill="#FBD28F"/>
<path d="M145.175 113.629C136.835 113.474 130.163 108.582 130.272 102.7C130.381 96.8185 137.229 92.1757 145.569 92.33C153.908 92.4843 160.58 97.3773 160.472 103.259C160.363 109.14 153.514 113.783 145.175 113.629Z" fill="white"/>
<path d="M152.353 78.1562C151.908 79.2818 151.011 82.0002 150.976 83.8539" stroke="#E6B86E" stroke-width="3.81537" stroke-linecap="round" stroke-linejoin="round"/>
<path d="M145.994 78.0391C145.444 79.1646 144.334 81.8767 144.299 83.7303" stroke="#E6B86E" stroke-width="3.81537" stroke-linecap="round" stroke-linejoin="round"/>
<path d="M127.893 111.095C124.749 109.13 119.951 102.043 120.832 97.2899C122.301 89.373 127.423 86.2476 128.453 80.5754C129.636 74.0734 132.449 67.9306 136.211 68.0006C139.972 68.0705 143.117 74.652 143.339 76.8777C146.089 76.2799 152.102 76.2068 154.995 77.6471C157.087 74.3532 158.524 68.5411 162.324 68.4807C170.594 68.3535 180.892 97.1404 172.702 109.76" stroke="#7E6551" stroke-width="3.17947" stroke-linecap="round" stroke-linejoin="round"/>
<path d="M152.709 94.6643C151.304 94.6643 150.166 93.5255 150.166 92.1207C150.166 90.7159 151.304 89.5771 152.709 89.5771C154.114 89.5771 155.253 90.7159 155.253 92.1207C155.253 93.5255 154.114 94.6643 152.709 94.6643Z" fill="#7E6551"/>
<path d="M139.037 94.0286C137.633 94.0286 136.494 92.8898 136.494 91.485C136.494 90.0802 137.633 88.9414 139.037 88.9414C140.442 88.9414 141.581 90.0802 141.581 91.485C141.581 92.8898 140.442 94.0286 139.037 94.0286Z" fill="#7E6551"/>
<path d="M124.876 95.7676C123.258 94.8583 119.01 93.1319 114.972 93.5039" stroke="#7E6551" stroke-width="2.21927" stroke-linecap="round" stroke-linejoin="round"/>
<path d="M124.908 101.179C122.752 100.632 117.452 99.9041 113.5 101.386" stroke="#7E6551" stroke-width="2.21927" stroke-linecap="round" stroke-linejoin="round"/>
<path d="M169.678 96.5908C171.328 95.7418 175.636 94.1744 179.658 94.6926" stroke="#7E6551" stroke-width="2.21927" stroke-linecap="round" stroke-linejoin="round"/>
<path d="M169.446 101.999C171.62 101.532 176.943 100.998 180.838 102.626" stroke="#7E6551" stroke-width="2.21927" stroke-linecap="round" stroke-linejoin="round"/>
<path d="M147.05 96.1615C146.299 95.993 145.74 95.497 145.291 94.5908C144.798 95.2808 144.236 95.7704 143.415 96.0407" stroke="#7E6551" stroke-width="1.27179" stroke-linecap="round" stroke-linejoin="round"/>
<path d="M144.131 92.8865C144.112 93.1027 144.214 93.4015 144.43 93.6654C144.643 93.923 144.942 94.1106 145.269 94.1392C145.6 94.1678 145.924 94.0342 146.179 93.8149C146.439 93.5923 146.589 93.3125 146.608 93.0963C146.617 92.9946 146.595 92.9246 146.56 92.8674C146.522 92.807 146.458 92.7466 146.353 92.6893C146.14 92.5717 145.813 92.4986 145.412 92.4668C145.012 92.4318 144.675 92.4477 144.446 92.5272C144.334 92.5653 144.258 92.613 144.214 92.6671C144.169 92.7179 144.137 92.7847 144.128 92.8865H144.131Z" fill="#7E6551" stroke="#7E6551" stroke-width="0.505536"/>
<path d="M170.53 137.03C173.458 131.043 177.601 131.12 181.741 131.196L208.083 138.703C208.432 142.795 208.82 153.967 201.53 161.77C195.673 168.036 175.159 166.056 170.031 164.011C165.862 162.351 165.309 155.379 170.186 155.471C172.314 155.509 173.891 154.021 175.404 152.686C170.355 149.675 166.978 144.283 170.527 137.033L170.53 137.03Z" fill="#FBD28F"/>
<path d="M184.108 166.209C174.35 166.028 166.488 163.249 166.548 160.001C166.608 156.753 174.567 154.266 184.325 154.447C194.083 154.627 201.945 157.406 201.885 160.654C201.825 163.902 193.866 166.389 184.108 166.209Z" fill="white"/>
<path d="M178.441 133.154C174.622 133.914 171.185 136.188 170.012 141.316C168.565 147.64 175.045 153.226 178.142 154.517C173.08 154.543 165.72 153.767 166.406 160.641C167.106 167.648 184.606 166.135 191.934 165.569C198.506 165.06 210.817 159.875 207.762 138.353" stroke="#7E6551" stroke-width="3.17947" stroke-linecap="round" stroke-linejoin="round"/>
<path d="M144.214 157.633C146.936 154.514 145.664 139.294 144.704 131.11L166.884 140.283C165.345 148.416 165.049 149.373 165.272 159.942C165.494 170.51 158.048 167.852 152.913 167.757C139.591 167.512 140.812 161.532 144.214 157.633Z" fill="#FBD28F"/>
<path d="M153.48 168.154C147.775 168.048 143.207 164.831 143.278 160.969C143.35 157.106 148.033 154.061 153.739 154.166C159.445 154.272 164.013 157.489 163.941 161.351C163.87 165.214 159.186 168.259 153.48 168.154Z" fill="white"/>
<path d="M229.506 101.872C226.756 100.375 224.73 99.9071 223.22 99.9803C222.803 98.9406 222.492 97.7992 222.317 96.5878C222.018 94.5148 222.161 92.5276 222.648 90.8107C226.101 90.6326 229.929 91.6055 233.916 93.7739C235.331 94.5434 236.179 95.9487 236.303 97.4399C236.275 98.0503 236.208 98.6449 236.103 99.214C236.014 99.4906 235.903 99.7609 235.76 100.025C234.542 102.26 231.744 103.087 229.506 101.869V101.872Z" fill="white"/>
<path d="M144.541 139.873C145.502 148.054 146.627 154.797 144.179 159.554C141.731 164.31 144.484 167.484 152.22 167.627C157.355 167.722 164.168 167.007 165.272 159.945C166.903 149.478 165.345 148.423 166.884 140.286" stroke="#7E6551" stroke-width="3.17947" stroke-linecap="round" stroke-linejoin="round"/>
<path d="M81.2348 201.168C80.212 199.794 78.2516 196.873 77.3993 195.584L69.7282 190L59.5 192.577C61.0626 197.159 64.4436 206.752 65.4664 208.47C66.7449 210.618 70.5805 217.491 78.6778 214.054C86.7751 210.618 82.5134 202.886 81.2348 201.168Z" fill="#3C3733"/>
<path d="M94.5 181.313C94.5 181.313 93.7622 196.823 76.8999 191.498C76.8999 191.498 75.3329 196.077 81.1394 201.589C86.9458 207.102 81.8771 218.549 72.1097 215.489C62.3422 212.429 50.4551 173.653 66.0289 173" stroke="#736960" stroke-width="1.94473" stroke-miterlimit="10" stroke-linecap="round"/>
<path d="M59.739 147.049L59.7463 147.073C59.7317 147.022 58.3437 141.788 54.7289 136.926C50.3508 131.039 44.8934 128.394 38.0431 128.841C27.1429 129.551 18.9482 127.414 13.6853 122.491C9.17352 118.269 8.5901 113.585 8.5196 112.688C8.24977 109.275 10.7974 106.289 14.2104 106.02C17.5359 105.757 20.4554 108.168 20.8516 111.448C20.9076 111.691 21.2406 112.807 22.7332 113.922C25.502 115.994 30.6507 116.898 37.2336 116.47C48.462 115.738 58.0495 120.389 64.9606 129.92C69.8006 136.596 72.1489 142.743 72.3336 143.485M20.8784 111.701V111.71C20.8784 111.71 20.8784 111.703 20.8784 111.701ZM20.8784 111.691C20.8784 111.691 20.8784 111.696 20.8784 111.698C20.8784 111.696 20.8784 111.693 20.8784 111.691Z" fill="#3C3733"/>
<path d="M59.739 147.049L59.7463 147.073C59.7317 147.022 58.3437 141.788 54.7289 136.926C50.3508 131.039 44.8934 128.394 38.0431 128.841C27.1429 129.551 18.9482 127.414 13.6853 122.491C9.17352 118.269 8.5901 113.585 8.5196 112.688C8.24977 109.275 10.7974 106.289 14.2104 106.02C17.5359 105.757 20.4554 108.168 20.8516 111.448C20.9076 111.691 21.2406 112.807 22.7332 113.922C25.502 115.994 30.6507 116.898 37.2336 116.47C48.462 115.738 58.0495 120.389 64.9606 129.92C69.8006 136.596 72.1489 142.743 72.3336 143.485M20.8784 111.701V111.71C20.8784 111.71 20.8784 111.703 20.8784 111.701ZM20.8784 111.691C20.8784 111.691 20.8784 111.696 20.8784 111.698C20.8784 111.696 20.8784 111.693 20.8784 111.691Z" stroke="#736960" stroke-width="2.18783" stroke-miterlimit="10" stroke-linecap="round"/>
<path d="M157.89 201.582C150.777 196.409 140.608 181.648 140.608 181.648C153.913 176.939 147.391 160.635 146.681 157.39C145.927 153.941 150.67 143.918 145.495 142.408C140.322 140.899 134.176 147.044 134.176 147.044C129.11 143.488 122.644 143.811 122.644 143.811C123.074 139.391 122.86 125.273 108.202 139.068C101.799 145.094 98.8502 151.41 97.5618 156.612C93.541 154.242 89.3185 151.301 86.5376 148.123C79.748 140.364 65.8432 140.148 56.788 149.31C47.7353 158.472 48.7052 173.67 48.7052 173.67C30.4903 174.423 44.3927 219.155 55.8181 222.684C67.2434 226.214 73.1724 213.009 66.3804 206.65C59.5908 200.291 61.4213 195.008 61.4213 195.008C68.9936 197.366 73.7825 196.183 76.8139 193.827C76.8139 193.827 90.3274 202.16 109.665 201.657C113.219 205.967 118.035 211.427 122.768 215.596C131.757 223.511 141.682 228.879 149.223 221.868C149.833 222.624 150.429 223.339 151 224C155 228 165.11 222.816 166.726 215.81C168.343 208.804 165.003 206.757 157.887 201.582H157.89Z" fill="#3C3733"/>
<path d="M96.9902 168.169C96.9902 168.169 93.5408 152.864 108.199 139.068C122.858 125.273 123.074 139.391 122.641 143.811C122.641 143.811 129.108 143.488 134.174 147.044C134.174 147.044 140.316 140.901 145.492 142.408C150.667 143.915 145.922 153.941 146.678 157.39C147.434 160.839 154.761 179.054 137.839 182.397" stroke="#736960" stroke-width="1.94473" stroke-miterlimit="10" stroke-linecap="round"/>
<path d="M140.608 181.648C140.608 181.648 150.774 196.409 157.89 201.582C165.005 206.755 168.345 208.804 166.728 215.81C165.112 222.816 155 229.001 149.5 222.001" stroke="#736960" stroke-width="1.94473" stroke-miterlimit="10" stroke-linecap="round"/>
<path d="M126.068 185C126.068 185 134.584 198.035 140.62 202.347C146.656 206.659 158.188 213.665 150.428 221.209C142.669 228.752 136.346 227.028 127.164 218.945C117.983 210.863 108.5 197.928 108.5 197.928" stroke="#736960" stroke-width="1.94473" stroke-miterlimit="10" stroke-linecap="round"/>
<path d="M71.7623 142.396C77.492 142.068 82.9859 144.061 86.5374 148.119C89.333 151.313 93.5895 154.271 97.6297 156.649" stroke="#736960" stroke-width="1.94473" stroke-miterlimit="10" stroke-linecap="round"/>
<path d="M82.0084 183.257C82.0084 183.257 81.1454 201.149 61.4209 195.006C61.4209 195.006 59.588 200.288 66.38 206.647C73.172 213.007 67.243 226.211 55.8177 222.682C44.3924 219.152 30.4875 174.421 48.7048 173.667C48.7048 173.667 47.7349 158.469 56.7876 149.307C57.7454 148.337 58.7591 147.471 59.8117 146.711C59.8117 146.711 61.2435 145.551 65.1816 144.134" stroke="#736960" stroke-width="1.94473" stroke-miterlimit="10" stroke-linecap="round"/>
<path d="M76.814 193.827C76.814 193.827 90.3274 202.16 109.665 201.657" stroke="#736960" stroke-width="1.94473" stroke-miterlimit="10" stroke-linecap="round"/>
<path d="M145.062 170.431C145.062 170.431 150.585 169.058 155.76 172.128" stroke="#736960" stroke-width="1.94473" stroke-miterlimit="10" stroke-linecap="round"/>
<path d="M143.312 174.797C143.312 174.797 150.668 174.474 154.307 178.84" stroke="#736960" stroke-width="1.94473" stroke-miterlimit="10" stroke-linecap="round"/>
<path d="M104.106 157.093C104.106 157.093 102.166 152.727 95.5369 150.221" stroke="#736960" stroke-width="1.94473" stroke-miterlimit="10" stroke-linecap="round"/>
<path d="M101.923 161.459C101.923 161.459 99.4967 157.579 92.1407 156.609" stroke="#736960" stroke-width="1.94473" stroke-miterlimit="10" stroke-linecap="round"/>
<path d="M123.901 163.943C124.674 164.028 125.372 163.737 126.094 163.02C126.337 163.841 126.716 164.493 127.411 165.023" stroke="#8F8A84" stroke-width="1.28352" stroke-linecap="round" stroke-linejoin="round"/>
<path d="M127.764 161.773C127.71 161.985 127.516 162.24 127.221 162.42C126.932 162.597 126.587 162.677 126.264 162.597C125.94 162.517 125.673 162.281 125.5 161.989C125.325 161.693 125.272 161.377 125.325 161.163C125.35 161.063 125.393 161.002 125.447 160.959C125.503 160.913 125.585 160.876 125.702 160.857C125.943 160.815 126.278 160.852 126.675 160.951C127.071 161.051 127.384 161.175 127.576 161.326C127.671 161.399 127.725 161.469 127.754 161.537C127.781 161.6 127.79 161.676 127.766 161.773H127.764Z" fill="#8F8A84" stroke="#8F8A84" stroke-width="0.510493"/>
<path d="M130.724 162.086H133.974" stroke="#8F8A84" stroke-width="1.28352" stroke-linecap="round" stroke-linejoin="round"/>
<path d="M121.953 159.58L118.937 157.956" stroke="#8F8A84" stroke-width="1.28352" stroke-linecap="round" stroke-linejoin="round"/>
</svg>
