<svg width="24" height="24" viewBox="0 0 24 24" fill="none" xmlns="http://www.w3.org/2000/svg">
<path d="M3.83694 5.52958C3.93945 3.39056 6.33434 2.2051 7.71958 3.60769L10.0933 6.01116C10.6758 5.9072 11.2791 5.85258 11.8972 5.85258C12.511 5.85258 13.1102 5.90645 13.689 6.00901L16.0606 3.60775C17.4458 2.20516 19.8407 3.39062 19.9432 5.52964L20.1945 10.7742C20.5819 11.6391 20.7944 12.5796 20.7944 13.5631C20.7944 17.8215 16.811 21.2736 11.8972 21.2736C6.9834 21.2736 3 17.8215 3 13.5631C3 12.5932 3.20665 11.6651 3.58388 10.8101L3.83694 5.52958Z" fill="#FFBC3A"/>
</svg>
