<svg width="24" height="24" viewBox="0 0 24 24" fill="none" xmlns="http://www.w3.org/2000/svg">
<path d="M8.96325 18.5097C9.14037 18.1949 9.47356 18 9.83483 18H14.1651C14.5264 18 14.8596 18.1949 15.0367 18.5097L16.1617 20.5097C16.5367 21.1763 16.055 22 15.2901 22H8.70983C7.945 22 7.46329 21.1763 7.83825 20.5097L8.96325 18.5097Z" fill="#FFDE9D"/>
<path d="M3 6C3 4.89543 3.89543 4 5 4H19C20.1046 4 21 4.89543 21 6V15C21 16.1046 20.1046 17 19 17H5C3.89543 17 3 16.1046 3 15V6Z" fill="#FFBC3A" stroke="#FFBC3A" stroke-width="2"/>
<path d="M8 15C8 14.4477 8.44772 14 9 14H15C15.5523 14 16 14.4477 16 15C16 15.5523 15.5523 16 15 16H9C8.44772 16 8 15.5523 8 15Z" fill="#FFDE9D"/>
</svg>
