<svg width="32" height="32" viewBox="0 0 32 32" fill="none" xmlns="http://www.w3.org/2000/svg">
<path fill-rule="evenodd" clip-rule="evenodd" d="M22.6666 12H9.33331V20H22.6666V12Z" fill="#FFDE9D"/>
<path fill-rule="evenodd" clip-rule="evenodd" d="M5.33331 4.66675C3.12417 4.66675 1.33331 6.45761 1.33331 8.66675V23.3334C1.33331 25.5426 3.12417 27.3334 5.33331 27.3334H7.99998C10.2091 27.3334 12 25.5426 12 23.3334V8.66675C12 6.45761 10.2091 4.66675 7.99998 4.66675H5.33331ZM24 4.66675C21.7908 4.66675 20 6.45761 20 8.66675V23.3334C20 25.5426 21.7908 27.3334 24 27.3334H26.6666C28.8758 27.3334 30.6666 25.5426 30.6666 23.3334V8.66675C30.6666 6.45761 28.8758 4.66675 26.6666 4.66675H24Z" fill="#FFBC3A"/>
</svg>
