<svg width="154" height="173" viewBox="0 0 154 173" fill="none" xmlns="http://www.w3.org/2000/svg">
<g clip-path="url(#clip0_2449_29536)">
<path d="M140.479 113.851C140.479 114.075 140.476 114.296 140.47 114.518C140.47 114.624 140.47 114.73 140.464 114.836C140.464 115.01 140.455 115.181 140.45 115.353C140.444 115.477 140.438 115.603 140.432 115.727C140.42 115.952 140.408 116.173 140.396 116.394C140.373 116.737 140.346 117.079 140.317 117.418C140.222 118.513 140.083 119.581 139.903 120.626C139.811 121.184 139.708 121.733 139.592 122.276C137.7 131.285 133.187 138.205 130.168 142.041C130.163 142.053 130.154 142.062 130.145 142.071C128.856 143.708 127.845 144.783 127.434 145.207C127.21 145.441 126.982 145.671 126.751 145.898C126.695 145.954 126.639 146.007 126.583 146.063C126.332 146.311 126.077 146.553 125.817 146.795C125.548 147.046 125.273 147.294 124.998 147.539C124.992 147.545 124.987 147.551 124.981 147.553C124.413 148.058 123.831 148.545 123.243 149.008C121.031 150.767 118.684 152.275 116.237 153.553C112.465 155.524 108.454 156.955 104.321 157.926C104.3 157.929 104.283 157.932 104.265 157.938C104.064 157.985 103.86 158.029 103.659 158.077C103.047 158.212 102.435 158.339 101.82 158.454C101.811 158.454 101.802 158.457 101.797 158.46C101.392 158.534 100.984 158.608 100.576 158.676C100.558 158.679 100.54 158.682 100.525 158.685C100.141 158.746 99.7569 158.808 99.3667 158.865C98.6927 158.965 98.0129 159.053 97.3271 159.13C96.928 159.177 96.523 159.219 96.121 159.254C95.8786 159.278 95.6392 159.301 95.3997 159.319C94.977 159.354 94.5543 159.387 94.1316 159.413C94.1257 159.413 94.1168 159.416 94.1109 159.413C93.4813 159.455 92.8516 159.487 92.222 159.508C91.9737 159.52 91.7254 159.528 91.4741 159.531C91.3145 159.537 91.1578 159.54 90.9982 159.543C90.8061 159.549 90.6139 159.552 90.4218 159.552C90.1705 159.552 89.9222 159.558 89.671 159.558H89.5232C89.1832 159.558 88.8433 159.555 88.5063 159.549C88.1427 159.543 87.7821 159.537 87.4185 159.526C87.0992 159.517 86.777 159.505 86.4578 159.49C86.2331 159.481 86.0084 159.472 85.7867 159.458C85.5148 159.446 85.2428 159.431 84.9738 159.413C84.7048 159.399 84.4388 159.381 84.1698 159.36C80.4954 159.098 76.8743 158.575 73.3951 157.843C72.5437 157.669 71.7042 157.478 70.8706 157.277C70.1671 157.106 69.4724 156.929 68.7866 156.74C65.807 155.937 62.9692 154.987 60.3324 153.933C59.9422 153.777 59.5579 153.618 59.1736 153.455C58.9785 153.373 58.7864 153.29 58.5943 153.208C58.3164 153.087 58.0385 152.966 57.7636 152.842C56.8739 152.443 55.7328 151.93 54.4115 151.278C54.1987 151.171 53.9829 151.062 53.7612 150.953C52.3541 150.245 50.7697 149.383 49.0847 148.35C43.9235 145.193 37.9612 140.483 33.1843 133.433C33.0453 133.227 32.9035 133.017 32.7645 132.805C32.6256 132.592 32.4896 132.38 32.3536 132.164C32.3418 132.147 32.33 132.129 32.3182 132.111C32.058 131.698 31.8009 131.276 31.5466 130.845C31.4166 130.621 31.2836 130.394 31.1564 130.166C31.0264 129.939 30.8993 129.709 30.7722 129.476C30.3613 128.723 29.9799 127.971 29.6223 127.221C26.282 120.228 25.1971 113.606 24.9015 108.554C24.8719 108.073 24.8512 107.612 24.8365 107.167C24.8306 106.966 24.8246 106.768 24.8187 106.576C24.8158 106.479 24.8128 106.382 24.8128 106.287C24.801 105.564 24.8039 104.886 24.8099 104.257C24.8099 104.139 24.8128 104.024 24.8158 103.912C24.8217 103.682 24.8276 103.46 24.8335 103.245C24.8453 102.808 24.8601 102.424 24.8749 102.097C24.8867 101.802 24.8956 101.489 24.9015 101.159C24.9045 101.052 24.9074 100.94 24.9074 100.828C24.9104 100.716 24.9104 100.601 24.9133 100.486C24.9163 100.258 24.9192 100.025 24.9222 99.7834C24.9222 99.6653 24.9251 99.5443 24.9251 99.4233C24.9281 99.1991 24.9311 98.9689 24.934 98.7358C24.937 98.5026 24.9399 98.2666 24.9429 98.0216C24.9458 97.7797 24.9488 97.5347 24.9547 97.2839C24.9636 96.9091 24.9724 96.5226 24.9843 96.1301C24.9902 95.953 24.9961 95.773 25.005 95.593C25.0138 95.3097 25.0286 95.0235 25.0404 94.7343C25.0523 94.5247 25.0611 94.3152 25.0759 94.1028C25.0848 93.9375 25.0966 93.7752 25.1055 93.6099C25.1291 93.2706 25.1528 92.9283 25.1823 92.5801C25.2119 92.2319 25.2444 91.8807 25.2799 91.5266C25.3006 91.3466 25.3183 91.1695 25.339 90.9925C25.3597 90.8124 25.3804 90.6354 25.404 90.4524C25.4247 90.2636 25.4513 90.0717 25.4779 89.8799C25.5016 89.7088 25.5252 89.5376 25.5518 89.3635C25.605 88.9976 25.6642 88.6317 25.7292 88.2599C25.7617 88.074 25.7942 87.888 25.8297 87.7021C25.8622 87.5162 25.9006 87.3274 25.9391 87.1414C25.9775 86.9555 26.0159 86.7667 26.0573 86.5778C26.1401 86.1942 26.2288 85.8106 26.3263 85.4269C26.3736 85.244 26.4179 85.064 26.4682 84.881C26.5184 84.6922 26.5717 84.5033 26.6249 84.3144C26.6781 84.1226 26.7342 83.9338 26.7904 83.7449C26.7963 83.7242 26.8022 83.7036 26.8081 83.6829C26.9205 83.3229 27.0357 82.9629 27.1599 82.6058C27.29 82.2251 27.4259 81.8474 27.5737 81.4668C27.6447 81.2779 27.7215 81.089 27.7984 80.9002C27.9314 80.5697 28.0733 80.2421 28.2211 79.9145C28.2625 79.8231 28.3039 79.7286 28.3482 79.6372C28.4133 79.4926 28.4812 79.348 28.5522 79.2063C28.6379 79.0234 28.7295 78.8434 28.8212 78.6633C28.8596 78.5866 28.898 78.5099 28.9365 78.4361C29.0015 78.3092 29.0695 78.1823 29.1375 78.0554C29.2557 77.8341 29.3799 77.6157 29.504 77.3974C29.5838 77.2587 29.6666 77.117 29.7494 76.9783C29.841 76.8249 29.9326 76.6744 30.0302 76.5239C30.4825 75.795 30.9761 75.0779 31.5141 74.3756C31.6117 74.2517 31.7063 74.1277 31.8068 74.0038C31.9102 73.868 32.0196 73.7352 32.129 73.6024C32.1615 73.5641 32.1911 73.5257 32.2265 73.4874C32.3182 73.3752 32.4157 73.2631 32.5133 73.148C32.9035 72.6965 33.3173 72.248 33.7518 71.8083C33.8257 71.7315 33.8996 71.6578 33.9765 71.584C34.6032 70.9613 35.2742 70.3564 35.9925 69.7721C36.5601 69.3088 35.2565 69.0019 34.9579 68.9399C34.9195 68.9311 34.8988 68.9281 34.8988 68.9281C34.7007 68.6861 34.4908 68.4501 34.2721 68.214L34.1745 68.1078C33.873 67.7891 33.5479 67.4585 33.2109 67.1221C32.3802 66.2841 31.5023 65.4017 30.7042 64.3276C30.6273 64.2243 30.5505 64.1181 30.4766 64.0118C30.3997 63.9056 30.3258 63.7964 30.2519 63.6843C30.1869 63.5869 30.1218 63.4866 30.0598 63.3833C30.0243 63.3302 29.9918 63.28 29.9593 63.2239C29.773 62.9141 29.5927 62.5895 29.4213 62.2442C29.3592 62.1144 29.2941 61.9845 29.235 61.8488C29.1789 61.7278 29.1257 61.6038 29.0695 61.477C29.0636 61.4651 29.0606 61.4504 29.0547 61.4386C28.9985 61.2969 28.9424 61.1553 28.8862 61.0078C28.7798 60.7245 28.6793 60.4294 28.5877 60.1225C28.5285 59.9188 28.4694 59.7152 28.4192 59.5028C28.3926 59.4054 28.3689 59.308 28.3482 59.2077C28.298 59.007 28.2566 58.8004 28.2152 58.5909C28.1531 58.2575 28.097 57.924 28.0497 57.5846C26.8939 49.2924 30.7899 40.2979 35.7383 32.4985C36.2467 31.6988 36.7818 30.8903 37.3404 30.0699C39.3299 27.1484 41.4168 24.4365 43.3648 22.0521C44.0595 21.1993 44.7778 20.3376 45.5198 19.4671C46.0607 18.8326 47.5033 17.2362 49.4306 15.321C49.6168 15.1351 49.809 14.9433 50.007 14.7515C50.0454 14.7131 50.0868 14.6718 50.1282 14.6334C50.2346 14.5272 50.344 14.421 50.4563 14.3147C51.1865 13.6094 51.9669 12.8776 52.7798 12.1517C52.8803 12.0602 52.9808 11.9687 53.0842 11.8802C53.2793 11.7061 53.4774 11.532 53.6754 11.3608L54.0568 11.0332C54.4322 10.7116 54.7958 10.4076 55.1535 10.1185C55.319 9.98271 55.4816 9.85287 55.6412 9.72598C55.789 9.60794 55.9338 9.49285 56.0787 9.38071C56.4305 9.10627 56.7734 8.84659 57.1044 8.60166C57.3409 8.42755 57.5774 8.25935 57.8139 8.09114C57.8198 8.08819 57.8257 8.08229 57.8316 8.07934C60.3442 6.31171 62.8421 5.00444 64.9024 4.81853C65.0177 4.80673 65.13 4.79787 65.2365 4.79492C65.3843 4.79492 65.5261 4.79492 65.6592 4.79787C65.8809 4.80968 66.0819 4.83328 66.2651 4.87165C66.345 4.8864 66.4218 4.90411 66.4987 4.92476C66.6731 4.96903 66.8416 5.0251 67.0042 5.09002C67.0544 5.10772 67.1047 5.12838 67.1549 5.15199C71.1988 6.89896 71.8166 14.4298 71.7456 18.4992V18.57C71.7338 19.1868 71.7072 19.7238 71.6747 20.1429C72.257 20.1222 72.8719 20.1311 73.5045 20.1665H73.5636L73.9508 20.2019C74.1814 20.2196 74.4149 20.2432 74.6455 20.2668C75.1007 20.314 75.5648 20.376 76.0319 20.4557C76.0466 20.4586 76.0585 20.4586 76.0732 20.4616C76.2595 20.494 76.4457 20.5265 76.629 20.5619C76.9364 20.618 77.2438 20.6799 77.5453 20.7508C77.699 20.7832 77.8528 20.8186 78.0035 20.857C78.1011 20.8777 78.1957 20.9042 78.2903 20.9308C78.7366 21.0429 79.183 21.1698 79.6234 21.3085C79.919 21.4 80.2117 21.4974 80.5043 21.6006C80.6492 21.6538 80.794 21.7069 80.9389 21.76C81.2285 21.8692 81.5153 21.9843 81.7991 22.1023C81.9409 22.1613 82.0799 22.2233 82.2218 22.2853C82.5026 22.4092 82.7775 22.539 83.0495 22.6748C83.4574 22.8784 83.8564 23.0938 84.2437 23.321C84.2555 23.3269 84.2644 23.3328 84.2762 23.3388C84.7787 23.6397 85.2606 23.9585 85.7158 24.2978C85.9671 24.0706 86.2833 23.7843 86.6588 23.4509C86.8479 23.2856 87.049 23.1086 87.2647 22.9227C87.3386 22.8548 87.4125 22.7899 87.4864 22.7309C90.141 20.4439 94.6016 16.8614 98.9588 14.6777C99.0534 14.6275 99.145 14.5833 99.2366 14.539C102.335 13.0251 105.362 12.249 107.62 13.1815C107.72 13.2229 107.818 13.2671 107.916 13.3143C107.924 13.3202 107.936 13.3232 107.945 13.3291C108.043 13.3763 108.137 13.4294 108.232 13.4855C108.288 13.518 108.344 13.5534 108.397 13.5888C108.507 13.6596 108.613 13.7363 108.717 13.816H108.72C108.823 13.8986 108.924 13.9842 109.021 14.0727H109.024C109.074 14.12 109.125 14.1672 109.169 14.2144C109.317 14.356 109.456 14.5065 109.589 14.6688C112.616 18.2956 112.902 26.6792 112.601 33.7527V33.7822C112.583 34.1658 112.565 34.5465 112.548 34.9213C112.515 35.5587 112.477 36.1813 112.438 36.7833C112.423 37.0253 112.409 37.2614 112.391 37.4945C112.353 38.0788 112.311 38.6395 112.27 39.1707C112.255 39.3536 112.24 39.5307 112.225 39.7077C112.199 40.0736 112.169 40.4248 112.143 40.7553C112.128 40.9117 112.116 41.0681 112.104 41.2186L112.078 41.5314L112.084 41.5609L112.104 41.6819C112.113 41.7262 112.122 41.7793 112.134 41.8383C112.143 41.8855 112.152 41.9357 112.16 41.9918C112.175 42.0773 112.193 42.1747 112.214 42.2839C112.225 42.337 112.234 42.396 112.246 42.4551C112.282 42.6498 112.323 42.8771 112.373 43.1279C112.388 43.1958 112.4 43.2695 112.415 43.3463C112.456 43.5705 112.503 43.8125 112.556 44.0722C112.574 44.1637 112.595 44.2611 112.613 44.3584C112.672 44.6535 112.734 44.9663 112.802 45.2939C112.823 45.406 112.846 45.5182 112.87 45.6303C112.882 45.6805 112.893 45.7336 112.902 45.7837C112.938 45.9638 112.976 46.1467 113.018 46.3356C113.047 46.4772 113.08 46.6218 113.109 46.7694C113.157 46.9966 113.207 47.2297 113.26 47.4658C113.29 47.5986 113.316 47.7314 113.346 47.8701C113.396 48.0973 113.446 48.3304 113.502 48.5665C113.913 50.4168 114.41 52.509 114.98 54.6927C115.108 55.1796 115.241 55.6724 115.377 56.1682C115.377 56.1741 115.38 56.177 115.38 56.1829C115.456 56.4721 115.536 56.7613 115.619 57.0535C115.708 57.3633 115.796 57.6732 115.885 57.986C115.971 58.2899 116.059 58.5909 116.151 58.8949C116.231 59.1664 116.314 59.4408 116.396 59.7123C116.408 59.7447 116.417 59.7772 116.426 59.8067C116.503 60.0605 116.58 60.3143 116.662 60.5681C116.73 60.7864 116.798 61.0048 116.869 61.2202C116.923 61.3884 116.976 61.5537 117.032 61.7219C117.413 62.8875 117.812 64.0295 118.229 65.1332C118.333 65.4076 118.448 65.6968 118.572 65.9949C118.652 66.1808 118.735 66.3696 118.82 66.5644C118.865 66.6647 118.909 66.768 118.956 66.8713L119.08 67.1457C119.095 67.1723 119.107 67.2018 119.122 67.2343C119.261 67.5323 119.406 67.8392 119.559 68.152C119.613 68.2612 119.666 68.3733 119.725 68.4855C119.834 68.7098 119.95 68.937 120.068 69.1672C120.242 69.5095 120.425 69.8606 120.615 70.2147C121.011 70.9672 121.436 71.7374 121.883 72.5194C124.428 76.9901 127.57 81.7382 129.805 84.5653C130.171 85.0315 130.52 85.4476 130.84 85.8076C130.973 85.9552 131.103 86.1057 131.23 86.2562C131.36 86.4067 131.487 86.5572 131.611 86.7076C131.735 86.8582 131.859 87.0116 131.981 87.1651C132.105 87.3215 132.229 87.4779 132.347 87.6343C132.459 87.7789 132.569 87.9264 132.678 88.0739C132.743 88.1625 132.811 88.251 132.873 88.3425C132.971 88.4723 133.065 88.6051 133.157 88.7379C133.184 88.7763 133.21 88.8146 133.237 88.853C133.328 88.9858 133.42 89.1156 133.509 89.2484C134.472 90.6796 135.306 92.1492 136.024 93.6306C136.089 93.7634 136.151 93.8962 136.214 94.029C136.58 94.8021 136.914 95.5782 137.219 96.3543C137.281 96.5107 137.343 96.6701 137.402 96.8265C137.464 96.9888 137.526 97.1541 137.585 97.3164C137.65 97.4905 137.712 97.6646 137.774 97.8416C137.828 97.9921 137.881 98.1426 137.931 98.2931C138.043 98.6177 138.147 98.9423 138.25 99.2669C138.351 99.5856 138.448 99.9043 138.537 100.22C138.543 100.244 138.549 100.267 138.558 100.288C138.691 100.742 138.812 101.194 138.924 101.64C139.988 105.786 140.317 109.406 140.42 111.587C140.423 111.682 140.429 111.773 140.435 111.865C140.444 112.098 140.452 112.322 140.458 112.534C140.461 112.65 140.464 112.759 140.467 112.859V112.903C140.467 112.962 140.467 113.015 140.467 113.066C140.467 113.116 140.47 113.163 140.47 113.21C140.47 113.423 140.476 113.638 140.476 113.851H140.479Z" fill="#FBD28F"/>
<path d="M86.9682 63.7144C88.7068 55.0283 80.1154 45.9919 67.7787 43.531C55.442 41.0701 44.0317 46.1166 42.2931 54.8027C40.5545 63.4888 49.1459 72.5252 61.4826 74.9861C73.8192 77.447 85.2295 72.4005 86.9682 63.7144Z" fill="white"/>
<path d="M79.9723 33.4872C79.7861 33.4872 79.5969 33.4695 79.4047 33.4311C77.8469 33.1213 76.836 31.6074 77.1463 30.0523C77.9238 26.1629 80.9655 21.2348 81.0956 21.0282C81.9321 19.6797 83.7087 19.2636 85.0567 20.0987C86.4076 20.9338 86.8244 22.7044 85.9878 24.053C84.9768 25.679 83.2151 29.0519 82.7894 31.1766C82.5174 32.5429 81.3143 33.4872 79.9723 33.4872Z" fill="#E6B86E"/>
<path d="M70.6076 31.5195C70.4213 31.5195 70.2321 31.5018 70.04 31.4634C68.4822 31.1536 67.4712 29.6397 67.7816 28.0846C68.5709 24.148 71.9466 19.4825 72.328 18.9632C73.2709 17.6854 75.0711 17.4139 76.3511 18.3523C77.6311 19.2937 77.906 21.0908 76.963 22.3686C75.8101 23.9296 73.8326 27.1698 73.4246 29.2119C73.1527 30.5781 71.9496 31.5225 70.6076 31.5225V31.5195Z" fill="#E6B86E"/>
<path d="M71.2077 48.8772C70.5781 48.6883 69.9839 48.411 69.4371 48.0568C68.7897 47.6378 68.2281 47.1125 67.7492 46.5046C67.9975 46.4486 68.2458 46.3571 68.4852 46.2184C68.9937 45.9203 69.3691 45.4807 69.4903 45.041C69.5465 44.8285 69.5405 44.6308 69.4666 44.4478C69.3987 44.2767 69.2745 44.1173 69.0942 43.9727C68.7779 43.7189 68.2813 43.4976 67.6162 43.3176C66.9511 43.1376 66.4101 43.0756 66.011 43.1376C65.7805 43.173 65.5913 43.2468 65.4494 43.3589C65.2957 43.4799 65.1863 43.6481 65.1302 43.8576C65.0119 44.2973 65.1124 44.8669 65.4021 45.3803C65.5617 45.6636 65.7598 45.9026 65.9904 46.0885C65.5056 46.2863 65.006 46.4397 64.4976 46.543C63.5575 46.7348 62.5909 46.7643 61.6273 46.6315C61.1011 46.5607 60.6193 46.9237 60.5454 47.4489C60.4715 47.9742 60.838 48.4552 61.3642 48.529C62.5436 48.6913 63.729 48.6559 64.8848 48.4198C65.4228 48.3106 65.949 48.1572 66.4633 47.9624C67.022 48.6205 67.6723 49.19 68.3966 49.6592C69.0942 50.1107 69.8539 50.4619 70.655 50.7039C70.7466 50.7304 70.8412 50.7452 70.9328 50.7452C71.3437 50.7452 71.725 50.4796 71.8492 50.0664C72.0029 49.5589 71.7162 49.0248 71.2077 48.8713V48.8772Z" fill="#524A44"/>
<path d="M84.294 49.0746C78.6302 49.0746 75.0386 45.4921 74.8879 45.3387C74.2405 44.6806 74.2494 43.6212 74.9086 42.975C75.5678 42.3287 76.629 42.3375 77.2764 42.9956C77.297 43.0163 80.0727 45.7311 84.294 45.7311C85.2192 45.7311 85.97 46.4807 85.97 47.4043C85.97 48.328 85.2192 49.0775 84.294 49.0775V49.0746Z" fill="#524A44"/>
<path d="M50.4711 41.2633C55.4402 43.9752 60.3146 42.5528 60.5186 42.4909C61.4025 42.2223 61.905 41.2898 61.636 40.4075C61.367 39.5222 60.4329 39.0235 59.549 39.292C59.5195 39.3009 55.7801 40.3514 52.0762 38.33C51.2633 37.8874 50.2464 38.1854 49.803 38.994C49.3596 39.8025 49.6582 40.8206 50.4681 41.2633H50.4711Z" fill="#524A44"/>
<path d="M144.544 121.904C144.476 122.278 144.402 122.653 144.325 123.028C144.227 123.494 144 123.901 143.689 124.217C143.234 124.683 142.599 124.955 141.922 124.94C141.78 124.937 141.635 124.92 141.49 124.89C140.263 124.636 139.453 123.494 139.592 122.275C139.708 121.732 139.811 121.184 139.903 120.626C140.083 119.581 140.222 118.513 140.317 117.418C140.349 117.079 140.376 116.739 140.396 116.394C140.408 116.173 140.42 115.952 140.432 115.727C140.441 115.603 140.447 115.476 140.45 115.353C140.456 115.181 140.461 115.01 140.464 114.836C140.47 114.73 140.47 114.624 140.47 114.517C140.476 114.296 140.479 114.072 140.479 113.85C140.479 113.629 140.476 113.423 140.473 113.21C140.473 113.163 140.47 113.116 140.47 113.066C140.47 113.012 140.47 112.959 140.47 112.903V112.859C140.467 112.759 140.464 112.649 140.461 112.534C140.456 112.322 140.447 112.098 140.438 111.864C140.435 111.776 140.429 111.682 140.423 111.587C140.32 109.406 139.991 105.786 138.927 101.639C138.815 101.194 138.694 100.742 138.561 100.288C138.552 100.267 138.546 100.244 138.54 100.22C138.451 99.9042 138.354 99.5855 138.253 99.2668C138.15 98.9422 138.046 98.6176 137.934 98.293C137.884 98.1425 137.834 97.992 137.777 97.8415C137.715 97.6645 137.653 97.4904 137.588 97.3163C137.532 97.154 137.47 96.9916 137.405 96.8264C137.346 96.67 137.287 96.5136 137.222 96.3542C136.917 95.5781 136.583 94.802 136.217 94.0289C136.155 93.8961 136.092 93.7633 136.027 93.6305C135.309 92.1491 134.475 90.6796 133.512 89.2483C133.423 89.1155 133.331 88.9857 133.24 88.8529C133.213 88.8145 133.187 88.7762 133.16 88.7378C133.068 88.605 132.974 88.4722 132.876 88.3424C132.814 88.2509 132.746 88.1624 132.681 88.0738C132.572 87.9263 132.462 87.7788 132.35 87.6342C132.232 87.4778 132.108 87.3214 131.984 87.165C131.862 87.0115 131.738 86.8581 131.614 86.7076C131.49 86.5571 131.363 86.4066 131.233 86.2561C131.106 86.1056 130.976 85.9551 130.843 85.8075C130.523 85.4475 130.174 85.0314 129.808 84.5652C127.573 81.7381 124.431 76.99 121.886 72.5193C121.439 71.7373 121.014 70.9671 120.618 70.2146C120.428 69.8605 120.245 69.5094 120.071 69.1671C119.953 68.9369 119.837 68.7097 119.728 68.4854C119.672 68.3732 119.618 68.2641 119.562 68.1519C119.412 67.8391 119.264 67.5322 119.125 67.2342C119.11 67.2017 119.098 67.1722 119.083 67.1456C119.042 67.0512 119.001 66.9597 118.959 66.8712C118.912 66.7679 118.868 66.6646 118.823 66.5643C118.738 66.3695 118.655 66.1807 118.575 65.9948C118.451 65.6967 118.336 65.4075 118.232 65.1331C117.815 64.0294 117.416 62.8874 117.035 61.7218C116.979 61.5536 116.926 61.3883 116.872 61.2201C116.801 61.0047 116.733 60.7863 116.665 60.568C116.586 60.3142 116.506 60.0604 116.429 59.8066C116.42 59.7771 116.411 59.7446 116.399 59.7122C116.317 59.4407 116.237 59.1692 116.154 58.8948C116.065 58.5908 115.977 58.2869 115.888 57.9859C115.799 57.6731 115.711 57.3632 115.622 57.0534C115.542 56.7612 115.462 56.472 115.383 56.1828C115.383 56.1769 115.38 56.174 115.38 56.1681C115.244 55.6723 115.111 55.1795 114.983 54.6926C114.413 52.5089 113.916 50.4167 113.505 48.5664C113.452 48.3303 113.399 48.0972 113.349 47.87C113.319 47.7313 113.293 47.5985 113.263 47.4657C113.21 47.2267 113.16 46.9965 113.112 46.7693C113.083 46.6217 113.05 46.4771 113.021 46.3355C112.982 46.1466 112.944 45.9637 112.905 45.7836C112.897 45.7335 112.885 45.6804 112.873 45.6302C112.852 45.5151 112.829 45.403 112.805 45.2938C112.737 44.9633 112.675 44.6505 112.616 44.3583C112.598 44.261 112.577 44.1636 112.56 44.0721C112.509 43.8124 112.462 43.5704 112.418 43.3462C112.403 43.2694 112.391 43.1957 112.376 43.1278C112.329 42.877 112.288 42.6527 112.249 42.455C112.237 42.3959 112.228 42.3369 112.217 42.2838C112.199 42.1776 112.181 42.0802 112.163 41.9917C112.155 41.9356 112.146 41.8854 112.137 41.8382L112.107 41.6818L112.087 41.5608C112.084 41.5461 112.081 41.5372 112.081 41.5313L112.107 41.2185C112.119 41.068 112.134 40.9146 112.146 40.7552C112.172 40.4247 112.202 40.0735 112.228 39.7076C112.243 39.5335 112.258 39.3535 112.273 39.1706C112.314 38.6394 112.356 38.0787 112.394 37.4944C112.412 37.2613 112.426 37.0223 112.441 36.7832C112.48 36.1812 112.518 35.5586 112.551 34.9212C112.571 34.5464 112.589 34.1657 112.604 33.7821V33.7526C112.905 26.6791 112.619 18.2955 109.592 14.6687C109.459 14.5064 109.32 14.3559 109.172 14.2143C109.128 14.1671 109.077 14.1199 109.027 14.0756H109.024C108.927 13.9841 108.826 13.8985 108.723 13.8189H108.72C108.616 13.7362 108.51 13.6595 108.4 13.5887C108.347 13.5533 108.291 13.5179 108.235 13.4854C108.14 13.4293 108.046 13.3792 107.948 13.329C107.939 13.3231 107.927 13.3201 107.919 13.3142C107.821 13.267 107.723 13.2228 107.623 13.1814C105.365 12.2489 102.338 13.025 99.2397 14.5389C99.148 14.5832 99.0534 14.6304 98.9618 14.6776C95.6363 16.3213 91.755 19.0332 87.4895 22.7308C87.4156 22.7898 87.3417 22.8547 87.2678 22.9226C87.2057 22.9727 87.1466 23.0258 87.0845 23.079L86.6618 23.4508L85.775 24.2269L84.2792 23.3386C84.2792 23.3386 84.2585 23.3268 84.2467 23.3209C83.8654 23.0937 83.4663 22.8783 83.0525 22.6747C82.7835 22.536 82.5056 22.4061 82.2248 22.2852C82.0859 22.2202 81.944 22.1583 81.8021 22.1022C81.5213 21.9783 81.2345 21.8661 80.9419 21.7599C80.8 21.7009 80.6551 21.6477 80.5073 21.6005C80.2177 21.4943 79.925 21.3969 79.6264 21.3084C79.189 21.1667 78.7455 21.0428 78.2933 20.9307C78.1987 20.9041 78.1041 20.8776 78.0065 20.8569C77.8528 20.8215 77.7021 20.7831 77.5484 20.7507C77.2468 20.6798 76.9394 20.6179 76.632 20.5618C76.4458 20.5264 76.2595 20.491 76.0763 20.4615C76.0615 20.4585 76.0497 20.4585 76.0349 20.4556C75.5678 20.3759 75.1037 20.3139 74.6485 20.2667C74.282 20.2254 73.9213 20.1929 73.5666 20.1693H73.5075L71.7575 20.0247L71.7486 18.5699V18.4991C71.8196 14.4297 71.2018 6.89886 67.1579 5.15189C67.1077 5.12828 67.0574 5.10762 67.0072 5.08992C66.8446 5.025 66.6761 4.96893 66.5017 4.92466C66.4248 4.90401 66.348 4.8863 66.2682 4.87155C66.0849 4.83318 65.8839 4.80958 65.6622 4.79777C65.5233 4.78892 65.3843 4.78892 65.2395 4.79482C62.922 4.86564 59.9984 6.47097 57.1075 8.60156C56.7764 8.84649 56.4335 9.10617 56.0817 9.38061C55.9369 9.49275 55.7891 9.60784 55.6442 9.72587C55.4816 9.85277 55.3191 9.98261 55.1565 10.1184C54.7988 10.4075 54.4352 10.7115 54.0598 11.0331L53.6785 11.3607C53.4804 11.5319 53.2824 11.706 53.0873 11.8801C52.9838 11.9686 52.8833 12.0601 52.7828 12.1516C51.9699 12.8775 51.1895 13.6093 50.4594 14.3146C50.35 14.4209 50.2406 14.5271 50.1312 14.6333C50.0898 14.6717 50.0485 14.713 50.01 14.7514C49.812 14.9432 49.6198 15.132 49.4336 15.3209C47.5063 17.2361 46.0637 18.8325 45.5228 19.467C44.7808 20.3375 44.0625 21.1992 43.3679 22.052C41.4198 24.4364 39.3329 27.1483 37.3435 30.0698C36.7848 30.8902 36.2497 31.6987 35.7413 32.4984C29.575 42.1717 27.0447 50.455 28.0527 57.5845C28.1 57.9239 28.1561 58.2574 28.2182 58.5908C28.2596 58.8003 28.301 59.0069 28.3512 59.2076C28.3719 59.3079 28.3956 59.4053 28.4222 59.5027C28.4724 59.7151 28.5316 59.9187 28.5907 60.1224C28.6823 60.4293 28.7828 60.7244 28.8892 61.0077C28.9424 61.1552 28.9986 61.2968 29.0577 61.4385C29.0636 61.4503 29.0666 61.465 29.0725 61.4769C29.1257 61.6037 29.1789 61.7277 29.2381 61.8487C29.2972 61.9844 29.3592 62.1143 29.4243 62.2441C29.5928 62.5894 29.7731 62.914 29.9623 63.2238C29.9948 63.2799 30.0273 63.3301 30.0628 63.3832C30.1249 63.4865 30.1899 63.5868 30.2549 63.6842C30.3288 63.7963 30.4027 63.9055 30.4796 64.0117C30.5535 64.1209 30.6303 64.2242 30.7072 64.3275C31.5053 65.4016 32.3833 66.284 33.2139 67.122C33.5509 67.4585 33.8761 67.789 34.1776 68.1077L34.2751 68.2139C34.4939 68.45 34.7037 68.6861 34.9018 68.928C34.9018 68.928 34.9225 68.931 34.9609 68.9398L35.7827 69.8163L34.1066 71.457C34.0652 71.4983 34.0209 71.5396 33.9795 71.5839C33.9027 71.6577 33.8288 71.7314 33.7549 71.8082C33.3203 72.2479 32.9065 72.6964 32.5163 73.1479C32.4187 73.26 32.3212 73.3722 32.2295 73.4873C32.1941 73.5256 32.1645 73.564 32.132 73.6023C32.0226 73.7351 31.9133 73.8679 31.8098 74.0037C31.7093 74.1276 31.6117 74.2516 31.5171 74.3755C30.9791 75.0778 30.4855 75.7949 30.0332 76.5238C29.9357 76.6743 29.844 76.8248 29.7524 76.9753C29.6696 77.1169 29.5869 77.2556 29.507 77.3973C29.3829 77.6157 29.2587 77.834 29.1405 78.0553C29.0725 78.1822 29.0045 78.3091 28.9395 78.436C28.9011 78.5098 28.8626 78.5865 28.8242 78.6632C28.7296 78.8433 28.6409 79.0233 28.5552 79.2062C28.4843 79.3479 28.4163 79.4925 28.3512 79.6371C28.3069 79.7285 28.2655 79.823 28.2241 79.9144C28.0763 80.242 27.9344 80.5696 27.8014 80.9001C27.7216 81.0889 27.6477 81.2778 27.5768 81.4667C27.429 81.8473 27.29 82.225 27.1629 82.6057C27.0388 82.9657 26.9205 83.3258 26.8112 83.6828C26.8052 83.7035 26.7993 83.7241 26.7934 83.7448C26.7343 83.9366 26.6811 84.1255 26.6279 84.3143C26.5717 84.5032 26.5215 84.6921 26.4712 84.8809C26.421 85.0639 26.3737 85.2439 26.3293 85.4268C26.2318 85.8105 26.1431 86.1941 26.0603 86.5777C26.0189 86.7636 25.9805 86.9525 25.9421 87.1413C25.9037 87.3273 25.8652 87.5161 25.8327 87.702C25.7972 87.8879 25.7618 88.0768 25.7322 88.2598C25.6672 88.6316 25.6081 88.9975 25.5548 89.3634C25.5282 89.5375 25.5016 89.7087 25.4809 89.8798C25.4543 90.0716 25.4277 90.2635 25.407 90.4523C25.3834 90.6323 25.3597 90.8123 25.342 90.9924C25.3213 91.1694 25.3006 91.3465 25.2829 91.5235C25.2474 91.8806 25.2149 92.2318 25.1853 92.58C25.1558 92.9282 25.1321 93.2705 25.1085 93.6098C25.0967 93.7751 25.0878 93.9404 25.0789 94.1027C25.0641 94.3151 25.0553 94.5247 25.0435 94.7342C25.0287 95.0234 25.0168 95.3126 25.008 95.5929C24.9991 95.7729 24.9932 95.9529 24.9873 96.13C24.9755 96.5225 24.9666 96.909 24.9577 97.2838C24.9518 97.5346 24.9489 97.7796 24.9459 98.0215C24.9429 98.2635 24.94 98.5025 24.937 98.7357C24.9341 98.9688 24.9311 99.199 24.9282 99.4232C24.9282 99.5442 24.9252 99.6652 24.9252 99.7833C24.9223 100.022 24.9193 100.255 24.9163 100.486C24.9134 100.601 24.9134 100.716 24.9104 100.828C24.9075 100.94 24.9075 101.049 24.9045 101.158C24.8986 101.486 24.8897 101.802 24.8779 102.097C24.8631 102.424 24.8484 102.808 24.8365 103.245C24.8277 103.454 24.8217 103.676 24.8188 103.912C24.8188 104.024 24.8129 104.139 24.8129 104.257C24.8011 104.865 24.8011 105.546 24.8158 106.287C24.8158 106.382 24.8158 106.479 24.8217 106.576C24.8217 106.768 24.8306 106.966 24.8395 107.167C24.8543 107.612 24.875 108.073 24.9045 108.554C25.2001 113.606 26.285 120.228 29.6253 127.221C29.983 127.971 30.3643 128.723 30.7752 129.476C30.9023 129.709 31.0294 129.939 31.1595 130.166C31.2866 130.394 31.4166 130.621 31.5497 130.845C31.8009 131.276 32.0581 131.698 32.3212 132.111C32.333 132.129 32.3448 132.146 32.3567 132.164C32.4897 132.38 32.6286 132.595 32.7675 132.805C32.9065 133.017 33.0484 133.226 33.1873 133.433C37.9642 140.483 43.9265 145.193 49.0878 148.35C50.7727 149.383 52.3571 150.245 53.7642 150.953C53.9859 151.065 54.2017 151.174 54.4145 151.278C55.7359 151.93 56.8769 152.443 57.7666 152.842C58.0416 152.965 58.3194 153.086 58.5973 153.207C58.7894 153.293 58.9816 153.376 59.1767 153.455C59.561 153.618 59.9452 153.777 60.3354 153.933C63.055 155.028 65.8868 155.97 68.7867 156.754C68.6448 157.241 68.5384 157.743 68.4615 158.254C68.296 159.387 68.296 160.517 68.4615 161.618C64.06 160.482 59.7945 159.003 55.7979 157.206C50.2258 154.704 35.425 148.055 26.5599 131.76C19.4004 118.599 19.9147 106.03 20.0862 101.899C20.1128 101.185 20.1246 100.306 20.1335 99.3731C20.2074 92.3852 20.3404 79.7167 29.0991 69.7749C27.0092 67.6237 24.4936 64.658 23.5063 59.485C21.2479 47.6516 27.2516 33.546 41.8662 16.3685C42.8476 15.2147 46.6283 11.0804 50.9412 7.39462C57.7134 1.60778 62.8835 -0.688061 67.2052 0.17657C72.7478 1.28023 75.9994 6.75721 76.4783 15.6809C79.5466 16.1501 82.5795 17.0944 85.1867 18.3869C96.3132 8.95863 104.886 5.92504 110.685 9.37176C117.644 13.5061 118.22 25.1181 116.908 41.2952C117.428 44.1193 119.556 55.0939 122.713 63.4422C124.632 68.506 131.23 79.0351 134.425 82.6264C143.955 93.3295 145.182 107.53 145.268 113.139C145.312 116.049 145.07 118.991 144.544 121.904Z" fill="#524A44"/>
<path d="M24.9016 108.554C25.2002 113.458 26.2703 120.186 29.6224 127.221C26.2821 120.228 25.1972 113.606 24.9016 108.554Z" fill="#524A44"/>
<path d="M34.8988 68.929C34.7007 68.687 34.4908 68.4509 34.2721 68.2148L34.9579 68.9408C34.9195 68.9319 34.8988 68.929 34.8988 68.929Z" fill="#524A44"/>
<path d="M43.3648 22.0527C41.1094 24.8237 39.1022 27.4943 37.3405 30.0705C39.3299 27.149 41.4168 24.4371 43.3648 22.0527Z" fill="#524A44"/>
<path d="M49.0848 148.351C43.9236 145.193 37.9613 140.483 33.1843 133.434C37.979 140.492 43.9886 145.223 49.0848 148.351Z" fill="#524A44"/>
<path d="M64.9055 4.81934C63.3566 4.96983 61.0923 5.79315 57.8347 8.08015C60.3473 6.31252 62.8452 5.00525 64.9055 4.81934Z" fill="#524A44"/>
<path d="M57.8317 8.08008C57.8317 8.08008 57.8199 8.08893 57.814 8.09188C57.8199 8.08893 57.8258 8.08303 57.8317 8.08008Z" fill="#524A44"/>
<path d="M57.1045 8.60231C57.341 8.42821 57.5775 8.26 57.8139 8.0918C57.5834 8.2541 57.3469 8.42526 57.1045 8.60231Z" fill="#524A44"/>
<path d="M65.2366 4.79492C65.1272 4.79787 65.0149 4.80968 64.9026 4.81853C65.0179 4.80673 65.1302 4.79787 65.2366 4.79492Z" fill="#524A44"/>
<path d="M67.155 5.15234C71.1989 6.89931 71.8167 14.4302 71.7457 18.4995V17.8267C71.731 15.2151 71.3467 6.99374 67.155 5.15234Z" fill="#524A44"/>
<path d="M74.6456 20.2673C74.2791 20.226 73.9184 20.1935 73.5637 20.1699L73.951 20.2024C74.1815 20.2201 74.4151 20.2437 74.6456 20.2673Z" fill="#524A44"/>
<path d="M76.0319 20.4564C75.5707 20.3797 75.1066 20.3177 74.6455 20.2676C75.1007 20.3148 75.5648 20.3768 76.0319 20.4564Z" fill="#524A44"/>
<path d="M99.2368 14.5389C102.335 13.0251 105.362 12.249 107.62 13.1815C105.604 12.367 102.737 12.851 99.2368 14.5389Z" fill="#524A44"/>
<path d="M109.589 14.6689C112.616 18.2957 112.902 26.6793 112.601 33.7528C112.891 26.7708 112.616 18.3134 109.589 14.6689Z" fill="#524A44"/>
<path d="M129.805 84.5654C127.508 81.6764 124.392 76.946 121.883 72.5195C124.428 76.9902 127.57 81.7383 129.805 84.5654Z" fill="#524A44"/>
<path d="M130.825 145.146C131.466 145.762 131.688 146.65 131.484 147.456C131.386 147.849 131.188 148.217 130.887 148.53C121.626 158.127 108.53 163.571 93.0173 164.271C91.8999 164.321 90.7589 164.347 89.6238 164.347C84.3413 164.347 78.9614 163.819 73.7026 162.804C72.9015 162.651 72.1034 162.485 71.3082 162.305C70.3534 162.093 69.4016 161.866 68.4586 161.618C68.2931 160.517 68.2931 159.387 68.4586 158.254C68.5355 157.743 68.6419 157.241 68.7838 156.755C69.4755 156.943 70.1702 157.121 70.8678 157.289C71.7043 157.495 72.5468 157.684 73.3922 157.858C76.9424 158.599 80.5606 159.107 84.1699 159.36C84.4389 159.381 84.7049 159.399 84.9739 159.413C85.2429 159.431 85.5149 159.446 85.7868 159.458C86.0085 159.472 86.2332 159.481 86.4579 159.49C86.7771 159.505 87.0993 159.517 87.4186 159.526C87.7822 159.537 88.1428 159.543 88.5064 159.549C88.8463 159.555 89.1833 159.558 89.5233 159.558H89.6711C89.9223 159.558 90.1706 159.555 90.4219 159.552C90.614 159.552 90.8062 159.549 90.9983 159.543C91.1579 159.543 91.3146 159.537 91.4742 159.531C91.7255 159.531 91.9738 159.52 92.2221 159.508C92.4172 159.505 92.6093 159.496 92.8015 159.487C93.239 159.467 93.6765 159.443 94.111 159.413C94.1169 159.416 94.1258 159.413 94.1317 159.413C94.5574 159.387 94.9801 159.354 95.3998 159.319C95.6393 159.301 95.8787 159.278 96.1211 159.254C96.5231 159.219 96.9281 159.177 97.3272 159.13C98.013 159.053 98.6928 158.965 99.3668 158.865C99.757 158.808 100.141 158.746 100.526 158.685C100.54 158.682 100.558 158.679 100.576 158.676C100.984 158.608 101.392 158.534 101.797 158.46C101.803 158.46 101.811 158.454 101.82 158.454C102.438 158.336 103.05 158.209 103.659 158.077C103.86 158.029 104.064 157.985 104.265 157.938C104.283 157.932 104.3 157.929 104.321 157.926C108.587 156.92 112.563 155.459 116.198 153.559C118.714 152.251 121.067 150.729 123.243 149.008C123.834 148.539 124.413 148.055 124.981 147.553C124.987 147.553 124.993 147.545 124.999 147.539C125.273 147.294 125.548 147.046 125.817 146.795C126.077 146.553 126.332 146.311 126.583 146.063C126.639 146.007 126.695 145.954 126.751 145.898C126.982 145.671 127.21 145.441 127.434 145.207C128.351 144.257 129.87 144.228 130.825 145.146Z" fill="#524A44"/>
<path d="M138.558 100.288C138.691 100.743 138.812 101.194 138.924 101.64C138.809 101.194 138.688 100.743 138.558 100.288Z" fill="#524A44"/>
<path d="M138.924 101.64C139.988 105.786 140.317 109.407 140.42 111.587C140.293 109.076 139.92 105.541 138.924 101.64Z" fill="#524A44"/>
<path d="M139.9 120.624C140.08 119.558 140.219 118.49 140.317 117.419C140.222 118.514 140.083 119.582 139.903 120.627C139.811 121.184 139.708 121.733 139.592 122.276C139.601 122.205 139.613 122.135 139.628 122.061C139.725 121.583 139.817 121.105 139.9 120.624Z" fill="#524A44"/>
<path d="M28.5621 42.3897C28.5307 41.4119 28.6691 40.4452 29 39.5L28.5621 42.3897C28.8633 51.7576 44.758 62.1516 56.4998 64.5C68.9998 67 86.8333 63.3333 88.5 62.5L115.5 101.5C115.5 101.5 120.5 114 116.5 131.5C112.5 149 98.9998 154 98.9998 154L23.9998 72.5L28.5621 42.3897Z" fill="#804602" fill-opacity="0.12"/>
<path d="M31.2895 47.1627C28.0201 47.1627 21.1148 46.2921 15.9211 42.8956C15.1466 42.391 14.9308 41.3522 15.4393 40.582C15.9477 39.8089 16.9853 39.5935 17.7568 40.101C22.4717 43.1848 28.8715 43.8842 31.594 43.8163C32.5133 43.7897 33.2848 44.5275 33.3055 45.4482C33.3262 46.3718 32.5931 47.1361 31.6708 47.1568C31.5496 47.1568 31.4225 47.1597 31.2895 47.1597V47.1627Z" fill="#524A44"/>
<path d="M37.033 43.0077C36.8763 43.0077 36.7167 42.9841 36.5571 42.9398C33.0453 41.904 25.2917 38.5606 21.0971 33.3345C20.5177 32.6144 20.6359 31.5609 21.3572 30.9855C22.0785 30.4071 23.1338 30.5251 23.7102 31.2452C27.3846 35.8251 34.343 38.8026 37.506 39.7351C38.3928 39.9977 38.8983 40.9273 38.6381 41.8126C38.4223 42.5385 37.7543 43.0107 37.033 43.0107V43.0077Z" fill="#524A44"/>
<path d="M117.502 64.1387C111.948 64.1387 106.514 62.1556 104.15 60.9428C103.328 60.5208 103.003 59.5115 103.425 58.6912C103.848 57.8708 104.856 57.5462 105.681 57.9682C108.105 59.2135 114.165 61.3766 119.754 60.6565C120.668 60.5414 121.51 61.1847 121.628 62.1025C121.747 63.0173 121.099 63.8554 120.18 63.9734C119.293 64.0885 118.395 64.1387 117.499 64.1387H117.502Z" fill="#524A44"/>
<path d="M111.93 53.6894C108.764 53.6894 105.929 53.3176 104.209 52.9488C103.304 52.754 102.731 51.8658 102.926 50.9628C103.121 50.0598 104.014 49.4873 104.915 49.682C108.14 50.3755 115.675 51.0926 121.099 48.8292C121.954 48.4721 122.935 48.8764 123.29 49.7263C123.648 50.5791 123.243 51.5589 122.391 51.913C119.175 53.2557 115.356 53.6894 111.93 53.6894Z" fill="#524A44"/>
<path d="M114.998 67.3139C109.855 61.5861 102.784 58.2013 95.0894 57.7793C86.2065 57.3013 77.6311 60.9221 71.8048 67.5647L71.0687 68.4057C70.8796 68.6212 70.7761 68.9015 70.7761 69.1877L70.782 70.3062C70.782 70.5717 70.7968 70.8432 70.8263 71.1177C66.2297 70.2944 61.3552 69.8429 56.3152 69.7691C55.8511 69.7543 55.3929 69.7484 54.9466 69.7484H54.6983H54.2933C54.2519 69.7484 54.2017 69.7484 54.1573 69.7573C52.5906 69.7838 51.0151 69.8901 49.4572 70.076C49.2621 69.2586 48.8867 68.5208 48.334 67.8687C48.0886 67.5736 47.8078 67.308 47.5033 67.0719L44.7187 64.6226C44.6212 64.537 44.5089 64.4692 44.3936 64.419C39.5989 60.7362 33.6396 58.7089 27.5738 58.7089C23.3585 58.7089 19.3088 59.6355 15.5398 61.4621C14.3042 62.0582 13.1041 62.7576 11.966 63.5396C11.895 63.5721 11.83 63.6134 11.765 63.6606L10.4702 64.6315C10.4318 64.661 10.3934 64.6934 10.3579 64.7318C10.287 64.7879 10.216 64.8469 10.1451 64.903C10.0653 64.9472 9.98841 65.0003 9.92042 65.0623L9.07795 65.8207C7.78321 66.9863 6.58011 68.2995 5.50707 69.7219C1.90368 74.5083 0 80.2184 0 86.2354C0 90.4435 0.928192 94.4863 2.76093 98.2576L2.81118 98.358C3.41421 99.5856 4.1207 100.781 4.90404 101.911L5.30902 102.596C5.50116 102.988 5.7406 103.354 6.02438 103.687C6.64514 104.413 7.69453 105.254 9.35286 105.541C8.2414 109.713 7.67975 114.042 7.67975 118.439C7.67975 131.332 12.5247 143.481 21.3188 152.653C30.1455 161.857 41.9076 166.997 54.4293 167.121C54.6007 167.124 54.7751 167.124 54.9466 167.124C55.0441 167.124 55.1417 167.124 55.2304 167.121H55.3486C55.3486 167.121 55.3604 167.121 55.3634 167.121H55.4787C55.7506 167.118 56.0255 167.115 56.2797 167.106C77.2587 166.808 88.8847 160.012 91.1727 158.531L91.3737 158.434C91.4387 158.401 91.5008 158.366 91.5599 158.324C91.6161 158.292 91.6693 158.254 91.7166 158.209C98.0011 154.574 103.316 149.061 107.094 142.265C111.049 135.145 113.142 126.906 113.142 118.439C113.142 115.063 112.811 111.711 112.157 108.459C112.332 108.347 112.492 108.229 112.648 108.093L112.687 108.058C118.477 102.923 121.898 95.8379 122.32 88.1122C122.74 80.4279 120.139 73.0417 114.992 67.3109L114.998 67.3139Z" fill="#524A44"/>
<path d="M33.6811 86.8965L32.5224 85.5509C35.5316 82.7858 38.1832 80.0149 40.1844 77.5243C42.7206 74.3726 43.507 72.5489 43.6695 71.7905C41.3461 71.8702 35.4252 74.9186 28.2184 80.5549C27.1631 81.3782 26.0841 82.2576 24.9815 83.1901C23.811 84.1816 22.6758 85.1879 21.588 86.1942C18.6763 88.8855 16.1105 91.5797 14.1595 94.0054C11.6203 97.157 10.834 98.9807 10.6744 99.7391C12.9712 99.6594 18.7798 96.6819 25.8743 91.1724L27.0301 92.5151C18.434 99.202 10.8074 102.923 9.17864 101.011C9.03084 100.837 8.93624 100.621 8.89486 100.368C8.47215 97.8446 13.1752 91.5472 20.4293 84.8515C21.5112 83.8511 22.6492 82.8448 23.8346 81.8386C24.9195 80.9208 25.9984 80.0414 27.0626 79.2093C34.9995 72.9975 42.1531 69.2793 44.5948 70.141C44.8283 70.2236 45.0204 70.3475 45.1623 70.5187C46.8029 72.4486 41.7954 79.4483 33.6811 86.8965Z" fill="#F47A0A"/>
<path d="M21.5881 86.1934L25.8743 91.1716C18.7799 96.6811 12.9713 99.6586 10.6744 99.7383C10.8341 98.9799 11.6204 97.1562 14.1596 94.0045C16.1106 91.5789 18.6764 88.8846 21.5881 86.1934Z" fill="#912A2A"/>
<path d="M43.6696 71.79C43.5071 72.5484 42.7208 74.3721 40.1845 77.5238C38.1833 80.0144 35.5317 82.7853 32.5225 85.5504L28.2185 80.5544C35.4253 74.9181 41.3462 71.8697 43.6696 71.79Z" fill="#912A2A"/>
<path d="M38.2956 92.2523L31.6889 97.924L29.6137 95.5131L29.4482 95.3183L27.7958 93.4032L27.0302 92.5149L25.8744 91.1722L21.5881 86.194C22.676 85.1877 23.8111 84.1814 24.9817 83.1899C26.0842 82.2574 27.1632 81.378 28.2185 80.5547L32.5225 85.5507L33.6812 86.8963L34.4025 87.7314L36.0667 89.6613L36.2116 89.8325L38.2956 92.2523Z" fill="#F47A0A"/>
<path d="M44.5948 70.1405C41.825 69.1638 32.9924 74.0771 23.8347 81.8381C14.6917 89.5844 8.41013 97.4664 8.89492 100.367C5.90933 96.4424 4.13867 91.5438 4.13867 86.2351C4.13867 80.9263 5.87681 76.1074 8.8151 72.2003C9.71965 71.0022 10.7336 69.8897 11.848 68.8864H11.8509C12.3682 68.4142 12.9033 67.9716 13.462 67.5525C13.4649 67.5525 13.4679 67.5466 13.4679 67.5466C14.6739 66.6377 15.9746 65.841 17.3462 65.177C20.4382 63.6779 23.9115 62.8369 27.574 62.8369C34.2753 62.8369 40.3263 65.6403 44.5948 70.1405Z" fill="#FF9636"/>
<path d="M54.5117 162.993C54.5649 162.993 54.6181 162.993 54.6683 162.993C54.5442 162.993 54.423 162.993 54.2988 162.993C54.3698 162.993 54.4407 162.993 54.5117 162.99V162.993Z" fill="#F47A0A"/>
<path d="M54.6709 162.993C54.8808 162.993 55.0877 162.993 55.2976 162.99C55.1794 162.99 55.0641 162.996 54.9458 162.996C54.8542 162.996 54.7626 162.996 54.668 162.996L54.6709 162.993Z" fill="#F47A0A"/>
<path d="M54.9468 73.877C55.068 73.877 55.1892 73.8799 55.3104 73.8829C55.0946 73.8829 54.8818 73.8799 54.666 73.8799C54.7606 73.8799 54.8522 73.8799 54.9468 73.8799V73.877Z" fill="#F47A0A"/>
<path d="M54.2988 73.877C54.423 73.877 54.5412 73.877 54.6654 73.877C54.6151 73.877 54.5619 73.877 54.5117 73.877C54.4407 73.874 54.3698 73.874 54.2988 73.874V73.877Z" fill="#F47A0A"/>
<path d="M109.004 118.439C109.004 134.513 100.887 148.397 89.1335 154.925C89.1335 154.925 89.1305 154.928 89.1246 154.931C89.1217 154.934 89.1187 154.934 89.1157 154.937C88.6073 155.291 77.3862 162.89 55.2988 162.99C61.7577 162.937 67.8856 161.417 73.372 158.738C87.9747 151.596 98.0755 136.234 98.0755 118.439C98.0755 100.645 87.9777 85.2794 73.3779 78.141C67.8915 75.4557 61.7725 73.9389 55.3107 73.8828C77.5606 73.989 88.7788 81.6999 89.1246 81.9419C89.1305 81.9448 89.1335 81.9478 89.1335 81.9478C100.887 88.4783 109.004 102.363 109.004 118.439Z" fill="#F47A0A"/>
<path d="M118.193 87.8879C117.818 94.7224 114.693 100.757 109.943 104.971C109.943 104.971 109.934 104.98 109.91 104.992C109.396 105.296 98.7071 98.5616 89.4606 88.9473C83.7318 82.9923 74.9377 74.9922 74.9199 70.2884C79.7501 64.7819 86.9775 61.4768 94.8672 61.9077C108.494 62.6513 118.944 74.2811 118.199 87.8909L118.193 87.8879Z" fill="#FF9636"/>
<path d="M98.0751 118.439C98.0751 136.234 87.9744 151.596 73.3717 158.738C67.7848 161.467 61.5357 162.996 54.9468 162.996C54.8019 162.996 54.6571 162.996 54.5122 162.993C30.8936 162.754 11.8184 142.894 11.8184 118.439C11.8184 93.9848 30.8936 74.1189 54.5122 73.8799C54.6571 73.877 54.8019 73.877 54.9468 73.877C61.5416 73.877 67.7877 75.4055 73.3776 78.1411C87.9774 85.2795 98.0751 100.642 98.0751 118.439Z" fill="#FF9636"/>
<path d="M88.9741 120.304C88.0843 140.648 72.645 156.84 53.7294 156.84C34.8138 156.84 18.4434 139.648 18.4434 118.433C18.4434 97.2186 34.2404 80.0293 53.7294 80.0293C73.2185 80.0293 88.0814 96.2212 88.9741 116.562C88.0784 98.1806 74.0994 83.5763 56.9899 83.5763C39.8804 83.5763 24.9643 99.184 24.9643 118.43C24.9643 137.676 39.3011 153.287 56.9899 153.287C74.6788 153.287 88.0784 138.68 88.9741 120.298V120.304Z" fill="#F47A0A"/>
<path d="M88.973 118.437C88.973 118.767 88.97 119.095 88.9612 119.422V119.428C88.9552 119.723 88.9405 120.016 88.9286 120.305C88.0034 138.686 73.5484 153.294 55.8537 153.294C38.1589 153.294 22.7344 137.686 22.7344 118.437C22.7344 99.1877 37.5618 83.583 55.8537 83.583C74.1455 83.583 88.0063 98.1873 88.9286 116.569C88.9405 116.861 88.9552 117.153 88.9612 117.445V117.451C88.97 117.779 88.973 118.106 88.973 118.437Z" fill="#F7F8FD"/>
<path d="M66.4957 114.807H58.7834V107.24C58.7834 104.703 56.8295 102.516 54.2873 102.398C51.5736 102.271 49.3359 104.428 49.3359 107.108V119.136C49.3359 121.954 51.6239 124.238 54.4469 124.238H66.4957C69.1029 124.238 71.2194 122.128 71.2194 119.522C71.2194 116.92 69.1058 114.807 66.4957 114.807Z" fill="#4B3A33"/>
<path d="M146.432 152.747C143.37 157.38 136.606 163.5 121.77 166.372C115.932 167.499 109.603 168.133 102.925 168.254C102.124 168.269 101.317 168.278 100.504 168.278C93.5164 168.278 86.2386 167.729 78.8722 166.646C77.0779 166.381 75.4905 165.436 74.4086 163.979C74.1307 163.607 73.8943 163.214 73.7021 162.804C73.1405 161.609 72.9424 160.278 73.1375 158.941C73.1937 158.569 73.2765 158.209 73.3917 157.858C73.3917 157.852 73.3917 157.849 73.3947 157.844C73.8233 156.507 74.6569 155.338 75.8098 154.482C77.2671 153.402 79.0614 152.951 80.8557 153.216C87.1609 154.143 93.407 154.633 99.3841 154.686C105.323 154.739 110.995 154.364 116.198 153.559C116.21 153.559 116.225 153.559 116.236 153.553C117.989 153.284 119.686 152.966 121.324 152.597C125.229 151.72 128.628 149.997 131.484 147.456C132.855 146.234 134.1 144.824 135.217 143.227C135.273 143.145 135.318 143.08 135.353 143.033C136.133 141.988 135.918 140.51 134.868 139.731C133.822 138.951 132.341 139.167 131.56 140.214C131.504 140.288 131.43 140.394 131.336 140.527C130.966 141.058 130.576 141.563 130.168 142.041C130.162 142.053 130.153 142.062 130.144 142.071C128.433 144.083 126.405 145.632 124.088 146.707C124.076 143.891 118.894 140.144 119.21 139.795C119.21 139.795 125.468 135.363 128.35 129.836C131.235 124.306 134.247 116.424 134.247 116.424C135.696 117.176 137.712 118.693 139.899 120.623H139.902C139.811 121.184 139.707 121.733 139.592 122.276C139.453 123.494 140.263 124.636 141.49 124.89C141.635 124.92 141.779 124.937 141.921 124.94C142.01 125.224 142.155 125.498 142.356 125.74C142.412 125.808 148.025 132.657 148.889 137.942C149.84 143.759 148.992 148.878 146.432 152.747Z" fill="#FBD28F"/>
<path d="M102.925 168.255C102.124 168.27 101.317 168.279 100.504 168.279C93.5164 168.279 86.2386 167.73 78.8722 166.647C77.0779 166.381 75.4905 165.437 74.4086 163.979C74.1307 163.607 73.8943 163.215 73.7021 162.805C73.1405 161.609 72.9424 160.279 73.1375 158.942C73.1937 158.57 73.2765 158.21 73.3917 157.859C73.3917 157.853 73.3917 157.85 73.3947 157.844C73.8233 156.507 74.6569 155.339 75.8098 154.483C77.2671 153.403 79.0614 152.951 80.8557 153.217C87.1609 154.144 93.407 154.633 99.3841 154.686C103.416 157.679 104.229 164.431 102.925 168.255Z" fill="white"/>
<path d="M150.378 155.35C146.816 160.736 139.119 167.824 122.672 171.005C115.834 172.33 108.376 173 100.504 173C93.2858 173 85.7775 172.434 78.1835 171.318C75.1388 170.87 72.4488 169.264 70.6131 166.797C69.4602 165.248 68.7301 163.477 68.4581 161.618C68.2926 160.518 68.2926 159.387 68.4581 158.254C68.535 157.744 68.6414 157.242 68.7833 156.755C68.7833 156.749 68.7833 156.743 68.7833 156.74C69.475 154.326 70.9323 152.217 72.9838 150.694C75.455 148.861 78.4938 148.097 81.5415 148.546C95.6772 150.623 109.435 150.428 120.283 147.991C121.628 147.69 122.893 147.262 124.085 146.707C126.402 145.633 128.43 144.084 130.142 142.071C130.15 142.062 130.159 142.053 130.165 142.042C130.573 141.564 130.963 141.059 131.333 140.528C131.427 140.395 131.501 140.289 131.557 140.215C132.338 139.167 133.819 138.952 134.865 139.731C135.915 140.51 136.13 141.989 135.35 143.033C135.315 143.08 135.27 143.145 135.214 143.228C134.097 144.824 132.852 146.235 131.481 147.457C128.625 149.997 125.226 151.721 121.321 152.597C119.683 152.966 117.986 153.285 116.233 153.553C116.222 153.559 116.207 153.559 116.195 153.559C110.992 154.365 105.32 154.74 99.3811 154.687C93.404 154.633 87.1579 154.144 80.8527 153.217C79.0584 152.951 77.2641 153.403 75.8068 154.483C74.654 155.339 73.8204 156.507 73.3917 157.844C73.3888 157.85 73.3888 157.853 73.3888 157.859C73.2735 158.21 73.1907 158.57 73.1346 158.942C72.9395 160.279 73.1346 161.609 73.6992 162.805C73.8913 163.215 74.1278 163.607 74.4057 163.979C75.4876 165.437 77.0749 166.381 78.8693 166.647C86.2357 167.73 93.5134 168.279 100.501 168.279C101.314 168.279 102.121 168.27 102.922 168.255C109.6 168.134 115.929 167.5 121.767 166.372C136.603 163.501 143.367 157.381 146.429 152.748C148.989 148.879 149.838 143.759 148.886 137.943C148.023 132.658 142.409 125.808 142.353 125.741C142.152 125.499 142.007 125.224 141.918 124.941C142.595 124.956 143.231 124.684 143.686 124.218C143.996 123.902 144.224 123.495 144.322 123.029C144.398 122.654 144.472 122.279 144.54 121.904C145.09 121.99 145.613 122.27 146.001 122.734C146.264 123.052 152.483 130.63 153.556 137.184C154.7 144.19 153.601 150.473 150.375 155.35H150.378Z" fill="#524A44"/>
</g>
<defs>
<clipPath id="clip0_2449_29536">
<rect width="154" height="173" fill="white"/>
</clipPath>
</defs>
</svg>
