<svg width="86" height="86" viewBox="0 0 86 86" fill="none" xmlns="http://www.w3.org/2000/svg">
<path d="M74 71C74 77.0751 58.7777 82 40 82C21.2223 82 6 77.0751 6 71C6 64.9249 21.2223 60 40 60C58.7777 60 74 64.9249 74 71Z" fill="#EEC49D"/>
<g clip-path="url(#clip0_543_2811)">
<path d="M14.0969 19.9272C10.2266 26.2266 8.32295 34.0269 7.62442 41.4244C7.31606 43.111 6.68675 45.5716 7.35382 47.277C5.98192 43.7717 4.79568 41.758 6.39727 33.879C7.45451 28.6683 10.8496 23.8069 14.0969 19.9272Z" fill="#F47A0A" stroke="#B54718" stroke-width="1.25862" stroke-linecap="round" stroke-linejoin="round"/>
<path d="M7.62103 41.4341C7.58641 41.8148 7.5581 42.1987 7.52978 42.5889C7.51719 42.7399 7.50775 42.8909 7.49831 43.0451C7.48258 43.2843 7.46685 43.5265 7.45426 43.772C7.40391 42.828 7.48258 42.0571 7.62103 41.4341Z" fill="#F47A0A" stroke="#635951" stroke-width="1.25862" stroke-linecap="round" stroke-linejoin="round"/>
<path d="M50.7886 9.58155C48.9887 10.9346 47.2424 12.5078 45.5779 14.273C44.1305 15.8054 42.746 17.4825 41.4339 19.2949C40.1218 21.1042 38.882 23.0488 37.7336 25.1097C37.098 26.2519 36.4875 27.4287 35.9086 28.6402C34.3856 31.8213 33.0672 35.2385 32.0006 38.8444H31.9974C31.6796 39.9142 31.387 40.9966 31.1164 42.0979C30.7514 43.5737 30.4273 45.0746 30.1504 46.6038C30.1472 46.6164 30.1472 46.6321 30.1441 46.6447C28.9547 53.1832 28.5834 60.1874 29.2568 67.4213V67.4591C29.326 68.1954 29.4047 68.9316 29.4959 69.6742C29.4959 69.6837 29.4991 69.6931 29.4991 69.7025C29.5494 70.1336 29.606 70.5678 29.669 71.0021C29.6784 71.0681 29.6847 71.1311 29.6941 71.194C29.7099 71.3167 29.7256 71.43 29.7413 71.5307C29.7476 71.581 29.7539 71.6314 29.7634 71.6786C29.7885 71.8516 29.8169 72.0247 29.842 72.2009C29.842 72.2292 29.8483 72.2513 29.8515 72.2638C29.8546 72.2796 29.8546 72.2859 29.8546 72.2859C27.0982 73.6074 23.5206 71.644 23.1367 69.3187C22.5326 63.9318 22.5515 58.2177 22.9133 52.7427C23.2846 48.1299 23.8101 43.4541 24.7698 38.8853C24.7761 38.8538 24.7824 38.8255 24.7887 38.7972C25.7232 34.3574 27.0699 30.0152 29.0837 25.9404C29.7476 24.5622 30.4776 23.2124 31.2611 21.8971C31.2863 21.8562 31.3083 21.8122 31.3335 21.7713C34.2535 16.8689 37.8374 12.4858 41.135 9.32353C41.2136 9.24802 41.2954 9.1725 41.3773 9.09698C41.7863 8.70366 42.1828 8.33867 42.5824 7.99255C42.6453 7.93276 42.7082 7.87927 42.7806 7.82893C44.8007 6.31544 50.0554 7.42617 50.7886 9.58155Z" fill="#F47A0A" stroke="#B54718" stroke-width="1.25862" stroke-linecap="round" stroke-linejoin="round"/>
<path d="M42.7836 7.83154C29.8104 19.0678 23.7627 35.0932 22.9132 52.7422C22.5513 58.2203 22.5324 63.9313 23.1366 69.3181C20.2827 70.6617 17.5703 67.4397 17.2588 64.9539C15.8492 49.3313 17.2809 32.6232 26.0849 19.2094C28.278 15.7136 30.8204 12.4192 33.709 9.5055C36.0815 6.61068 40.1342 5.6321 42.7836 7.83154Z" fill="#F47A0A" stroke="#B54718" stroke-width="1.25862" stroke-linecap="round" stroke-linejoin="round"/>
<path d="M33.256 6.96352C27.309 8.35115 23.5426 13.8104 20.3143 18.0079C13.6939 27.221 11.183 38.7877 11.5732 49.9956C12.0168 54.9137 11.1138 59.7122 14.5246 64.3407C16.4786 66.6944 17.259 64.9543 17.259 64.9543C15.2106 44.4923 19.0242 23.7818 34.2566 8.96787C34.9929 8.31968 34.9929 8.16235 35.8676 7.64003C35.8676 7.64003 36.8682 6.2524 33.256 6.96352Z" fill="#F47A0A" stroke="#B54718" stroke-width="1.25862" stroke-linecap="round" stroke-linejoin="round"/>
<path d="M27.3119 10.1198C13.3822 22.0829 9.69126 41.4877 12.2337 59.0422C12.2337 59.0422 11.2614 59.6464 9.40493 56.1537C6.54786 49.0866 7.41946 46.9123 7.62398 41.4247C8.32881 34.0052 10.2325 26.1703 14.1405 19.8646H14.1436C14.3041 19.5688 16.7584 14.9812 21.7205 11.6144C25.1691 9.27335 27.3119 10.1198 27.3119 10.1198Z" fill="#F47A0A" stroke="#B54718" stroke-width="1.25862" stroke-linecap="round" stroke-linejoin="round"/>
<path d="M29.8546 72.2862C29.8546 72.2862 29.7759 71.8363 29.6689 71.0024C30.0937 71.2416 30.5311 71.4776 30.9748 71.7104C31.1573 71.808 31.3398 71.9055 31.5254 71.9999C32.2648 72.3838 33.0295 72.7614 33.8161 73.1327C32.8312 73.1358 29.8514 72.2862 29.8514 72.2862H29.8546Z" fill="#F47A0A" stroke="#B54718" stroke-width="1.25862" stroke-linecap="round" stroke-linejoin="round"/>
<path d="M66.0117 63.3305C66.0117 63.3305 65.9739 65.2687 64.6492 66.6878C62.755 68.7111 60.4801 68.1604 60.4801 68.1604H60.4769C60.4549 68.1541 60.3416 68.1195 60.1465 68.0534C59.492 67.8332 57.903 67.2762 55.6438 66.3323C54.0328 65.6621 52.0819 64.7968 49.8888 63.7175C48.1739 62.8711 46.3112 61.8956 44.3477 60.7818C42.3151 59.6301 40.1754 58.3275 37.9791 56.8675C35.9024 55.4861 33.7722 53.9632 31.6388 52.2924C30.9372 51.7418 30.2575 51.1754 29.603 50.5996C29.7478 49.3095 29.9271 47.9879 30.1442 46.6444C30.1474 46.6318 30.1474 46.616 30.1505 46.6034C30.3928 45.0963 30.6854 43.5639 31.0316 42.0063C31.0599 42.0378 31.085 42.0661 31.1165 42.0976C32.1014 43.2083 33.1649 44.3096 34.3008 45.3889C35.2416 46.2856 36.2296 47.1667 37.2774 48.0257C37.8124 48.4662 38.3504 48.8973 38.8916 49.3126C40.1974 50.3321 41.5158 51.2824 42.8248 52.1728C44.9141 53.5951 46.9845 54.8631 48.9794 55.9864C50.9334 57.0846 52.8119 58.0443 54.5646 58.875C56.7483 59.907 58.7306 60.744 60.4108 61.3985C62.2484 62.1191 63.7241 62.6194 64.6964 62.9309C65.2188 63.0976 65.5963 63.2109 65.8103 63.2738C65.9425 63.3116 66.0117 63.3305 66.0117 63.3305Z" fill="#F47A0A" stroke="#B54718" stroke-width="1.25862" stroke-linecap="round" stroke-linejoin="round"/>
<path d="M60.4799 68.1607C60.4799 68.1607 60.4358 70.7346 57.884 71.5244C56.918 71.8202 56.0527 71.8768 55.3919 71.8485C54.5864 71.8139 54.0767 71.6534 54.0421 71.644H54.0389C54.0389 71.644 54.0389 71.644 54.0358 71.644C54.0358 71.644 54.02 71.6377 54.0075 71.6345C53.9791 71.6251 53.9382 71.6093 53.8816 71.5905C53.8407 71.5747 53.7935 71.559 53.7369 71.537C53.2932 71.3765 52.3838 71.043 51.1347 70.5458C51.0277 70.5049 50.9176 70.4609 50.8043 70.4137C50.7256 70.3822 50.6469 70.3507 50.5651 70.3193C50.0869 70.1242 49.5645 69.9102 49.0107 69.6774C48.9006 69.6302 48.7905 69.583 48.6772 69.5358C48.4412 69.4351 48.1989 69.3312 47.9504 69.2243C47.7207 69.1267 47.4878 69.0229 47.2518 68.9191C47.2424 68.9159 47.2329 68.9128 47.2267 68.9096C46.9875 68.8026 46.7421 68.6956 46.4967 68.5824C45.9838 68.3558 45.4552 68.1135 44.9108 67.8587C44.6874 67.7548 44.464 67.6479 44.2343 67.5409C44.0077 67.4307 43.778 67.3206 43.5452 67.2105C43.4791 67.179 43.4099 67.1444 43.3438 67.1129C43.0008 66.9462 42.6516 66.7731 42.2992 66.6C42.2457 66.5717 42.189 66.5466 42.1324 66.5151C41.8933 66.3955 41.6541 66.2728 41.4118 66.1501C41.1727 66.0305 40.9273 65.9047 40.6818 65.7757C40.4364 65.6498 40.191 65.5208 39.9456 65.3886C39.7001 65.2596 39.4515 65.1243 39.203 64.9922C38.6555 64.6932 38.1048 64.388 37.551 64.0734C37.3685 63.9727 37.1892 63.8689 37.0067 63.7587C36.5473 63.4976 36.091 63.227 35.6316 62.9469C35.4429 62.8336 35.2509 62.7204 35.0621 62.6008C34.8482 62.4718 34.6373 62.3365 34.4234 62.2043C34.3132 62.1351 34.2063 62.0659 34.0993 61.9967C33.5958 61.6789 33.0987 61.3516 32.6047 61.0181C32.3781 60.8671 32.1516 60.7129 31.9282 60.5587C31.925 60.5555 31.9187 60.5524 31.9156 60.5492C31.4593 60.2314 31.0094 59.9136 30.5657 59.5864C30.5594 59.5833 30.5563 59.5801 30.5531 59.5801C30.3329 59.4165 30.1126 59.2529 29.8955 59.0861C29.6186 58.8784 29.348 58.6676 29.0774 58.4537C29.134 56.034 29.2914 53.3909 29.606 50.603C30.2605 51.1788 30.9401 51.7452 31.6418 52.2959C33.7752 53.9667 35.9054 55.4896 37.9821 56.8709C40.1784 58.3309 42.318 59.6336 44.3507 60.7852C46.3142 61.8991 48.1769 62.8745 49.8918 63.721C52.0849 64.8002 54.0358 65.6655 55.6468 66.3357C57.906 67.2797 59.495 67.8366 60.1495 68.0569C60.3446 68.123 60.4579 68.1576 60.4799 68.1639H60.483L60.4799 68.1607Z" fill="#F47A0A" stroke="#B54718" stroke-width="1.25862" stroke-linecap="round" stroke-linejoin="round"/>
<path d="M54.2845 72.5211C54.1964 72.9648 53.7401 73.4871 52.3273 73.8584C51.8963 73.9717 51.4652 74.0472 51.0467 74.0975H51.0373C48.5987 74.3776 46.5566 73.6948 46.5566 73.6948C46.5566 73.6948 46.5534 73.6948 46.544 73.6948C46.522 73.6885 46.4748 73.6727 46.3993 73.6507C46.3804 73.6444 46.3583 73.6381 46.3332 73.6287C46.1444 73.572 45.8423 73.4745 45.4396 73.3392C44.7725 73.1158 43.8254 72.7886 42.6832 72.3575C42.5133 72.2945 42.3371 72.2253 42.1546 72.1561C41.67 71.9705 41.1571 71.7659 40.6159 71.5488C40.49 71.4953 40.3642 71.445 40.2352 71.3915C40.1093 71.3411 39.9803 71.2877 39.8481 71.231H39.845C39.458 71.0674 39.0584 70.8975 38.6493 70.7213C38.514 70.6615 38.3756 70.6017 38.2371 70.5388C37.6802 70.2965 37.1107 70.0353 36.5254 69.7616C36.3775 69.6955 36.2328 69.6263 36.0849 69.5539C35.5877 69.3179 35.0843 69.0725 34.5745 68.8176C34.348 68.7012 34.1151 68.5848 33.8854 68.4652C33.8666 68.4589 33.8477 68.4463 33.8288 68.4369C33.3694 68.2009 32.9069 67.9555 32.4412 67.7037C32.287 67.6188 32.1297 67.5338 31.9755 67.4489C31.7584 67.3293 31.5381 67.2066 31.3179 67.0807C31.0158 66.9108 30.7137 66.7346 30.4117 66.5553C30.1883 66.4262 29.9649 66.2941 29.7446 66.1588C29.6471 66.1022 29.5495 66.0424 29.452 65.9794C29.367 65.9291 29.2821 65.8756 29.2002 65.8221C29.0807 63.7454 29.0083 61.2502 29.0744 58.4561C29.345 58.67 29.6156 58.8777 29.8925 59.0854C30.1096 59.2521 30.3299 59.4157 30.5501 59.5794C30.5501 59.5794 30.5564 59.5825 30.5627 59.5857C31.0064 59.9129 31.4563 60.2338 31.9126 60.5485C31.9157 60.5517 31.922 60.5548 31.9252 60.5579C32.1486 60.7121 32.3751 60.8663 32.6017 61.0173C33.0957 61.3509 33.5928 61.6781 34.0963 61.9959C34.2032 62.0651 34.3102 62.1344 34.4204 62.2036C34.6343 62.3357 34.8451 62.471 35.0591 62.6001C35.2479 62.7196 35.4398 62.8329 35.6286 62.9462C36.088 63.2262 36.5443 63.4968 37.0037 63.758C37.1862 63.8681 37.3655 63.9719 37.548 64.0726C38.1018 64.3873 38.6525 64.6925 39.2 64.9914C39.4485 65.1236 39.6971 65.2589 39.9425 65.3879C40.188 65.52 40.4334 65.6491 40.6788 65.7749C40.9243 65.9039 41.1697 66.0298 41.4088 66.1494C41.6511 66.2721 41.8903 66.3948 42.1294 66.5144C42.186 66.5458 42.2427 66.571 42.2962 66.5993C42.6486 66.7755 42.9947 66.9454 43.3408 67.1122C43.4069 67.1437 43.4761 67.1783 43.5422 67.2097C43.775 67.3199 44.0047 67.43 44.2313 67.5401C44.461 67.6471 44.6844 67.7541 44.9078 67.8579C45.4521 68.1128 45.9808 68.3551 46.4936 68.5816C46.7391 68.6949 46.9845 68.8019 47.2236 68.9089C47.2299 68.912 47.2394 68.9152 47.2488 68.9183C47.4848 69.0253 47.7208 69.126 47.9474 69.2235C48.1959 69.3305 48.4382 69.4343 48.6742 69.535C48.7875 69.5822 48.8976 69.6294 49.0077 69.6766C49.5615 69.9095 50.0839 70.1234 50.5621 70.3185C50.6439 70.35 50.7226 70.3815 50.8013 70.4129C50.9145 70.4601 51.0247 70.5042 51.1317 70.5451C52.3808 71.0422 53.2902 71.3758 53.7338 71.5362C53.7905 71.5583 53.8377 71.574 53.8786 71.5897C53.9352 71.6086 53.9761 71.6243 54.0044 71.6338C54.017 71.6369 54.0265 71.6401 54.0328 71.6432H54.0422C54.0737 71.6873 54.3726 72.0617 54.2845 72.5242V72.5211Z" fill="#F47A0A" stroke="#B54718" stroke-width="1.25862" stroke-linecap="round" stroke-linejoin="round"/>
<path d="M73.6702 45.8853C73.6702 56.8604 70.1492 60.1454 65.8102 63.2731C65.6277 63.4021 65.2186 63.0968 64.6963 62.9301C67.6226 59.0976 71.024 53.5062 73.6702 45.8853Z" fill="#F47A0A" stroke="#B54718" stroke-width="1.25862" stroke-linecap="round" stroke-linejoin="round"/>
<path d="M65.9833 19.8919C65.9896 19.9674 65.9707 20.1184 65.9235 20.3419C65.9109 20.4142 65.892 20.496 65.87 20.5841C65.8511 20.6596 65.8322 20.7352 65.8134 20.8201C65.7913 20.9051 65.7693 20.9932 65.7441 21.0876C65.6938 21.2732 65.6371 21.4809 65.5742 21.7043C65.5522 21.7767 65.5302 21.8522 65.5081 21.9309C65.2847 22.7049 64.989 23.6677 64.624 24.7785C64.6051 24.8351 64.5862 24.8918 64.5673 24.9484C64.5138 25.112 64.4572 25.2788 64.4006 25.4455C64.3502 25.6029 64.2967 25.7633 64.2401 25.927C63.8908 26.9559 63.4943 28.0823 63.057 29.278C62.9783 29.4889 62.8997 29.706 62.8178 29.9231C62.8147 29.9388 62.8084 29.9577 62.799 29.9734C62.7234 30.1748 62.6479 30.3762 62.5724 30.5807C62.5535 30.6373 62.5315 30.694 62.5095 30.7475C62.4466 30.9142 62.3836 31.081 62.3207 31.2509C61.9368 32.2641 61.5246 33.3119 61.0935 34.3817C60.9771 34.6649 60.8638 34.9481 60.7443 35.2313C60.6656 35.4264 60.5838 35.6246 60.502 35.8197C60.3069 36.298 60.1055 36.7762 59.8979 37.2577C59.7783 37.5346 59.6587 37.8115 59.536 38.0915C59.4133 38.3684 59.2937 38.6453 59.1679 38.9253C58.935 39.4571 58.6927 39.9889 58.4473 40.5206C58.2931 40.8605 58.1358 41.2003 57.9753 41.537C57.8589 41.7887 57.7393 42.0373 57.6198 42.2858C57.4719 42.5911 57.324 42.8963 57.1729 43.2015C57.0062 43.5445 56.8363 43.8874 56.6632 44.2273C56.6034 44.3468 56.5436 44.4664 56.4807 44.586C56.3076 44.9258 56.1314 45.2656 55.9552 45.6023C55.7664 45.9642 55.5745 46.3229 55.3794 46.6784C55.2913 46.8389 55.2032 46.9994 55.1151 47.1567C54.9987 47.3738 54.8791 47.5878 54.7564 47.7986C54.6494 47.9905 54.5393 48.1825 54.4292 48.3713C53.8533 49.3719 53.2649 50.3316 52.6671 51.2378C52.5475 51.4203 52.428 51.5996 52.3084 51.7758C52.2329 51.8859 52.1574 51.9992 52.0818 52.1093C52.0063 52.2195 51.9308 52.3265 51.8553 52.4334C51.5847 52.8173 51.3141 53.1886 51.0435 53.5473C51.0152 53.5851 50.9868 53.6228 50.9585 53.6575C50.8578 53.7928 50.754 53.9249 50.6502 54.0571C50.5621 54.1703 50.474 54.2805 50.3827 54.3874C50.3135 54.4755 50.2443 54.5605 50.1719 54.6455C50.0743 54.765 49.9768 54.8783 49.8793 54.9916C49.766 55.1237 49.6527 55.2527 49.5394 55.3818C49.4576 55.4762 49.3727 55.5674 49.2909 55.6555C49.187 55.7688 49.0832 55.8789 48.9793 55.9859C46.9844 54.8626 44.914 53.5945 42.8247 52.1723C46.1663 49.3435 49.2751 44.1517 51.9214 38.5194C53.0856 36.0462 54.1586 33.4913 55.1277 31.0118C55.8545 29.1427 56.5248 27.3209 57.1226 25.6123C57.8778 23.4538 58.5228 21.4809 59.0388 19.8353C59.9828 16.8366 60.502 14.9141 60.502 14.9141C60.502 14.9141 65.1211 16.4968 65.8952 19.9013C65.9077 19.8825 65.9203 19.8667 65.9329 19.8573L65.9455 19.8447C65.9675 19.8353 65.9801 19.851 65.9833 19.8919Z" fill="#F47A0A" stroke="#B54718" stroke-width="1.25862" stroke-linecap="round" stroke-linejoin="round"/>
<path d="M70.0391 25.9366H70.0359L70.0391 25.9429C70.4607 26.2387 62.9027 51.0995 54.5644 58.8746C52.8117 58.0439 50.9333 57.0842 48.9792 55.9861C58.3685 46.2444 66.9901 18.3188 65.8951 19.9015C68.9315 19.461 70.6054 23.6145 70.0391 25.9366Z" fill="#F47A0A" stroke="#B54718" stroke-width="1.25862" stroke-linecap="round" stroke-linejoin="round"/>
<path d="M72.8739 33.1584C73.3742 33.3504 67.3297 54.8067 60.4105 61.3987C58.7302 60.7442 56.7479 59.9072 54.5642 58.8751C62.8711 51.1756 70.5046 26.1322 70.0389 25.9434H70.0358V25.9371C73.0848 23.7534 73.3082 33.3347 72.8739 33.1584Z" fill="#F47A0A" stroke="#B54718" stroke-width="1.25862" stroke-linecap="round" stroke-linejoin="round"/>
<path d="M51.037 74.0969C46.078 76.7369 36.5629 74.3864 35.2067 73.6533C29.8387 71.2556 29.3604 72.3223 29.2 65.8184C35.1469 69.1285 44.0548 74.3235 51.037 74.0969Z" fill="#F47A0A" stroke="#B54718" stroke-width="1.25862" stroke-linecap="round" stroke-linejoin="round"/>
<path d="M73.6765 45.8576C71.046 53.4786 67.6194 59.0983 64.6962 62.9308C63.724 62.6193 62.2482 62.119 60.4106 61.3984C67.3173 54.8442 73.3933 33.2966 72.8741 33.1582C72.8741 33.1582 73.988 32.9033 74.611 36.8082C75.2088 40.5526 73.7992 45.4454 73.6765 45.8576Z" fill="#F47A0A" stroke="#B54718" stroke-width="1.25862" stroke-linecap="round" stroke-linejoin="round"/>
<path d="M60.5019 14.9144C60.5019 14.9144 59.9828 16.837 59.0388 19.8356C59.0388 19.8356 54.0169 14.2726 45.5779 14.2726C47.2424 12.5073 48.9887 10.9341 50.7886 9.58105C57.6323 10.5974 60.5019 14.9144 60.5019 14.9144Z" fill="#F47A0A" stroke="#B54718" stroke-width="1.25862" stroke-linecap="round" stroke-linejoin="round"/>
<path d="M45.5775 14.2729H45.5745" stroke="#B54718" stroke-width="1.25862" stroke-linecap="round" stroke-linejoin="round"/>
<path d="M42.8245 25.1379C42.8245 25.1379 38.2621 26.6262 35.9084 28.64C36.4874 27.4286 37.0978 26.2518 37.7334 25.1096C37.7334 25.1096 39.8983 24.8264 42.8245 25.1379Z" fill="#F47A0A" stroke="#B54718" stroke-width="1.25862" stroke-linecap="round" stroke-linejoin="round"/>
<path d="M54.4038 30.3521C54.4038 30.3521 46.0182 34.2884 42.2298 37.4884C38.4382 40.6853 34.3005 45.3894 34.3005 45.3894C33.1646 44.3101 32.1011 43.2088 31.1162 42.0981C31.3868 40.9968 31.6794 39.9144 31.9972 38.8477H32.0004C32.142 38.7187 36.7171 34.6439 40.2727 32.1928C43.888 29.707 49.8318 27.1709 49.8318 27.1709C51.8614 28.247 53.5102 29.5686 54.4038 30.3521Z" fill="#F47A0A" stroke="#B54718" stroke-width="1.25862" stroke-linecap="round" stroke-linejoin="round"/>
<path d="M59.0387 19.836C58.5227 21.4817 57.8777 23.4546 57.1225 25.6131C57.1225 25.6131 54.6084 22.4791 49.8099 20.7013C45.1059 18.9613 41.5723 19.2822 41.4338 19.2948C42.7459 17.4824 44.1304 15.8053 45.5778 14.2729C54.0169 14.2729 59.0387 19.836 59.0387 19.836Z" fill="#F47A0A" stroke="#B54718" stroke-width="1.25862" stroke-linecap="round" stroke-linejoin="round"/>
<path d="M49.8319 27.1709C49.8319 27.1709 43.8881 29.707 40.2728 32.1927C36.7172 34.6439 32.1421 38.7187 32.0005 38.8445C33.0672 35.2386 34.3856 31.8214 35.9085 28.6403C38.2621 26.6265 42.8246 25.1382 42.8246 25.1382C43.9983 25.2609 45.2978 25.4812 46.6256 25.8556C47.7552 26.1734 48.8376 26.6422 49.8319 27.1709Z" fill="#F47A0A" stroke="#B54718" stroke-width="1.25862" stroke-linecap="round" stroke-linejoin="round"/>
<path d="M57.1224 25.6135C56.5246 27.3221 55.8543 29.1439 55.1275 31.013C55.1275 31.013 54.8695 30.755 54.4038 30.3522C53.5102 29.5687 51.8614 28.2472 49.8319 27.171C48.8375 26.6424 47.7551 26.1736 46.6255 25.8558C45.2977 25.4814 43.9982 25.2611 42.8245 25.1384C39.8982 24.8269 37.7334 25.1101 37.7334 25.1101C38.8819 23.0491 40.1216 21.1045 41.4337 19.2952C41.5722 19.2827 45.1058 18.9617 49.8098 20.7018C54.6083 22.4795 57.1224 25.6135 57.1224 25.6135Z" fill="#F47A0A" stroke="#B54718" stroke-width="1.25862" stroke-linecap="round" stroke-linejoin="round"/>
<path d="M55.1277 31.0123C54.1586 33.4918 53.0856 36.0468 51.9214 38.52C51.9214 38.52 43.7247 42.9189 38.8916 49.3126C38.3504 48.8973 37.8123 48.4662 37.2774 48.0257C36.2296 47.1667 35.2416 46.2857 34.3008 45.3889C34.3008 45.3889 38.4385 40.6848 42.2301 37.4879C46.0185 34.2879 54.404 30.3516 54.404 30.3516C54.8697 30.7543 55.1277 31.0123 55.1277 31.0123Z" fill="#F47A0A" stroke="#B54718" stroke-width="1.25862" stroke-linecap="round" stroke-linejoin="round"/>
<path d="M51.9214 38.5195C49.2752 44.1518 46.1664 49.3436 42.8248 52.1724C41.5158 51.2819 40.1974 50.3317 38.8916 49.3122C43.7247 42.9184 51.9214 38.5195 51.9214 38.5195Z" fill="#F47A0A" stroke="#B54718" stroke-width="1.25862" stroke-linecap="round" stroke-linejoin="round"/>
</g>
<path d="M81.9281 64.0058C81.4375 60.2562 77.8345 57.1757 72.4443 55.5605C71.5491 57.9403 70.2876 59.6191 68.8158 61.0113C73.2566 61.9096 75.6714 63.7764 75.8084 64.8086C75.8976 65.484 75.6555 66.6658 74.6902 67.7808C73.1547 69.5553 70.3258 70.5556 66.726 70.6002C60.9057 70.6862 57.3091 69.3131 53.4927 67.87C48.3924 65.9427 43.1169 63.9516 33.203 65.0475C26.169 65.8248 18.7241 69.7719 13.2893 75.6049C12.1265 76.8537 12.1966 78.8065 13.4422 79.9661C14.0379 80.5204 14.793 80.7944 15.5448 80.7944C16.3699 80.7944 17.195 80.463 17.8034 79.8132C24.4105 72.7218 31.779 71.4157 33.8784 71.1831C42.3205 70.2497 46.688 71.8999 51.3105 73.6457C55.4965 75.2258 59.8226 76.8505 66.8024 76.774C73.709 76.6848 77.4426 74.0343 79.3572 71.8235C81.3132 69.5648 82.2753 66.6404 81.9313 64.0058H81.9281Z" fill="#F47A0A" stroke="#B54718" stroke-width="1.27427" stroke-linecap="round" stroke-linejoin="round"/>
<defs>
<clipPath id="clip0_543_2811">
<rect width="70.3882" height="69.9477" fill="white" transform="translate(5 6)"/>
</clipPath>
</defs>
</svg>
