<svg width="24" height="24" viewBox="0 0 24 24" fill="none" xmlns="http://www.w3.org/2000/svg">
<path d="M12 20.3999C13.6983 20.3999 15.075 19.0232 15.075 17.325H8.92502C8.92502 19.0232 10.3017 20.3999 12 20.3999Z" fill="#FFDE9D" stroke="#FFDE9D" stroke-width="2"/>
<path fill-rule="evenodd" clip-rule="evenodd" d="M17.6696 9.09595C17.3599 6.19794 14.9145 4 12 4C9.08549 4 6.64014 6.19794 6.33043 9.09595L5.85132 13.579C5.85049 13.5868 5.8469 13.5939 5.84121 13.5992L5.13554 14.2545C4.93142 14.444 4.77486 14.679 4.67856 14.9404C4.25236 16.0972 5.10842 17.3249 6.34127 17.3249H17.6587C18.8916 17.3249 19.7476 16.0972 19.3214 14.9404C19.2251 14.679 19.0686 14.444 18.8645 14.2545L18.1588 13.5992C18.1531 13.5939 18.1495 13.5868 18.1487 13.579L17.6696 9.09595Z" fill="#FFBC3A" stroke="#FFBC3A" stroke-width="2"/>
</svg>
