<svg width="40" height="40" viewBox="0 0 40 40" fill="none" xmlns="http://www.w3.org/2000/svg">
<path d="M23.1237 5.50992C22.0499 2.60786 17.9453 2.60786 16.8714 5.50992L15.7376 8.57399L12.3816 7.03084C9.57019 5.7381 6.66778 8.64051 7.96051 11.4519L9.73383 15.3085L5.50983 16.8715C2.60777 17.9454 2.60777 22.05 5.50983 23.1238L9.32674 24.5362L7.96051 27.5075C6.66778 30.3189 9.57019 33.2213 12.3816 31.9285L15.41 30.536L16.8714 34.4854C17.9453 37.3875 22.0499 37.3875 23.1237 34.4854L24.7049 30.2124L28.4371 31.9285C31.2485 33.2213 34.151 30.3189 32.8582 27.5075L31.3722 24.2758L34.4853 23.1238C37.3874 22.05 37.3874 17.9454 34.4853 16.8715L30.9651 15.5689L32.8582 11.4519C34.151 8.64051 31.2485 5.7381 28.4371 7.03084L24.3773 8.89762L23.1237 5.50992Z" fill="#FFBC3A"/>
</svg>
