<svg width="240" height="240" viewBox="0 0 240 240" fill="none" xmlns="http://www.w3.org/2000/svg">
<ellipse cx="120" cy="187" rx="63" ry="19" fill="#D9D9D9"/>
<path d="M105.799 72.0806C112.201 61.3065 127.799 61.3065 134.201 72.0806L167.657 128.389C174.199 139.4 166.264 153.345 153.457 153.345H86.5434C73.7357 153.345 65.8006 139.4 72.3428 128.389L105.799 72.0806Z" fill="#FF7E65"/>
<path fill-rule="evenodd" clip-rule="evenodd" d="M120 92C122.209 92 124 93.7909 124 96L124 117.333C124 119.542 122.209 121.333 120 121.333C117.791 121.333 116 119.542 116 117.333L116 96C116 93.7909 117.791 92 120 92Z" fill="white"/>
<path d="M124 131.222C124 133.431 122.209 135.222 120 135.222C117.791 135.222 116 133.431 116 131.222C116 129.013 117.791 127.222 120 127.222C122.209 127.222 124 129.013 124 131.222Z" fill="white"/>
</svg>
