<svg width="24" height="24" viewBox="0 0 24 24" fill="none" xmlns="http://www.w3.org/2000/svg">
<mask id="mask0_813_2902" style="mask-type:alpha" maskUnits="userSpaceOnUse" x="2" y="3" width="20" height="18">
<path d="M4 3C2.89543 3 2 3.89543 2 5V17C2 18.1046 2.89543 19 4 19H7.7889C8.5786 19 9.35063 19.2338 10.0077 19.6718L10.8906 20.2604C11.5624 20.7083 12.4376 20.7083 13.1094 20.2604L13.9923 19.6718C14.6494 19.2338 15.4214 19 16.2111 19H20C21.1046 19 22 18.1046 22 17V5C22 3.89543 21.1046 3 20 3H16C13.7909 3 12 4.79086 12 7C12 4.79086 10.2091 3 8 3H4Z" fill="#B8AFA8"/>
</mask>
<g mask="url(#mask0_813_2902)">
<path d="M2 5C2 3.89543 2.89543 3 4 3H8C10.2091 3 12 4.79086 12 7V21L10.0077 19.6718C9.35063 19.2338 8.5786 19 7.7889 19H4C2.89543 19 2 18.1046 2 17V5Z" fill="#FFBC3A"/>
<path d="M12 7C12 4.79086 13.7909 3 16 3H20C21.1046 3 22 3.89543 22 5V17C22 18.1046 21.1046 19 20 19H16.2111C15.4214 19 14.6494 19.2338 13.9923 19.6718L12 21V7Z" fill="#FFBC3A"/>
<path d="M12 9V17" stroke="#FFDE9D" stroke-width="2" stroke-linecap="round"/>
</g>
</svg>
