<svg width="110" height="110" viewBox="0 0 110 110" fill="none" xmlns="http://www.w3.org/2000/svg">
<g clip-path="url(#clip0_2389_22533)">
<path d="M83.537 54.2429C87.8775 53.5619 92.0347 56.5252 91.9505 60.9179C91.8203 67.7019 90.097 74.3787 86.8741 80.3803C82.4016 88.7086 75.2957 95.2628 66.6767 99.0096C58.0577 102.756 48.4158 103.483 39.2713 101.074C32.6826 99.3383 26.6221 96.0464 21.569 91.5169C18.296 88.583 18.9632 83.5189 22.4234 80.8082L47.8819 60.8639C48.956 60.0225 50.2274 59.4697 51.5753 59.2582L83.537 54.2429Z" fill="#B8AFA8"/>
<path d="M30.2529 97.7109C21.8295 93.2669 15.142 86.1779 11.2449 77.5618C7.34774 68.9456 6.46256 59.2924 8.72892 50.124C10.9953 40.9556 16.2843 32.7937 23.762 26.9249C29.1382 22.7055 35.4259 19.844 42.0837 18.5305C46.4176 17.6754 50.0681 21.2912 50.1171 25.7084L50.477 58.144C50.4921 59.5011 50.1617 60.8396 49.5169 62.0337L30.2529 97.7109Z" fill="#DFD8D2"/>
<path d="M56.2154 14.445C56.1088 10.028 59.6281 6.28936 63.9966 6.95112C71.8097 8.13468 79.2324 11.3254 85.5103 16.2719C91.7882 21.2185 96.6269 27.6888 99.6054 35.0082C101.271 39.1006 98.4591 43.3969 94.1398 44.3266L66.5763 50.2595C61.6713 51.3153 57.0162 47.6475 56.8952 42.6315L56.2154 14.445Z" fill="#A39A93"/>
<rect x="69.5" y="76" width="32" height="32" rx="16" fill="#524A44"/>
<circle cx="80.1666" cy="92.0003" r="1.33333" fill="white"/>
<circle cx="85.5001" cy="92.0003" r="1.33333" fill="white"/>
<ellipse cx="90.8333" cy="92.0003" rx="1.33333" ry="1.33333" fill="white"/>
</g>
<defs>
<clipPath id="clip0_2389_22533">
<rect width="110" height="110" fill="white"/>
</clipPath>
</defs>
</svg>
