<svg width="24" height="24" viewBox="0 0 24 24" fill="none" xmlns="http://www.w3.org/2000/svg">
<path d="M12 8C12 6.93913 11.5786 5.92172 10.8284 5.17157C10.0783 4.42143 9.06087 4 8 4H4C2.89543 4 2 4.89543 2 6V17C2 18.1046 2.89543 19 4 19H9C9.79565 19 10.5587 19.3161 11.1213 19.8787C11.6839 20.4413 12 21.2044 12 22M12 8V22M12 8C12 6.93913 12.4214 5.92172 13.1716 5.17157C13.9217 4.42143 14.9391 4 16 4H20C21.1046 4 22 4.89543 22 6V17C22 18.1046 21.1046 19 20 19H15C14.2044 19 13.4413 19.3161 12.8787 19.8787C12.3161 20.4413 12 21.2044 12 22" stroke="#524A44" stroke-width="2" stroke-linecap="round" stroke-linejoin="round"/>
</svg>
