<svg width="24" height="24" viewBox="0 0 24 24" fill="none" xmlns="http://www.w3.org/2000/svg">
<path d="M10.9005 6.99502C10.957 6.43015 11.4323 5.99998 12 5.99998C12.5677 5.99998 13.043 6.43015 13.0995 6.99502L13.801 14.0099C13.9075 15.0754 13.0708 16 12 16C10.9292 16 10.0925 15.0754 10.199 14.0099L10.9005 6.99502Z" fill="#FFDE9D"/>
<path d="M12.1031 6.60994C11.9743 4.7735 13.3586 3.18034 15.195 3.05152L16.5251 2.95822C18.3615 2.8294 19.9547 4.2137 20.0835 6.05014C20.1093 6.41742 19.8324 6.73605 19.4651 6.76182L12.8148 7.22832C12.4475 7.25408 12.1289 6.97722 12.1031 6.60994Z" fill="#FFBC3A"/>
<path d="M12.027 6.60994C12.1558 4.7735 10.7715 3.18034 8.93509 3.05152L7.60503 2.95822C5.76859 2.8294 4.17543 4.2137 4.04661 6.05014C4.02085 6.41742 4.29771 6.73605 4.665 6.76182L11.3153 7.22832C11.6826 7.25408 12.0012 6.97722 12.027 6.60994Z" fill="#FFBC3A"/>
<path d="M12.2288 6.35701C13.5305 5.05526 15.6411 5.05526 16.9428 6.35701L17.8856 7.29982C19.1874 8.60156 19.1874 10.7121 17.8856 12.0139C17.6253 12.2742 17.2032 12.2742 16.9428 12.0139L12.2288 7.29982C11.9684 7.03947 11.9684 6.61736 12.2288 6.35701Z" fill="#FFBC3A"/>
<path d="M12.0139 6.35701C10.7121 5.05526 8.60159 5.05526 7.29984 6.35701L6.35703 7.29982C5.05528 8.60156 5.05528 10.7121 6.35703 12.0139C6.61738 12.2742 7.03949 12.2742 7.29984 12.0139L12.0139 7.29982C12.2742 7.03947 12.2742 6.61736 12.0139 6.35701Z" fill="#FFBC3A"/>
<path d="M4.05317 17.7873C4.60963 15.5615 6.60954 14 8.90388 14H15.0961C17.3905 14 19.3904 15.5615 19.9468 17.7873L20.3787 19.5149C20.6943 20.7772 19.7396 22 18.4384 22H5.56155C4.26041 22 3.30569 20.7772 3.62127 19.5149L4.05317 17.7873Z" fill="#FFBC3A"/>
</svg>
