<svg width="16" height="16" viewBox="0 0 16 16" fill="none" xmlns="http://www.w3.org/2000/svg">
<path d="M8 13.3334C8 13.3334 1.99946 9.03436 2 5.81821C2.00012 5.0898 2.24999 4.38392 2.70713 3.82058C3.16426 3.25724 3.80045 2.8712 4.50751 2.72811C5.21458 2.58502 5.94889 2.6937 6.58559 3.03568C7.2223 3.37766 7.72209 3.93183 8 4.60396C8.27792 3.93183 8.7777 3.37766 9.41441 3.03568C10.0511 2.6937 10.7854 2.58502 11.4925 2.72811C12.1996 2.8712 12.8357 3.25724 13.2929 3.82058C13.75 4.38392 13.9999 5.0898 14 5.81821C14 9.03436 8 13.3334 8 13.3334Z" fill="#FFBC3A"/>
<path d="M8 13.3334L7.53408 13.9837L8.00002 14.3175L8.46594 13.9837L8 13.3334ZM2 5.81821L1.2 5.81807L2 5.81821ZM8 4.60396L7.26071 4.90965C7.38442 5.20883 7.67625 5.40396 8.00001 5.40396C8.32376 5.40396 8.61559 5.20883 8.7393 4.90965L8 4.60396ZM14 5.81821H14.8V5.81807L14 5.81821ZM8 13.3334C8.46592 12.683 8.46601 12.6831 8.46607 12.6831C8.46606 12.6831 8.46611 12.6832 8.46609 12.6832C8.46606 12.6831 8.46594 12.683 8.46573 12.6829C8.46531 12.6826 8.46452 12.682 8.46339 12.6812C8.46112 12.6796 8.45744 12.6769 8.45239 12.6733C8.4423 12.6659 8.42675 12.6546 8.40611 12.6395C8.36481 12.6091 8.30317 12.5635 8.22409 12.5038C8.06587 12.3844 7.83823 12.2091 7.56437 11.9884C7.01545 11.5461 6.28672 10.9262 5.56104 10.2117C4.83209 9.49411 4.12522 8.6997 3.60569 7.90969C3.07575 7.10387 2.7999 6.39124 2.8 5.81834L1.2 5.81807C1.19983 6.85325 1.67385 7.88406 2.26886 8.78883C2.87427 9.70943 3.66744 10.5928 4.43856 11.3519C5.21294 12.1143 5.98431 12.7701 6.56048 13.2343C6.84916 13.4669 7.09031 13.6526 7.26024 13.7809C7.34524 13.845 7.41251 13.8949 7.45911 13.9291C7.48242 13.9462 7.50056 13.9594 7.51318 13.9686C7.51949 13.9732 7.52441 13.9767 7.52791 13.9792C7.52966 13.9805 7.53106 13.9815 7.53209 13.9822C7.5326 13.9826 7.53303 13.9829 7.53336 13.9832C7.53353 13.9833 7.53371 13.9834 7.53379 13.9835C7.53395 13.9836 7.53408 13.9837 8 13.3334ZM2.8 5.81834C2.80009 5.27265 2.98734 4.74488 3.32833 4.32467L2.08592 3.31649C1.51264 4.02296 1.20015 4.90696 1.2 5.81807L2.8 5.81834ZM3.32833 4.32467C3.66919 3.90462 4.14225 3.61825 4.6662 3.51222L4.34883 1.94401C3.45864 2.12416 2.65934 2.60985 2.08592 3.31649L3.32833 4.32467ZM4.6662 3.51222C5.19005 3.4062 5.73436 3.48657 6.20705 3.74046L6.96413 2.33091C6.16342 1.90083 5.23911 1.76384 4.34883 1.94401L4.6662 3.51222ZM6.20705 3.74046C6.67991 3.99443 7.05288 4.40701 7.26071 4.90965L8.7393 4.29828C8.3913 3.45664 7.76468 2.76089 6.96413 2.33091L6.20705 3.74046ZM8.7393 4.90965C8.94713 4.40701 9.32009 3.99443 9.79295 3.74046L9.03586 2.33091C8.23531 2.76089 7.60871 3.45665 7.26071 4.29828L8.7393 4.90965ZM9.79295 3.74046C10.2656 3.48657 10.81 3.4062 11.3338 3.51222L11.6512 1.94401C10.7609 1.76384 9.83658 1.90083 9.03586 2.33091L9.79295 3.74046ZM11.3338 3.51222C11.8577 3.61825 12.3308 3.90462 12.6717 4.32467L13.9141 3.31649C13.3407 2.60985 12.5414 2.12416 11.6512 1.94401L11.3338 3.51222ZM12.6717 4.32467C13.0127 4.74488 13.1999 5.27265 13.2 5.81834L14.8 5.81807C14.7998 4.90695 14.4874 4.02296 13.9141 3.31649L12.6717 4.32467ZM13.2 5.81821C13.2 6.39117 12.9241 7.10384 12.3941 7.90968C11.8745 8.69971 11.1677 9.49412 10.4387 10.2118C9.7131 10.9262 8.98441 11.5462 8.43553 11.9885C8.16169 12.2091 7.93407 12.3844 7.77586 12.5038C7.69679 12.5635 7.63515 12.6092 7.59386 12.6395C7.57322 12.6546 7.55767 12.666 7.54758 12.6733C7.54253 12.6769 7.53885 12.6796 7.53658 12.6812C7.53545 12.682 7.53467 12.6826 7.53424 12.6829C7.53403 12.6831 7.53391 12.6832 7.53388 12.6832C7.53386 12.6832 7.53391 12.6832 7.5339 12.6832C7.53397 12.6831 7.53406 12.683 8 13.3334C8.46594 13.9837 8.46608 13.9836 8.46624 13.9834C8.46632 13.9834 8.4665 13.9833 8.46667 13.9831C8.467 13.9829 8.46743 13.9826 8.46794 13.9822C8.46897 13.9815 8.47037 13.9805 8.47211 13.9792C8.47561 13.9767 8.48054 13.9731 8.48685 13.9686C8.49946 13.9594 8.5176 13.9462 8.54091 13.9291C8.58751 13.8949 8.65478 13.845 8.73977 13.7809C8.90968 13.6526 9.15081 13.4669 9.43947 13.2343C10.0156 12.77 10.7869 12.1143 11.5613 11.3519C12.3323 10.5928 13.1255 9.70942 13.7309 8.78885C14.3259 7.88408 14.8 6.85332 14.8 5.81821H13.2Z" fill="#FFBC3A"/>
</svg>
