<svg width="40" height="40" viewBox="0 0 40 40" fill="none" xmlns="http://www.w3.org/2000/svg">
<path d="M30.8333 18.3334C34.9754 18.3334 38.3333 14.9755 38.3333 10.8334C38.3333 6.69124 34.9754 3.33337 30.8333 3.33337C26.6911 3.33337 23.3333 6.69124 23.3333 10.8334C23.3333 14.9755 26.6911 18.3334 30.8333 18.3334Z" fill="#FFDE9D"/>
<path d="M9.16672 18.3334C13.3089 18.3334 16.6667 14.9755 16.6667 10.8334C16.6667 6.69124 13.3089 3.33337 9.16672 3.33337C5.02458 3.33337 1.66672 6.69124 1.66672 10.8334C1.66672 14.9755 5.02458 18.3334 9.16672 18.3334Z" fill="#FFDE9D"/>
<path d="M20 36.6666C28.2843 36.6666 35 29.9509 35 21.6666C35 13.3824 28.2843 6.66663 20 6.66663C11.7157 6.66663 5 13.3824 5 21.6666C5 29.9509 11.7157 36.6666 20 36.6666Z" fill="#FFBC3A"/>
<path d="M20 13.3334V21.1112L25 25" stroke="#FFDE9D" stroke-width="2.6" stroke-linecap="round" stroke-linejoin="round"/>
</svg>
