<svg width="24" height="24" viewBox="0 0 24 24" fill="none" xmlns="http://www.w3.org/2000/svg">
<path d="M18.5 11C20.9853 11 23 8.98528 23 6.5C23 4.01472 20.9853 2 18.5 2C16.0147 2 14 4.01472 14 6.5C14 8.98528 16.0147 11 18.5 11Z" fill="#FFDE9D"/>
<path d="M5.5 11C7.98528 11 10 8.98528 10 6.5C10 4.01472 7.98528 2 5.5 2C3.01472 2 1 4.01472 1 6.5C1 8.98528 3.01472 11 5.5 11Z" fill="#FFDE9D"/>
<path d="M12 22C16.9706 22 21 17.9706 21 13C21 8.02944 16.9706 4 12 4C7.02944 4 3 8.02944 3 13C3 17.9706 7.02944 22 12 22Z" fill="#FFBC3A"/>
<path d="M12 8V12.6667L15 15" stroke="#FFDE9D" stroke-width="2" stroke-linecap="round" stroke-linejoin="round"/>
</svg>
