<svg width="24" height="25" viewBox="0 0 24 25" fill="none" xmlns="http://www.w3.org/2000/svg">
<path d="M6.82581 7.21007L6.59731 6.94395C7.19072 6.39713 7.71359 5.84915 8.10823 5.3566C8.60837 4.73333 8.76342 4.37268 8.79548 4.22269C8.33731 4.23845 7.16973 4.8413 5.74858 5.95594C5.54048 6.11876 5.32771 6.29267 5.11029 6.47708C4.87945 6.67317 4.65561 6.87217 4.4411 7.07117C3.86692 7.6034 3.36095 8.13622 2.97623 8.61592C2.4755 9.23919 2.32045 9.59985 2.28897 9.74983C2.7419 9.73407 3.88733 9.14524 5.28633 8.05568L5.51425 8.32121C3.81913 9.64362 2.3152 10.3795 1.99401 10.0014C1.96487 9.96692 1.94621 9.92432 1.93805 9.87413C1.8547 9.37517 2.78212 8.1298 4.21259 6.80564C4.42594 6.60781 4.65036 6.4088 4.88411 6.2098C5.09804 6.02831 5.31081 5.8544 5.52066 5.68983C7.08579 4.46138 8.49645 3.72606 8.97794 3.89647C9.02399 3.91281 9.06188 3.93732 9.08986 3.97117C9.41338 4.35283 8.42592 5.7371 6.82581 7.21007Z" fill="#F47A0A"/>
<path d="M4.44082 7.07324L5.28605 8.05775C3.88705 9.1473 2.74162 9.73614 2.2887 9.7519C2.32017 9.60192 2.47523 9.24126 2.97596 8.61799C3.36068 8.13829 3.86665 7.60547 4.44082 7.07324Z" fill="#91432A"/>
<path d="M8.79642 4.22363C8.76436 4.37361 8.6093 4.73427 8.10916 5.35754C7.71452 5.85008 7.19165 6.39807 6.59824 6.94489L5.74951 5.95688C7.17066 4.84223 8.33824 4.23939 8.79642 4.22363Z" fill="#91432A"/>
<path d="M7.73532 8.27329L6.4325 9.39494L6.02329 8.91815L5.99065 8.87964L5.6648 8.50089L5.51382 8.32523L5.2859 8.0597L4.44067 7.07519C4.65519 6.87619 4.87903 6.67719 5.10986 6.4811C5.32729 6.29669 5.54005 6.12278 5.74816 5.95996L6.59688 6.94797L6.82539 7.21408L6.96762 7.37924L7.2958 7.7609L7.32436 7.79475L7.73532 8.27329Z" fill="#F47A0A"/>
<path d="M8.9778 3.89847C8.4316 3.70531 6.68985 4.67698 4.88397 6.21181C3.08101 7.74372 1.84231 9.30247 1.93791 9.87614C1.34917 9.09997 1 8.13122 1 7.08135C1 6.03148 1.34275 5.07848 1.92217 4.30582C2.10055 4.06888 2.30049 3.84887 2.52025 3.65045H2.52083C2.62284 3.55708 2.72835 3.46954 2.83852 3.38667C2.8391 3.38667 2.83968 3.3855 2.83968 3.3855C3.07751 3.20576 3.334 3.04819 3.60447 2.91688C4.2142 2.62042 4.89913 2.4541 5.62136 2.4541C6.94283 2.4541 8.13607 3.00851 8.9778 3.89847Z" fill="#FF9636"/>
<path d="M10.9337 22.2614C10.9444 22.2614 10.955 22.2614 10.9651 22.2614C10.9402 22.2614 10.916 22.2614 10.8911 22.2614C10.9053 22.2614 10.9195 22.2614 10.9337 22.2607V22.2614Z" fill="#F47A0A"/>
<path d="M10.9652 22.2613C11.0068 22.2613 11.0479 22.2613 11.0896 22.2607C11.0661 22.2607 11.0432 22.2619 11.0198 22.2619C11.0016 22.2619 10.9834 22.2619 10.9646 22.2619L10.9652 22.2613Z" fill="#F47A0A"/>
<path d="M11.0194 4.6377C11.0434 4.6377 11.0675 4.63829 11.0915 4.63889C11.0487 4.63889 11.0065 4.63829 10.9636 4.63829C10.9824 4.63829 11.0006 4.63829 11.0194 4.63829V4.6377Z" fill="#F47A0A"/>
<path d="M10.8911 4.6383C10.916 4.6383 10.9396 4.6383 10.9645 4.6383C10.9544 4.6383 10.9438 4.6383 10.9337 4.6383C10.9195 4.6377 10.9053 4.6377 10.8911 4.6377V4.6383Z" fill="#F47A0A"/>
<path d="M21.6793 13.4512C21.6793 16.63 20.0786 19.3758 17.7609 20.6666C17.7609 20.6666 17.7603 20.6672 17.7592 20.6678C17.7586 20.6684 17.758 20.6684 17.7574 20.669C17.6572 20.739 15.4444 22.2417 11.0889 22.2616C12.3625 22.2511 13.5709 21.9505 14.6528 21.4206C17.5324 20.0084 19.5243 16.9702 19.5243 13.4512C19.5243 9.93218 17.533 6.89345 14.654 5.48176C13.5721 4.9507 12.3655 4.65074 11.0912 4.63965C15.4788 4.66066 17.691 6.18556 17.7592 6.23342C17.7603 6.234 17.7609 6.23459 17.7609 6.23459C20.0786 7.52606 21.6793 10.2718 21.6793 13.4512Z" fill="#F47A0A"/>
<path d="M23.4912 7.40801C23.4172 8.75959 22.801 9.95302 21.8643 10.7864C21.8643 10.7864 21.8625 10.7881 21.8579 10.7905C21.7564 10.8506 19.6486 9.51884 17.8253 7.61751C16.6956 6.43984 14.9614 4.85774 14.9579 3.92751C15.9104 2.83854 17.3356 2.18492 18.8914 2.27012C21.5787 2.41719 23.6393 4.7171 23.4924 7.40859L23.4912 7.40801Z" fill="#FF9636"/>
<path d="M19.5237 13.4504C19.5237 16.9694 17.5318 20.0076 14.6522 21.4199C13.5505 21.9597 12.3182 22.262 11.0189 22.262C10.9904 22.262 10.9618 22.262 10.9332 22.2614C6.27572 22.2141 2.51416 18.2866 2.51416 13.4504C2.51416 8.61424 6.27572 4.68555 10.9332 4.63828C10.9618 4.63769 10.9904 4.6377 11.0189 4.6377C12.3194 4.6377 13.5511 4.93999 14.6534 5.48097C17.5324 6.89267 19.5237 9.93081 19.5237 13.4504Z" fill="#FF9636"/>
<path d="M17.7286 13.8193C17.5531 17.8425 14.5086 21.0446 10.7785 21.0446C7.04838 21.0446 3.82019 17.6447 3.82019 13.4493C3.82019 9.25387 6.9353 5.85449 10.7785 5.85449C14.6216 5.85449 17.5525 9.05662 17.7286 13.0793C17.552 9.44412 14.7953 6.55596 11.4214 6.55596C8.0475 6.55596 5.1061 9.64254 5.1061 13.4487C5.1061 17.2548 7.93325 20.342 11.4214 20.342C14.9096 20.342 17.552 17.4532 17.7286 13.8181V13.8193Z" fill="#F47A0A"/>
<path d="M17.7291 13.4503C17.7291 13.5157 17.7285 13.5805 17.7268 13.6453V13.6464C17.7256 13.7048 17.7227 13.7626 17.7204 13.8198C17.5379 17.4549 14.6875 20.3436 11.1981 20.3436C7.70877 20.3436 4.66711 17.2571 4.66711 13.4503C4.66711 9.64362 7.59102 6.55762 11.1981 6.55762C14.8052 6.55762 17.5385 9.44578 17.7204 13.0809C17.7227 13.1387 17.7256 13.1965 17.7268 13.2543V13.2554C17.7285 13.3202 17.7291 13.385 17.7291 13.4503Z" fill="#F7F8FD"/>
<path d="M13.2962 12.7333H11.7754V11.237C11.7754 10.7352 11.39 10.3027 10.8887 10.2794C10.3536 10.2543 9.91235 10.6809 9.91235 11.2108V13.5895C9.91235 14.1468 10.3635 14.5985 10.9202 14.5985H13.2962C13.8103 14.5985 14.2277 14.1812 14.2277 13.6659C14.2277 13.1512 13.8109 12.7333 13.2962 12.7333Z" fill="#4B3A33"/>
</svg>
