<svg width="20" height="20" viewBox="0 0 20 20" fill="none" xmlns="http://www.w3.org/2000/svg">
<path d="M14.6171 7.99252C12.426 5.42934 11.6667 4.58333 10.8334 2.5C7.50005 4.58333 6.66671 6.25 8.56614 9.94957C6.66671 11.25 5.37567 10.1936 5.00004 9.58333C3.44954 11.1805 2.70318 13.1951 4.18756 15.3974C6.54097 18.8891 12.4253 19.5701 15.4208 15.7767C17.4956 13.1493 16.8082 10.5557 14.6171 7.99252Z" fill="#FFBC3A" stroke="#FFBC3A" stroke-width="1.6" stroke-linecap="round" stroke-linejoin="round"/>
<path d="M12.0833 16.1111C12.0833 17.6452 11.1506 18.3333 9.99996 18.3333C8.84937 18.3333 7.91663 17.6452 7.91663 16.1111C7.91663 14.577 9.99996 13.3333 9.99996 13.3333C9.99996 13.3333 12.0833 14.577 12.0833 16.1111Z" fill="#FFDE9D" stroke="#FFDE9D" stroke-width="1.6"/>
</svg>
