<svg width="38" height="38" viewBox="0 0 38 38" fill="none" xmlns="http://www.w3.org/2000/svg">
<g clip-path="url(#clip0_1011_1798)">
<rect width="38" height="38" fill="#FFE9BF"/>
<path d="M37.4266 30.0088C37.4266 30.0644 37.4259 30.1193 37.4245 30.1743C37.4245 30.2006 37.4245 30.227 37.423 30.2533C37.423 30.2965 37.4208 30.339 37.4194 30.3815C37.4179 30.4122 37.4164 30.4437 37.415 30.4745C37.4121 30.5301 37.4092 30.585 37.4063 30.6399C37.4004 30.7249 37.3939 30.8098 37.3866 30.894C37.3633 31.1657 37.329 31.4307 37.2846 31.6899C37.262 31.8283 37.2366 31.9645 37.2081 32.0992C36.742 34.3347 35.6299 36.0517 34.8862 37.0036C34.8848 37.0065 34.8826 37.0087 34.8804 37.0109C34.5629 37.4173 34.3138 37.6838 34.2125 37.7893C34.1572 37.8471 34.1011 37.9042 34.0443 37.9606C34.0305 37.9745 34.0166 37.9877 34.0028 38.0016C33.9409 38.0631 33.8782 38.1232 33.8142 38.1832C33.7479 38.2454 33.6801 38.307 33.6124 38.3677C33.6109 38.3692 33.6095 38.3707 33.608 38.3714C33.4682 38.4966 33.3247 38.6174 33.1798 38.7324C32.635 39.1688 32.0567 39.5429 31.4537 39.86C30.5243 40.3491 29.536 40.7042 28.5178 40.9451C28.5127 40.9458 28.5083 40.9466 28.5039 40.948C28.4544 40.9598 28.4042 40.9707 28.3546 40.9825C28.2039 41.0161 28.0531 41.0476 27.9016 41.0762C27.8994 41.0762 27.8972 41.0769 27.8958 41.0776C27.796 41.096 27.6955 41.1143 27.595 41.1311C27.5906 41.1318 27.5862 41.1326 27.5826 41.1333C27.4879 41.1487 27.3932 41.164 27.2971 41.178C27.131 41.2029 26.9635 41.2248 26.7946 41.2439C26.6962 41.2556 26.5965 41.2658 26.4974 41.2746C26.4377 41.2805 26.3787 41.2863 26.3197 41.2907C26.2155 41.2995 26.1114 41.3076 26.0072 41.3142C26.0058 41.3142 26.0036 41.3149 26.0021 41.3142C25.847 41.3244 25.6919 41.3325 25.5367 41.3376C25.4756 41.3405 25.4144 41.3427 25.3525 41.3434C25.3131 41.3449 25.2745 41.3456 25.2352 41.3464C25.1879 41.3478 25.1405 41.3486 25.0932 41.3486C25.0313 41.3486 24.9701 41.35 24.9082 41.35H24.8718C24.788 41.35 24.7043 41.3493 24.6212 41.3478C24.5317 41.3464 24.4428 41.3449 24.3532 41.342C24.2746 41.3398 24.1952 41.3369 24.1165 41.3332C24.0612 41.331 24.0058 41.3288 23.9512 41.3251C23.8842 41.3222 23.8172 41.3185 23.7509 41.3142C23.6846 41.3105 23.6191 41.3061 23.5528 41.301C22.6475 41.2358 21.7553 41.1062 20.898 40.9246C20.6883 40.8814 20.4814 40.8338 20.2761 40.784C20.1027 40.7416 19.9316 40.6976 19.7626 40.6508C19.0284 40.4516 18.3292 40.2158 17.6796 39.9544C17.5834 39.9156 17.4888 39.8761 17.3941 39.8358C17.346 39.8153 17.2987 39.7948 17.2513 39.7743C17.1829 39.7443 17.1144 39.7143 17.0467 39.6835C16.8274 39.5847 16.5463 39.4573 16.2207 39.2954C16.1683 39.2691 16.1151 39.242 16.0605 39.2149C15.7138 39.0392 15.3234 38.8254 14.9083 38.5691C13.6366 37.7856 12.1676 36.617 10.9906 34.8677C10.9564 34.8165 10.9215 34.7645 10.8872 34.7118C10.853 34.6591 10.8195 34.6063 10.786 34.5529C10.7831 34.5485 10.7802 34.5441 10.7772 34.5397C10.7132 34.4372 10.6498 34.3325 10.5872 34.2256C10.5551 34.1699 10.5223 34.1136 10.491 34.0572C10.459 34.0008 10.4276 33.9437 10.3963 33.8858C10.2951 33.6991 10.2011 33.5124 10.113 33.3264C9.29001 31.5911 9.02271 29.948 8.94988 28.6945C8.94259 28.5751 8.9375 28.4609 8.93385 28.3503C8.9324 28.3005 8.93094 28.2515 8.92948 28.2039C8.92876 28.1797 8.92803 28.1555 8.92803 28.1321C8.92512 27.9527 8.92584 27.7843 8.9273 27.6284C8.9273 27.5991 8.92803 27.5705 8.92876 27.5427C8.93021 27.4856 8.93167 27.4307 8.93313 27.3772C8.93604 27.2688 8.93968 27.1736 8.94332 27.0924C8.94624 27.0192 8.94842 26.9415 8.94988 26.8595C8.95061 26.8332 8.95133 26.8053 8.95133 26.7775C8.95206 26.7497 8.95206 26.7211 8.95279 26.6926C8.95352 26.6362 8.95425 26.5784 8.95498 26.5183C8.95498 26.489 8.9557 26.459 8.9557 26.429C8.95643 26.3733 8.95716 26.3162 8.95789 26.2584C8.95862 26.2005 8.95935 26.142 8.96007 26.0812C8.9608 26.0211 8.96153 25.9604 8.96299 25.8981C8.96517 25.8051 8.96736 25.7092 8.97027 25.6118C8.97173 25.5679 8.97318 25.5232 8.97537 25.4786C8.97755 25.4083 8.9812 25.3373 8.98411 25.2655C8.98702 25.2135 8.98921 25.1615 8.99285 25.1088C8.99503 25.0678 8.99795 25.0275 9.00013 24.9865C9.00596 24.9023 9.01179 24.8174 9.01907 24.731C9.02635 24.6446 9.03436 24.5574 9.0431 24.4696C9.0482 24.4249 9.05257 24.381 9.05767 24.3371C9.06277 24.2924 9.06787 24.2485 9.07369 24.2031C9.07879 24.1562 9.08535 24.1086 9.0919 24.061C9.09773 24.0185 9.10355 23.9761 9.11011 23.9329C9.12322 23.8421 9.13779 23.7513 9.15381 23.659C9.16182 23.6129 9.16983 23.5668 9.17857 23.5206C9.18658 23.4745 9.19605 23.4276 9.20552 23.3815C9.21499 23.3354 9.22446 23.2885 9.23465 23.2417C9.25505 23.1465 9.2769 23.0513 9.30093 22.9561C9.31258 22.9107 9.32351 22.866 9.33589 22.8206C9.34827 22.7738 9.36138 22.7269 9.37449 22.6801C9.3876 22.6325 9.40144 22.5856 9.41528 22.5387C9.41673 22.5336 9.41819 22.5285 9.41965 22.5234C9.44732 22.434 9.47573 22.3447 9.50632 22.2561C9.53836 22.1616 9.57187 22.0679 9.60828 21.9735C9.62576 21.9266 9.6447 21.8797 9.66364 21.8329C9.69641 21.7509 9.73137 21.6696 9.76779 21.5883C9.77798 21.5656 9.78818 21.5422 9.7991 21.5195C9.81513 21.4836 9.83188 21.4477 9.84936 21.4126C9.87048 21.3672 9.89306 21.3225 9.91564 21.2779C9.9251 21.2588 9.93457 21.2398 9.94404 21.2215C9.96006 21.19 9.97682 21.1585 9.99357 21.127C10.0227 21.0721 10.0533 21.0179 10.0839 20.9637C10.1035 20.9293 10.1239 20.8942 10.1443 20.8598C10.1669 20.8217 10.1895 20.7844 10.2135 20.747C10.325 20.5662 10.4466 20.3882 10.5791 20.214C10.6032 20.1832 10.6265 20.1525 10.6512 20.1217C10.6767 20.088 10.7037 20.0551 10.7306 20.0221C10.7386 20.0126 10.7459 20.0031 10.7547 19.9936C10.7772 19.9657 10.8013 19.9379 10.8253 19.9094C10.9215 19.7973 11.0234 19.686 11.1305 19.5769C11.1487 19.5579 11.1669 19.5396 11.1858 19.5213C11.3402 19.3668 11.5056 19.2167 11.6826 19.0717C11.8224 18.9567 11.5012 18.8806 11.4276 18.8652C11.4182 18.863 11.4131 18.8623 11.4131 18.8623C11.3643 18.8023 11.3126 18.7437 11.2587 18.6851L11.2346 18.6587C11.1603 18.5797 11.0802 18.4977 10.9972 18.4142C10.7925 18.2062 10.5762 17.9873 10.3796 17.7208C10.3606 17.6951 10.3417 17.6688 10.3235 17.6424C10.3046 17.6161 10.2864 17.589 10.2681 17.5611C10.2521 17.537 10.2361 17.5121 10.2208 17.4865C10.2121 17.4733 10.2041 17.4608 10.196 17.4469C10.1502 17.37 10.1057 17.2895 10.0635 17.2038C10.0482 17.1716 10.0322 17.1394 10.0176 17.1057C10.0038 17.0757 9.99065 17.0449 9.97682 17.0135C9.97536 17.0105 9.97463 17.0069 9.97317 17.0039C9.95934 16.9688 9.9455 16.9336 9.93166 16.897C9.90544 16.8267 9.88068 16.7535 9.8581 16.6774C9.84353 16.6268 9.82897 16.5763 9.81658 16.5236C9.81003 16.4994 9.8042 16.4753 9.7991 16.4504C9.78672 16.4006 9.77653 16.3493 9.76633 16.2973C9.75103 16.2146 9.7372 16.1319 9.72554 16.0477C9.44077 13.9901 10.4007 11.7584 11.6199 9.82312C11.7452 9.62469 11.877 9.42406 12.0147 9.22051C12.5048 8.49561 13.019 7.82271 13.499 7.23108C13.6701 7.01947 13.8471 6.80567 14.0299 6.58966C14.1632 6.43224 14.5186 6.03611 14.9935 5.5609C15.0394 5.51477 15.0867 5.46718 15.1355 5.41959C15.145 5.41007 15.1552 5.39982 15.1654 5.3903C15.1916 5.36394 15.2186 5.33758 15.2462 5.31122C15.4261 5.13622 15.6184 4.95463 15.8187 4.7745C15.8435 4.75181 15.8682 4.72911 15.8937 4.70714C15.9418 4.66394 15.9906 4.62074 16.0394 4.57827L16.1333 4.497C16.2258 4.41718 16.3154 4.34177 16.4036 4.27001C16.4443 4.23633 16.4844 4.20411 16.5237 4.17263C16.5601 4.14334 16.5958 4.11478 16.6315 4.08696C16.7182 4.01886 16.8027 3.95443 16.8842 3.89365C16.9425 3.85045 17.0008 3.80872 17.059 3.76698C17.0605 3.76625 17.062 3.76478 17.0634 3.76405C17.6825 3.32545 18.2979 3.00108 18.8056 2.95495C18.834 2.95203 18.8616 2.94983 18.8879 2.9491C18.9243 2.9491 18.9592 2.9491 18.992 2.94983C19.0466 2.95276 19.0962 2.95862 19.1413 2.96813C19.161 2.9718 19.1799 2.97619 19.1989 2.98131C19.2418 2.9923 19.2833 3.00621 19.3234 3.02232C19.3358 3.02671 19.3482 3.03184 19.3605 3.03769C20.3569 3.47116 20.5091 5.33977 20.4916 6.3495V6.36707C20.4887 6.5201 20.4822 6.65336 20.4742 6.75734C20.6176 6.75221 20.7691 6.75441 20.925 6.7632H20.9396L21.035 6.77198C21.0918 6.77638 21.1493 6.78223 21.2061 6.78809C21.3183 6.79981 21.4326 6.81518 21.5477 6.83495C21.5514 6.83569 21.5543 6.83569 21.5579 6.83642C21.6038 6.84447 21.6497 6.85253 21.6948 6.86131C21.7706 6.87523 21.8463 6.8906 21.9206 6.90817C21.9585 6.91623 21.9964 6.92502 22.0335 6.93453C22.0575 6.93966 22.0808 6.94625 22.1041 6.95284C22.2141 6.98066 22.3241 7.01215 22.4326 7.04656C22.5055 7.06926 22.5776 7.09342 22.6497 7.11905C22.6854 7.13223 22.721 7.14541 22.7567 7.15859C22.8281 7.18568 22.8988 7.21424 22.9687 7.24353C23.0036 7.25817 23.0379 7.27355 23.0728 7.28893C23.142 7.31968 23.2097 7.3519 23.2768 7.38558C23.3773 7.4361 23.4756 7.48955 23.571 7.54593C23.5739 7.5474 23.5761 7.54886 23.579 7.55033C23.7028 7.62501 23.8215 7.70409 23.9337 7.7883C23.9956 7.73191 24.0735 7.66089 24.166 7.57815C24.2126 7.53715 24.2622 7.49321 24.3153 7.44708C24.3336 7.43024 24.3518 7.41413 24.37 7.39949C25.024 6.83202 26.123 5.94312 27.1966 5.40128C27.2199 5.38883 27.2425 5.37785 27.2651 5.36687C28.0283 4.99124 28.7741 4.79867 29.3306 5.03005C29.3553 5.0403 29.3794 5.05128 29.4034 5.063C29.4056 5.06446 29.4085 5.06519 29.4107 5.06666C29.4347 5.07837 29.458 5.09155 29.4814 5.10547C29.4952 5.11352 29.509 5.12231 29.5221 5.13109C29.5491 5.14867 29.5753 5.1677 29.6008 5.18747H29.6015C29.627 5.20798 29.6518 5.22921 29.6758 5.25118H29.6765C29.6889 5.26289 29.7013 5.27461 29.7122 5.28632C29.7486 5.32147 29.7829 5.35881 29.8157 5.39908C30.5615 6.29897 30.6321 8.37919 30.5578 10.1343V10.1416C30.5534 10.2368 30.5491 10.3313 30.5447 10.4243C30.5367 10.5824 30.5272 10.7369 30.5178 10.8863C30.5141 10.9463 30.5105 11.0049 30.5061 11.0628C30.4966 11.2077 30.4864 11.3469 30.4762 11.4787C30.4726 11.524 30.469 11.568 30.4653 11.6119C30.4588 11.7027 30.4515 11.7898 30.4449 11.8719C30.4413 11.9107 30.4384 11.9495 30.4355 11.9868L30.4289 12.0644L30.4304 12.0717L30.4355 12.1018C30.4376 12.1127 30.4398 12.1259 30.4427 12.1406C30.4449 12.1523 30.4471 12.1647 30.4493 12.1786C30.4529 12.1999 30.4573 12.224 30.4624 12.2511C30.4653 12.2643 30.4675 12.279 30.4704 12.2936C30.4792 12.3419 30.4894 12.3983 30.5017 12.4605C30.5054 12.4774 30.5083 12.4957 30.5119 12.5147C30.5221 12.5704 30.5338 12.6304 30.5469 12.6949C30.5513 12.7176 30.5564 12.7417 30.5607 12.7659C30.5753 12.8391 30.5906 12.9167 30.6073 12.998C30.6124 13.0258 30.6183 13.0536 30.6241 13.0815C30.627 13.0939 30.6299 13.1071 30.6321 13.1195C30.6408 13.1642 30.6503 13.2096 30.6605 13.2565C30.6678 13.2916 30.6758 13.3275 30.6831 13.3641C30.6947 13.4205 30.7071 13.4783 30.7202 13.5369C30.7275 13.5699 30.7341 13.6028 30.7414 13.6372C30.7537 13.6936 30.7661 13.7514 30.78 13.81C30.8812 14.2691 31.0035 14.7883 31.1441 15.3301C31.1754 15.4509 31.2082 15.5732 31.2417 15.6962C31.2417 15.6977 31.2424 15.6984 31.2424 15.6999C31.2614 15.7716 31.281 15.8434 31.3014 15.9159C31.3233 15.9927 31.3451 16.0696 31.367 16.1472C31.3881 16.2227 31.41 16.2973 31.4325 16.3728C31.4522 16.4401 31.4726 16.5082 31.493 16.5756C31.4959 16.5836 31.4981 16.5917 31.5003 16.599C31.5192 16.662 31.5381 16.725 31.5585 16.7879C31.5753 16.8421 31.592 16.8963 31.6095 16.9498C31.6226 16.9915 31.6357 17.0325 31.6496 17.0742C31.7435 17.3635 31.8418 17.6468 31.9445 17.9207C31.97 17.9888 31.9984 18.0605 32.029 18.1345C32.0487 18.1806 32.0691 18.2275 32.0902 18.2758C32.1011 18.3007 32.1121 18.3263 32.1237 18.3519L32.1543 18.42C32.1579 18.4266 32.1609 18.4339 32.1645 18.442C32.1987 18.516 32.2344 18.5921 32.2723 18.6697C32.2854 18.6968 32.2985 18.7246 32.3131 18.7525C32.34 18.8081 32.3684 18.8645 32.3976 18.9216C32.4405 19.0065 32.4857 19.0937 32.5323 19.1815C32.6299 19.3683 32.7348 19.5594 32.8448 19.7534C33.4718 20.8627 34.246 22.0408 34.7967 22.7423C34.887 22.858 34.9729 22.9612 35.0516 23.0506C35.0844 23.0872 35.1164 23.1245 35.1477 23.1618C35.1798 23.1992 35.2111 23.2365 35.2417 23.2739C35.2723 23.3112 35.3028 23.3493 35.3327 23.3874C35.3633 23.4262 35.3939 23.465 35.423 23.5038C35.4507 23.5397 35.4776 23.5763 35.5046 23.6129C35.5206 23.6349 35.5374 23.6568 35.5527 23.6795C35.5767 23.7117 35.6 23.7447 35.6226 23.7776C35.6291 23.7872 35.6357 23.7967 35.6422 23.8062C35.6648 23.8391 35.6874 23.8714 35.7093 23.9043C35.9467 24.2594 36.1521 24.6241 36.3291 24.9917C36.3451 25.0246 36.3604 25.0576 36.3757 25.0905C36.466 25.2823 36.5483 25.4749 36.6233 25.6675C36.6386 25.7063 36.6539 25.7458 36.6685 25.7846C36.6838 25.8249 36.699 25.8659 36.7136 25.9062C36.7296 25.9494 36.7449 25.9926 36.7602 26.0365C36.7733 26.0739 36.7864 26.1112 36.7988 26.1485C36.8265 26.2291 36.852 26.3096 36.8775 26.3902C36.9022 26.4693 36.9263 26.5483 36.9481 26.6267C36.9496 26.6325 36.951 26.6384 36.9532 26.6435C36.986 26.7563 37.0159 26.8683 37.0435 26.9789C37.3057 28.0076 37.3866 28.9061 37.4121 29.4472C37.4128 29.4706 37.4143 29.4933 37.4157 29.516C37.4179 29.5738 37.4201 29.6295 37.4215 29.6822C37.4223 29.7108 37.423 29.7379 37.4237 29.7628V29.7737C37.4237 29.7884 37.4237 29.8016 37.4237 29.814C37.4237 29.8265 37.4245 29.8382 37.4245 29.8499C37.4245 29.9026 37.4259 29.9561 37.4259 30.0088H37.4266Z" fill="#FBD28F"/>
<path d="M10.5239 13.4615C9.71837 13.4615 8.017 13.2455 6.73734 12.4027C6.54652 12.2775 6.49335 12.0198 6.61862 11.8287C6.74389 11.6368 6.99953 11.5834 7.18963 11.7093C8.3513 12.4745 9.92813 12.648 10.5989 12.6312C10.8254 12.6246 11.0155 12.8076 11.0206 13.0361C11.0257 13.2653 10.8451 13.4549 10.6179 13.46C10.588 13.46 10.5567 13.4608 10.5239 13.4608V13.4615Z" fill="#524A44"/>
<path d="M11.9394 12.4305C11.9008 12.4305 11.8615 12.4246 11.8222 12.4137C10.9569 12.1567 9.04652 11.3271 8.01302 10.0303C7.87027 9.85165 7.89941 9.59025 8.07712 9.44747C8.25483 9.30395 8.51484 9.33324 8.65686 9.5119C9.56217 10.6483 11.2766 11.3871 12.056 11.6185C12.2745 11.6836 12.399 11.9143 12.3349 12.134C12.2817 12.3141 12.1171 12.4312 11.9394 12.4312V12.4305Z" fill="#524A44"/>
<path d="M24.2425 17.5687C24.6708 15.4134 22.554 13.1712 19.5144 12.5606C16.4748 11.95 13.6635 13.2022 13.2351 15.3575C12.8067 17.5127 14.9235 19.7549 17.9631 20.3655C21.0027 20.9761 23.8141 19.7239 24.2425 17.5687Z" fill="white"/>
<path d="M22.5192 10.0685C22.4733 10.0685 22.4267 10.0641 22.3793 10.0545C21.9955 9.97766 21.7464 9.60203 21.8229 9.21616C22.0144 8.2511 22.7639 7.0283 22.7959 6.97705C23.002 6.64243 23.4398 6.53918 23.7719 6.7464C24.1047 6.95362 24.2074 7.39295 24.0013 7.72757C23.7522 8.13102 23.3181 8.96794 23.2133 9.49513C23.1462 9.83414 22.8498 10.0685 22.5192 10.0685Z" fill="#E6B86E"/>
<path d="M20.2113 9.58C20.1654 9.58 20.1188 9.57561 20.0715 9.56609C19.6876 9.48921 19.4385 9.11358 19.515 8.7277C19.7095 7.75093 20.5412 6.5933 20.6352 6.46443C20.8675 6.14738 21.3111 6.08002 21.6264 6.31286C21.9418 6.54644 22.0095 6.99236 21.7772 7.30941C21.4931 7.69675 21.0059 8.50072 20.9054 9.00741C20.8384 9.34643 20.542 9.58073 20.2113 9.58073V9.58Z" fill="#E6B86E"/>
<path d="M32.812 16.7676C31.4493 16.8934 30.0711 16.5265 29.4632 16.2804C29.2519 16.1948 29.1492 15.9528 29.2341 15.7405C29.3191 15.5283 29.559 15.4252 29.771 15.5108C30.3941 15.7636 31.9302 16.1608 33.2852 15.8562C33.5067 15.8071 33.728 15.947 33.778 16.171C33.8279 16.3944 33.6882 16.6161 33.4653 16.6661C33.2504 16.7146 33.031 16.7474 32.8113 16.7677L32.812 16.7676Z" fill="#524A44"/>
<path d="M31.0118 14.9949C30.2354 15.0704 29.5313 15.0462 29.1006 14.9961C28.8741 14.9696 28.7121 14.7639 28.7383 14.5362C28.7644 14.3086 28.9696 14.1459 29.1954 14.1725C30.0029 14.2669 31.8679 14.2642 33.1437 13.5759C33.3447 13.4673 33.595 13.5438 33.7024 13.7452C33.8106 13.9473 33.7349 14.1989 33.5346 14.3067C32.7781 14.715 31.852 14.9132 31.0118 14.9949Z" fill="#524A44"/>
<path d="M20.3594 13.8867C20.2042 13.8399 20.0579 13.771 19.9231 13.6832C19.7636 13.5792 19.6252 13.4489 19.5072 13.298C19.5684 13.2841 19.6296 13.2614 19.6886 13.227C19.8139 13.1531 19.9064 13.044 19.9362 12.9349C19.9501 12.8821 19.9486 12.8331 19.9304 12.7877C19.9136 12.7452 19.8831 12.7057 19.8386 12.6698C19.7607 12.6068 19.6383 12.5519 19.4745 12.5072C19.3106 12.4626 19.1773 12.4472 19.079 12.4626C19.0222 12.4714 18.9756 12.4897 18.9406 12.5175C18.9027 12.5475 18.8758 12.5892 18.8619 12.6412C18.8328 12.7503 18.8576 12.8917 18.929 13.0191C18.9683 13.0894 19.0171 13.1487 19.0739 13.1948C18.9544 13.2438 18.8314 13.2819 18.7061 13.3076C18.4745 13.3551 18.2363 13.3625 17.9989 13.3295C17.8692 13.3119 17.7505 13.402 17.7323 13.5323C17.7141 13.6627 17.8044 13.782 17.9341 13.8003C18.2247 13.8406 18.5167 13.8318 18.8015 13.7732C18.934 13.7461 19.0637 13.7081 19.1904 13.6597C19.3281 13.823 19.4883 13.9643 19.6667 14.0808C19.8386 14.1928 20.0258 14.2799 20.2232 14.34C20.2458 14.3466 20.2691 14.3502 20.2916 14.3502C20.3929 14.3502 20.4868 14.2843 20.5174 14.1818C20.5553 14.0559 20.4847 13.9233 20.3594 13.8853V13.8867Z" fill="#524A44"/>
<path d="M23.5837 13.9359C22.1882 13.9359 21.3033 13.047 21.2661 13.0089C21.1066 12.8456 21.1088 12.5828 21.2712 12.4224C21.4337 12.2621 21.6951 12.2642 21.8546 12.4275C21.8597 12.4327 22.5436 13.1063 23.5837 13.1063C23.8116 13.1063 23.9966 13.2923 23.9966 13.5215C23.9966 13.7506 23.8116 13.9366 23.5837 13.9366V13.9359Z" fill="#524A44"/>
<path d="M15.2504 11.9978C16.4747 12.6707 17.6757 12.3178 17.7259 12.3024C17.9437 12.2358 18.0675 12.0044 18.0012 11.7855C17.935 11.5658 17.7048 11.4421 17.487 11.5087C17.4798 11.5109 16.5584 11.7716 15.6458 11.27C15.4455 11.1602 15.195 11.2341 15.0858 11.4347C14.9765 11.6354 15.0501 11.888 15.2496 11.9978H15.2504Z" fill="#524A44"/>
<path d="M38.4285 32.007C38.4117 32.1 38.3935 32.193 38.3746 32.286C38.3506 32.4017 38.2945 32.5027 38.218 32.5811C38.1058 32.6968 37.9493 32.7641 37.7825 32.7605C37.7475 32.7597 37.7118 32.7553 37.6761 32.748C37.3739 32.685 37.1743 32.4017 37.2086 32.0993C37.237 31.9645 37.2624 31.8284 37.285 31.69C37.3295 31.4308 37.3637 31.1657 37.387 30.894C37.395 30.8098 37.4016 30.7256 37.4067 30.64C37.4096 30.5851 37.4125 30.5301 37.4154 30.4745C37.4176 30.4437 37.419 30.4123 37.4198 30.3815C37.4212 30.339 37.4227 30.2966 37.4234 30.2534C37.4249 30.227 37.4249 30.2006 37.4249 30.1743C37.4263 30.1194 37.4271 30.0637 37.4271 30.0088C37.4271 29.9539 37.4263 29.9026 37.4256 29.8499C37.4256 29.8382 37.4249 29.8265 37.4249 29.814C37.4249 29.8009 37.4249 29.7877 37.4249 29.7738V29.7628C37.4241 29.7379 37.4234 29.7108 37.4227 29.6822C37.4212 29.6295 37.419 29.5739 37.4169 29.516C37.4161 29.4941 37.4147 29.4706 37.4132 29.4472C37.3877 28.9061 37.3069 28.0077 37.0447 26.9789C37.017 26.8683 36.9871 26.7563 36.9544 26.6435C36.9522 26.6384 36.9507 26.6326 36.9493 26.6267C36.9274 26.5484 36.9034 26.4693 36.8786 26.3902C36.8531 26.3097 36.8276 26.2291 36.8 26.1486C36.7876 26.1112 36.7752 26.0739 36.7614 26.0365C36.7461 25.9926 36.7308 25.9494 36.7147 25.9062C36.7009 25.8659 36.6856 25.8257 36.6696 25.7847C36.655 25.7459 36.6405 25.707 36.6244 25.6675C36.5494 25.4749 36.4671 25.2824 36.3768 25.0905C36.3615 25.0576 36.3462 25.0246 36.3302 24.9917C36.1532 24.6241 35.9478 24.2595 35.7104 23.9043C35.6885 23.8714 35.666 23.8392 35.6434 23.8062C35.6368 23.7967 35.6303 23.7872 35.6237 23.7777C35.6011 23.7447 35.5778 23.7118 35.5538 23.6795C35.5385 23.6569 35.5218 23.6349 35.5057 23.6129C35.4788 23.5763 35.4518 23.5397 35.4242 23.5038C35.395 23.465 35.3644 23.4262 35.3338 23.3874C35.304 23.3493 35.2734 23.3112 35.2428 23.2739C35.2122 23.2366 35.1809 23.1992 35.1489 23.1619C35.1175 23.1245 35.0855 23.0872 35.0527 23.0506C34.9741 22.9612 34.8881 22.858 34.7978 22.7423C34.2472 22.0409 33.473 20.8627 32.8459 19.7534C32.7359 19.5594 32.631 19.3683 32.5334 19.1816C32.4868 19.0937 32.4417 19.0066 32.3987 18.9216C32.3696 18.8645 32.3412 18.8081 32.3142 18.7525C32.3004 18.7247 32.2873 18.6976 32.2734 18.6697C32.2363 18.5921 32.1999 18.516 32.1656 18.442C32.162 18.434 32.1591 18.4267 32.1554 18.4201C32.1452 18.3966 32.135 18.3739 32.1248 18.352C32.1132 18.3263 32.1023 18.3007 32.0913 18.2758C32.0702 18.2275 32.0498 18.1806 32.0302 18.1345C31.9996 18.0605 31.9712 17.9888 31.9457 17.9207C31.843 17.6468 31.7447 17.3635 31.6507 17.0743C31.6369 17.0325 31.6238 16.9915 31.6106 16.9498C31.5932 16.8963 31.5764 16.8421 31.5597 16.788C31.54 16.725 31.5203 16.662 31.5014 16.599C31.4992 16.5917 31.497 16.5837 31.4941 16.5756C31.4737 16.5083 31.4541 16.4409 31.4337 16.3728C31.4118 16.2974 31.39 16.222 31.3681 16.1473C31.3463 16.0697 31.3244 15.9928 31.3026 15.9159C31.2829 15.8434 31.2632 15.7716 31.2436 15.6999C31.2436 15.6984 31.2428 15.6977 31.2428 15.6962C31.2093 15.5732 31.1766 15.4509 31.1453 15.3301C31.0047 14.7883 30.8823 14.2691 30.7811 13.81C30.768 13.7515 30.7549 13.6936 30.7425 13.6372C30.7352 13.6028 30.7286 13.5699 30.7214 13.5369C30.7083 13.4776 30.6959 13.4205 30.6842 13.3641C30.6769 13.3275 30.6689 13.2916 30.6616 13.2565C30.6522 13.2096 30.6427 13.1642 30.6332 13.1196C30.6311 13.1071 30.6281 13.0939 30.6252 13.0815C30.6201 13.0529 30.6143 13.0251 30.6085 12.998C30.5917 12.916 30.5764 12.8384 30.5619 12.7659C30.5575 12.7417 30.5524 12.7176 30.548 12.6949C30.5356 12.6305 30.524 12.5704 30.5131 12.5148C30.5094 12.4957 30.5065 12.4774 30.5029 12.4606C30.4912 12.3983 30.481 12.3427 30.4716 12.2936C30.4686 12.279 30.4665 12.2643 30.4635 12.2512C30.4592 12.2248 30.4548 12.2006 30.4504 12.1787C30.4482 12.1648 30.4461 12.1523 30.4439 12.1406L30.4366 12.1018L30.4315 12.0718C30.4308 12.0681 30.43 12.0659 30.43 12.0644L30.4366 11.9868C30.4395 11.9495 30.4431 11.9114 30.4461 11.8719C30.4526 11.7899 30.4599 11.7027 30.4665 11.6119C30.4701 11.5687 30.4737 11.5241 30.4774 11.4787C30.4876 11.3469 30.4978 11.2078 30.5072 11.0628C30.5116 11.0049 30.5152 10.9456 30.5189 10.8863C30.5284 10.7369 30.5378 10.5824 30.5458 10.4243C30.5509 10.3313 30.5553 10.2368 30.5589 10.1417V10.1343C30.6332 8.37922 30.5626 6.299 29.8168 5.39911C29.784 5.35884 29.7498 5.3215 29.7134 5.28635C29.7024 5.27463 29.6901 5.26292 29.6777 5.25194H29.6769C29.6529 5.22924 29.6281 5.208 29.6027 5.18823H29.6019C29.5764 5.16773 29.5502 5.14869 29.5233 5.13112C29.5102 5.12233 29.4963 5.11355 29.4825 5.10549C29.4592 5.09158 29.4359 5.07913 29.4118 5.06669C29.4097 5.06522 29.4067 5.06449 29.4046 5.06302C29.3805 5.05131 29.3565 5.04033 29.3317 5.03008C28.7753 4.7987 28.0295 4.99127 27.2662 5.36689C27.2436 5.37788 27.2203 5.38959 27.1977 5.40131C26.3784 5.80915 25.4221 6.48205 24.3711 7.39952C24.3529 7.41416 24.3347 7.43027 24.3165 7.44711C24.3012 7.45956 24.2866 7.47274 24.2713 7.48592L24.1672 7.57818L23.9487 7.77075L23.5801 7.55035C23.5801 7.55035 23.575 7.54742 23.5721 7.54596C23.4782 7.48958 23.3799 7.43613 23.2779 7.38561C23.2116 7.35119 23.1431 7.31897 23.074 7.28895C23.0397 7.27284 23.0048 7.25747 22.9698 7.24356C22.9006 7.2128 22.83 7.18498 22.7579 7.15862C22.7229 7.14397 22.6872 7.13079 22.6508 7.11908C22.5794 7.09272 22.5073 7.06856 22.4338 7.04659C22.326 7.01144 22.2167 6.98069 22.1053 6.95287C22.082 6.94628 22.0587 6.93969 22.0346 6.93456C21.9968 6.92578 21.9596 6.91626 21.9217 6.9082C21.8475 6.89063 21.7717 6.87525 21.696 6.86134C21.6501 6.85255 21.6042 6.84377 21.559 6.83645C21.5554 6.83571 21.5525 6.83571 21.5488 6.83498C21.4338 6.81521 21.3194 6.79983 21.2073 6.78812C21.1169 6.77787 21.0281 6.76981 20.9407 6.76396H20.9261L20.495 6.72808L20.4928 6.3671V6.34952C20.5103 5.3398 20.358 3.47119 19.3617 3.03772C19.3493 3.03187 19.3369 3.02674 19.3245 3.02235C19.2845 3.00624 19.243 2.99233 19.2 2.98134C19.1811 2.97622 19.1621 2.97182 19.1425 2.96816C19.0973 2.95864 19.0478 2.95279 18.9932 2.94986C18.9589 2.94766 18.9247 2.94766 18.889 2.94912C18.318 2.9667 17.5977 3.36502 16.8854 3.89368C16.8038 3.95445 16.7193 4.01889 16.6327 4.08698C16.597 4.11481 16.5606 4.14337 16.5249 4.17265C16.4848 4.20414 16.4447 4.23636 16.4047 4.27004C16.3166 4.34179 16.227 4.41721 16.1345 4.49702L16.0405 4.5783C15.9917 4.62077 15.9429 4.66397 15.8949 4.70717C15.8694 4.72914 15.8446 4.75183 15.8198 4.77453C15.6196 4.95466 15.4273 5.13625 15.2474 5.31125C15.2204 5.3376 15.1935 5.36396 15.1665 5.39032C15.1563 5.39984 15.1461 5.41009 15.1367 5.41961C15.0879 5.46721 15.0405 5.51407 14.9947 5.56093C14.5198 6.03614 14.1644 6.43226 14.0311 6.58969C13.8483 6.80569 13.6713 7.0195 13.5001 7.23111C13.0202 7.82274 12.506 8.49564 12.0158 9.22053C11.8782 9.42409 11.7463 9.62471 11.6211 9.82314C10.1018 12.2233 9.47832 14.2787 9.72668 16.0477C9.73833 16.1319 9.75217 16.2146 9.76747 16.2974C9.77766 16.3494 9.78786 16.4006 9.80024 16.4504C9.80534 16.4753 9.81117 16.4995 9.81772 16.5236C9.8301 16.5763 9.84467 16.6269 9.85923 16.6774C9.88181 16.7535 9.90658 16.8268 9.9328 16.8971C9.94591 16.9337 9.95974 16.9688 9.97431 17.004C9.97577 17.0069 9.97649 17.0106 9.97795 17.0135C9.99106 17.045 10.0042 17.0757 10.0187 17.1057C10.0333 17.1394 10.0486 17.1716 10.0646 17.2039C10.1061 17.2895 10.1506 17.3701 10.1972 17.4469C10.2052 17.4609 10.2132 17.4733 10.2219 17.4865C10.2372 17.5121 10.2533 17.537 10.2693 17.5612C10.2875 17.589 10.3057 17.6161 10.3246 17.6425C10.3428 17.6695 10.3618 17.6952 10.3807 17.7208C10.5774 17.9873 10.7937 18.2063 10.9983 18.4142C11.0814 18.4977 11.1615 18.5797 11.2358 18.6588L11.2598 18.6851C11.3137 18.7437 11.3654 18.8023 11.4142 18.8623C11.4142 18.8623 11.4193 18.863 11.4288 18.8652L11.6312 19.0827L11.2183 19.4898C11.2081 19.5001 11.1972 19.5103 11.187 19.5213C11.168 19.5396 11.1498 19.5579 11.1316 19.577C11.0246 19.6861 10.9226 19.7974 10.8264 19.9094C10.8024 19.9372 10.7784 19.965 10.7558 19.9936C10.7471 20.0031 10.7398 20.0126 10.7318 20.0221C10.7048 20.0551 10.6779 20.088 10.6524 20.1217C10.6276 20.1525 10.6036 20.1832 10.5803 20.214C10.4477 20.3882 10.3261 20.5662 10.2147 20.747C10.1906 20.7844 10.168 20.8217 10.1455 20.8591C10.1251 20.8942 10.1047 20.9286 10.085 20.9638C10.0544 21.018 10.0238 21.0721 9.9947 21.1271C9.97795 21.1585 9.9612 21.19 9.94518 21.2215C9.93571 21.2398 9.92624 21.2589 9.91677 21.2779C9.89347 21.3226 9.87162 21.3672 9.85049 21.4126C9.83301 21.4478 9.81626 21.4836 9.80024 21.5195C9.78932 21.5422 9.77912 21.5656 9.76892 21.5883C9.73251 21.6696 9.69755 21.7509 9.66477 21.8329C9.64511 21.8798 9.6269 21.9266 9.60942 21.9735C9.573 22.0679 9.53877 22.1617 9.50745 22.2561C9.47686 22.3455 9.44773 22.4348 9.42078 22.5234C9.41933 22.5285 9.41787 22.5336 9.41641 22.5388C9.40185 22.5864 9.38874 22.6332 9.37563 22.6801C9.36179 22.7269 9.34941 22.7738 9.33703 22.8207C9.32464 22.8661 9.31299 22.9107 9.30207 22.9561C9.27803 23.0513 9.25618 23.1465 9.23579 23.2417C9.22559 23.2878 9.21612 23.3347 9.20666 23.3815C9.19719 23.4277 9.18772 23.4745 9.17971 23.5207C9.17097 23.5668 9.16223 23.6136 9.15494 23.659C9.13892 23.7513 9.12435 23.8421 9.11125 23.9329C9.10469 23.9761 9.09814 24.0186 9.09304 24.061C9.08648 24.1086 9.07993 24.1562 9.07483 24.2031C9.069 24.2477 9.06318 24.2924 9.05881 24.3371C9.05371 24.381 9.04861 24.4249 9.04424 24.4689C9.0355 24.5575 9.02749 24.6446 9.0202 24.731C9.01292 24.8174 9.0071 24.9023 9.00127 24.9866C8.99836 25.0276 8.99617 25.0686 8.99398 25.1088C8.99034 25.1616 8.98816 25.2135 8.98525 25.2655C8.9816 25.3373 8.97869 25.409 8.97651 25.4786C8.97432 25.5233 8.97286 25.5679 8.97141 25.6119C8.96849 25.7092 8.96631 25.8052 8.96412 25.8982C8.96267 25.9604 8.96194 26.0212 8.96121 26.0812C8.96048 26.1413 8.95975 26.2006 8.95903 26.2584C8.9583 26.3162 8.95757 26.3734 8.95684 26.429C8.95684 26.459 8.95611 26.4891 8.95611 26.5183C8.95538 26.5777 8.95466 26.6355 8.95393 26.6926C8.9532 26.7212 8.9532 26.7497 8.95247 26.7775C8.95174 26.8054 8.95174 26.8325 8.95101 26.8596C8.94956 26.9408 8.94737 27.0192 8.94446 27.0924C8.94082 27.1737 8.93718 27.2689 8.93426 27.3772C8.93208 27.4292 8.93062 27.4841 8.92989 27.5427C8.92989 27.5705 8.92844 27.5991 8.92844 27.6284C8.92552 27.7792 8.92552 27.9484 8.92916 28.1321C8.92916 28.1556 8.92916 28.1797 8.93062 28.2039C8.93062 28.2515 8.93281 28.3005 8.93499 28.3503C8.93863 28.4609 8.94373 28.5751 8.95101 28.6945C9.02385 29.948 9.29114 31.5911 10.1141 33.3265C10.2023 33.5124 10.2962 33.6992 10.3975 33.8859C10.4288 33.9437 10.4601 34.0008 10.4921 34.0572C10.5235 34.1136 10.5555 34.17 10.5883 34.2256C10.6502 34.3325 10.7136 34.4372 10.7784 34.5397C10.7813 34.5441 10.7842 34.5485 10.7871 34.5529C10.8199 34.6064 10.8541 34.6598 10.8884 34.7118C10.9226 34.7645 10.9575 34.8165 10.9918 34.8678C12.1688 36.617 13.6378 37.7856 14.9094 38.5691C15.3246 38.8254 15.715 39.0392 16.0616 39.2149C16.1163 39.2427 16.1694 39.2698 16.2219 39.2955C16.5474 39.4573 16.8286 39.5847 17.0478 39.6835C17.1155 39.7143 17.184 39.7443 17.2525 39.7743C17.2998 39.7956 17.3471 39.8161 17.3952 39.8358C17.4899 39.8761 17.5846 39.9156 17.6807 39.9545C18.3508 40.2261 19.0485 40.4597 19.763 40.6545C19.728 40.7753 19.7018 40.8997 19.6829 41.0264C19.6421 41.3076 19.6421 41.588 19.6829 41.8611C18.5984 41.5792 17.5474 41.2124 16.5627 40.7665C15.1898 40.1456 11.5431 38.4959 9.35888 34.4526C7.59487 31.1869 7.7216 28.0684 7.76384 27.0433C7.7704 26.8661 7.77331 26.6479 7.7755 26.4166C7.79371 24.6827 7.82648 21.5393 9.98451 19.0725C9.46958 18.5387 8.84978 17.8028 8.60652 16.5192C8.05008 13.5831 9.5293 10.0831 13.1301 5.82087C13.3719 5.53457 14.3035 4.50874 15.3661 3.5942C17.0347 2.15833 18.3085 1.58867 19.3733 1.80321C20.7389 2.07706 21.5401 3.43605 21.6581 5.65026C22.4141 5.76668 23.1614 6.00099 23.8037 6.3217C26.5452 3.98228 28.6573 3.22956 30.0863 4.08479C31.8007 5.11062 31.9428 7.99188 31.6194 12.0059C31.7476 12.7066 32.272 15.4297 33.0498 17.5011C33.5225 18.7576 35.1481 21.3701 35.9354 22.2613C38.2836 24.917 38.5858 28.4404 38.6069 29.8323C38.6179 30.5543 38.5581 31.2843 38.4285 32.007Z" fill="#524A44"/>
<path d="M8.94995 28.6945C9.02351 29.9114 9.28717 31.5808 10.1131 33.3264C9.29008 31.5911 9.02278 29.948 8.94995 28.6945Z" fill="#524A44"/>
<path d="M11.4129 18.8624C11.3642 18.8023 11.3124 18.7438 11.2585 18.6852L11.4275 18.8653C11.418 18.8631 11.4129 18.8624 11.4129 18.8624Z" fill="#524A44"/>
<path d="M13.499 7.23108C12.9433 7.91863 12.4487 8.58128 12.0146 9.2205C12.5048 8.49561 13.019 7.82271 13.499 7.23108Z" fill="#524A44"/>
<path d="M14.9084 38.569C13.6367 37.7855 12.1677 36.6169 10.9907 34.8677C12.1721 36.6191 13.6527 37.7929 14.9084 38.569Z" fill="#524A44"/>
<path d="M18.8066 2.95483C18.425 2.99218 17.8671 3.19646 17.0645 3.76393C17.6835 3.32533 18.299 3.00096 18.8066 2.95483Z" fill="#524A44"/>
<path d="M17.064 3.76404C17.064 3.76404 17.0609 3.76635 17.0593 3.76712C17.0609 3.76635 17.0624 3.76481 17.064 3.76404Z" fill="#524A44"/>
<path d="M16.885 3.89352C16.9433 3.85032 17.0015 3.80858 17.0598 3.76685C17.003 3.80712 16.9447 3.84959 16.885 3.89352Z" fill="#524A44"/>
<path d="M18.888 2.9491C18.861 2.94983 18.8333 2.95276 18.8057 2.95495C18.8341 2.95203 18.8617 2.94983 18.888 2.9491Z" fill="#524A44"/>
<path d="M19.3611 3.0376C20.3574 3.47107 20.5097 5.33968 20.4922 6.3494V6.18245C20.4885 5.53445 20.3938 3.4945 19.3611 3.0376Z" fill="#524A44"/>
<path d="M21.2065 6.78808C21.1162 6.77783 21.0273 6.76977 20.9399 6.76392L21.0354 6.77197C21.0922 6.77636 21.1497 6.78222 21.2065 6.78808Z" fill="#524A44"/>
<path d="M21.5479 6.83495C21.4343 6.81591 21.3199 6.80053 21.2063 6.78809C21.3185 6.7998 21.4328 6.81518 21.5479 6.83495Z" fill="#524A44"/>
<path d="M27.2654 5.36691C28.0287 4.99128 28.7745 4.79871 29.3309 5.03009C28.8342 4.828 28.1277 4.94808 27.2654 5.36691Z" fill="#524A44"/>
<path d="M29.8157 5.39917C30.5615 6.29906 30.6321 8.37928 30.5578 10.1344C30.6292 8.40198 30.5615 6.30345 29.8157 5.39917Z" fill="#524A44"/>
<path d="M34.7971 22.7422C34.2312 22.0254 33.4636 20.8516 32.8452 19.7533C33.4723 20.8626 34.2465 22.0407 34.7971 22.7422Z" fill="#524A44"/>
<path d="M35.0484 37.7739C35.2064 37.9269 35.2611 38.1473 35.2108 38.3472C35.1868 38.4446 35.138 38.5361 35.0637 38.6137C32.7818 40.9949 29.5554 42.3458 25.7331 42.5194C25.4578 42.5318 25.1767 42.5384 24.897 42.5384C23.5955 42.5384 22.2699 42.4073 20.9742 42.1555C20.7769 42.1174 20.5802 42.0764 20.3843 42.0317C20.1491 41.979 19.9145 41.9226 19.6822 41.8611C19.6414 41.588 19.6414 41.3076 19.6822 41.0264C19.7011 40.8997 19.7274 40.7752 19.7623 40.6544C19.9327 40.7013 20.1039 40.7452 20.2758 40.787C20.4819 40.8382 20.6895 40.8851 20.8978 40.9283C21.7725 41.1121 22.664 41.238 23.5532 41.301C23.6195 41.3061 23.6851 41.3105 23.7514 41.3141C23.8176 41.3185 23.8846 41.3222 23.9516 41.3251C24.0063 41.3288 24.0616 41.331 24.117 41.3332C24.1956 41.3368 24.275 41.3398 24.3537 41.342C24.4433 41.3449 24.5321 41.3464 24.6217 41.3478C24.7055 41.3493 24.7885 41.35 24.8722 41.35H24.9087C24.9706 41.35 25.0317 41.3493 25.0937 41.3486C25.141 41.3486 25.1883 41.3478 25.2357 41.3464C25.275 41.3464 25.3136 41.3449 25.3529 41.3434C25.4148 41.3434 25.476 41.3405 25.5372 41.3376C25.5853 41.3368 25.6326 41.3346 25.68 41.3325C25.7877 41.3273 25.8955 41.3215 26.0026 41.3141C26.0041 41.3149 26.0062 41.3141 26.0077 41.3141C26.1126 41.3076 26.2167 41.2995 26.3202 41.2907C26.3791 41.2863 26.4381 41.2805 26.4979 41.2746C26.5969 41.2658 26.6967 41.2556 26.795 41.2439C26.964 41.2248 27.1315 41.2028 27.2976 41.178C27.3937 41.164 27.4884 41.1487 27.5831 41.1333C27.5867 41.1326 27.5911 41.1318 27.5954 41.1311C27.696 41.1143 27.7965 41.0959 27.8962 41.0776C27.8977 41.0776 27.8999 41.0762 27.9021 41.0762C28.0543 41.0469 28.2051 41.0154 28.3551 40.9825C28.4046 40.9707 28.4549 40.9598 28.5044 40.948C28.5088 40.9466 28.5131 40.9458 28.5182 40.9451C29.5692 40.6954 30.5488 40.333 31.4446 39.8614C32.0644 39.5371 32.6442 39.1592 33.1802 38.7324C33.3259 38.6159 33.4687 38.4959 33.6085 38.3714C33.61 38.3714 33.6114 38.3692 33.6129 38.3677C33.6806 38.3069 33.7483 38.2454 33.8146 38.1832C33.8787 38.1232 33.9413 38.0631 34.0033 38.0016C34.0171 37.9877 34.0309 37.9745 34.0448 37.9606C34.1016 37.9042 34.1577 37.8471 34.213 37.7893C34.4388 37.5535 34.8131 37.5462 35.0484 37.7739Z" fill="#524A44"/>
<path d="M36.9534 26.6436C36.9861 26.7563 37.016 26.8683 37.0437 26.9789C37.0153 26.8683 36.9854 26.7563 36.9534 26.6436Z" fill="#524A44"/>
<path d="M37.0439 26.9789C37.3061 28.0076 37.387 28.9061 37.4125 29.4472C37.3812 28.8241 37.2894 27.9469 37.0439 26.9789Z" fill="#524A44"/>
<path d="M37.2842 31.6891C37.3287 31.4248 37.3629 31.1597 37.3869 30.8939C37.3636 31.1656 37.3294 31.4306 37.285 31.6898C37.2624 31.8282 37.2369 31.9644 37.2085 32.0991C37.2107 32.0816 37.2136 32.064 37.2172 32.0457C37.2413 31.9271 37.2638 31.8085 37.2842 31.6891Z" fill="#524A44"/>
<path d="M29.7415 18.4617C28.4742 17.0404 26.732 16.2006 24.8362 16.0959C22.6476 15.9773 20.5347 16.8757 19.0992 18.5239L18.9179 18.7326C18.8712 18.786 18.8457 18.8556 18.8457 18.9266L18.8472 19.2041C18.8472 19.27 18.8508 19.3374 18.8581 19.4055C17.7256 19.2012 16.5246 19.0892 15.2828 19.0709C15.1684 19.0672 15.0555 19.0657 14.9456 19.0657H14.8844H14.7846C14.7744 19.0657 14.762 19.0657 14.7511 19.0679C14.3651 19.0745 13.9769 19.1009 13.5931 19.147C13.545 18.9442 13.4525 18.7611 13.3163 18.5993C13.2559 18.5261 13.1867 18.4602 13.1116 18.4016L12.4256 17.7939C12.4015 17.7726 12.3739 17.7558 12.3454 17.7434C11.1641 16.8296 9.69581 16.3265 8.20128 16.3265C7.16269 16.3265 6.16489 16.5564 5.23627 17.0097C4.93183 17.1576 4.63613 17.3311 4.35573 17.5252C4.33825 17.5332 4.32223 17.5435 4.3062 17.5552L3.9872 17.7961C3.97773 17.8034 3.96826 17.8115 3.95952 17.821C3.94204 17.8349 3.92456 17.8495 3.90708 17.8634C3.88742 17.8744 3.86848 17.8876 3.85173 17.903L3.64416 18.0912C3.32515 18.3804 3.02872 18.7062 2.76434 19.0591C1.87651 20.2468 1.40747 21.6636 1.40747 23.1566C1.40747 24.2007 1.63616 25.2039 2.08773 26.1396L2.10011 26.1645C2.24869 26.4691 2.42276 26.7657 2.61576 27.0461L2.71554 27.216C2.76288 27.3134 2.82188 27.4042 2.8918 27.4869C3.04474 27.667 3.3033 27.8757 3.71189 27.9468C3.43804 28.9821 3.29966 30.0563 3.29966 31.1473C3.29966 34.3463 4.49338 37.3608 6.66015 39.6365C8.83493 41.9203 11.7329 43.1958 14.8181 43.2266C14.8604 43.2273 14.9033 43.2273 14.9456 43.2273C14.9696 43.2273 14.9936 43.2273 15.0155 43.2266H15.0446C15.0446 43.2266 15.0475 43.2266 15.0483 43.2266H15.0767C15.1437 43.2258 15.2114 43.2251 15.274 43.2229C20.443 43.149 23.3075 41.4627 23.8712 41.0951L23.9207 41.0709C23.9367 41.0629 23.952 41.0541 23.9666 41.0439C23.9804 41.0358 23.9935 41.0263 24.0052 41.0153C25.5536 40.1132 26.8631 38.7454 27.7939 37.0591C28.7684 35.2923 29.2841 33.248 29.2841 31.1473C29.2841 30.3096 29.2025 29.4778 29.0416 28.6709C29.0845 28.6431 29.1239 28.6138 29.1625 28.5801L29.1719 28.5713C30.5987 27.2973 31.4414 25.5392 31.5455 23.6223C31.649 21.7156 31.008 19.8829 29.74 18.4609L29.7415 18.4617Z" fill="#524A44"/>
<path d="M9.70577 23.3207L9.42027 22.9868C10.1617 22.3007 10.815 21.6132 11.3081 20.9952C11.933 20.2132 12.1267 19.7607 12.1668 19.5725C11.5943 19.5923 10.1355 20.3486 8.35983 21.7472C8.09982 21.9515 7.83398 22.1697 7.56232 22.401C7.2739 22.6471 6.99422 22.8967 6.7262 23.1464C6.0088 23.8142 5.37661 24.4827 4.89592 25.0846C4.27029 25.8666 4.07655 26.3191 4.03722 26.5073C4.60313 26.4875 6.03429 25.7487 7.78227 24.3817L8.06704 24.7148C5.94908 26.374 4.07 27.2973 3.66869 26.8229C3.63228 26.7797 3.60897 26.7262 3.59877 26.6632C3.49462 26.0372 4.65339 24.4747 6.4407 22.8133C6.70726 22.565 6.98767 22.3154 7.27972 22.0657C7.54702 21.838 7.81286 21.6198 8.07506 21.4133C10.0306 19.872 11.7932 18.9494 12.3947 19.1632C12.4523 19.1837 12.4996 19.2144 12.5346 19.2569C12.9388 19.7358 11.705 21.4726 9.70577 23.3207Z" fill="#F47A0A"/>
<path d="M6.72584 23.1464L7.78191 24.3816C6.03393 25.7486 4.60277 26.4875 4.03687 26.5072C4.07619 26.319 4.26993 25.8665 4.89556 25.0845C5.37625 24.4827 6.00844 23.8141 6.72584 23.1464Z" fill="#91432A"/>
<path d="M12.1668 19.5725C12.1268 19.7607 11.933 20.2132 11.3081 20.9952C10.815 21.6132 10.1617 22.3007 9.4203 22.9868L8.35986 21.7472C10.1355 20.3487 11.5944 19.5923 12.1668 19.5725Z" fill="#91432A"/>
<path d="M10.8423 24.6496L9.21452 26.0569L8.70323 25.4587L8.66245 25.4103L8.25531 24.9351L8.06668 24.7147L7.7819 24.3816L6.72583 23.1463C6.99385 22.8966 7.27353 22.647 7.56195 22.4009C7.83361 22.1696 8.09945 21.9514 8.35946 21.7471L9.4199 22.9867L9.70541 23.3206L9.88312 23.5278L10.2932 24.0067L10.3289 24.0491L10.8423 24.6496Z" fill="#F47A0A"/>
<path d="M12.3946 19.1632C11.7122 18.9208 9.53593 20.14 7.27958 22.0657C5.02688 23.9877 3.47919 25.9435 3.59863 26.6632C2.86302 25.6894 2.42676 24.4739 2.42676 23.1567C2.42676 21.8394 2.85501 20.6437 3.57897 19.6743C3.80183 19.377 4.05165 19.1009 4.32623 18.852H4.32696C4.45441 18.7348 4.58624 18.625 4.72389 18.521C4.72462 18.521 4.72535 18.5196 4.72535 18.5196C5.02251 18.294 5.34297 18.0963 5.68091 17.9316C6.44274 17.5596 7.29852 17.351 8.20092 17.351C9.85203 17.351 11.3429 18.0466 12.3946 19.1632Z" fill="#FF9636"/>
<path d="M14.9457 20.0901C14.9755 20.0901 15.0054 20.0908 15.0352 20.0916C14.9821 20.0916 14.9296 20.0908 14.8765 20.0908C14.8998 20.0908 14.9224 20.0908 14.9457 20.0908V20.0901Z" fill="#F47A0A"/>
<path d="M14.7859 20.0901C14.8165 20.0901 14.8456 20.0901 14.8762 20.0901C14.8638 20.0901 14.8507 20.0901 14.8383 20.0901C14.8208 20.0894 14.8034 20.0894 14.7859 20.0894V20.0901Z" fill="#F47A0A"/>
<path d="M28.2644 31.1472C28.2644 35.1356 26.2644 38.5807 23.3686 40.2003C23.3686 40.2003 23.3679 40.2011 23.3664 40.2018C23.3657 40.2025 23.365 40.2025 23.3643 40.2033C23.239 40.2911 20.4743 42.1766 15.0322 42.2015C16.6236 42.1883 18.1334 41.8112 19.4852 41.1463C23.0831 39.3744 25.5718 35.5625 25.5718 31.1472C25.5718 26.732 23.0839 22.9194 19.4867 21.1481C18.1349 20.4818 16.6273 20.1055 15.0351 20.0916C20.5172 20.1179 23.2812 22.0312 23.3664 22.0912C23.3679 22.092 23.3686 22.0927 23.3686 22.0927C26.2644 23.7131 28.2644 27.1581 28.2644 31.1472Z" fill="#F47A0A"/>
<path d="M30.5291 23.5667C30.4366 25.2625 29.6668 26.7599 28.4964 27.8055C28.4964 27.8055 28.4942 27.8077 28.4884 27.8106C28.3616 27.886 25.728 26.2151 23.4498 23.8296C22.0383 22.3519 19.8716 20.3669 19.8672 19.1998C21.0573 17.8335 22.838 17.0134 24.7819 17.1203C28.1395 17.3048 30.7141 20.1905 30.5306 23.5674L30.5291 23.5667Z" fill="#FF9636"/>
<path d="M25.5718 31.1472C25.5718 35.5625 23.0832 39.3744 19.4852 41.1463C18.1087 41.8236 16.569 42.2029 14.9456 42.2029C14.9099 42.2029 14.8742 42.2029 14.8385 42.2022C9.01922 42.1429 4.31934 37.2151 4.31934 31.1472C4.31934 25.0794 9.01922 20.1501 14.8385 20.0908C14.8742 20.0901 14.9099 20.0901 14.9456 20.0901C16.5705 20.0901 18.1094 20.4694 19.4867 21.1481C23.0839 22.9194 25.5718 26.7313 25.5718 31.1472Z" fill="#FF9636"/>
<path d="M23.329 31.6101C23.1098 36.6579 19.3057 40.6756 14.6452 40.6756C9.98463 40.6756 5.95117 36.4097 5.95117 31.1458C5.95117 25.882 9.84334 21.6168 14.6452 21.6168C19.447 21.6168 23.109 25.6345 23.329 30.6816C23.1083 26.1207 19.6641 22.4969 15.4485 22.4969C11.233 22.4969 7.55786 26.3696 7.55786 31.1451C7.55786 35.9206 11.0902 39.794 15.4485 39.794C19.8068 39.794 23.1083 36.1696 23.329 31.6086V31.6101Z" fill="#F47A0A"/>
<path d="M23.3293 31.1465C23.3293 31.2285 23.3286 31.3097 23.3264 31.391V31.3925C23.325 31.4657 23.3213 31.5382 23.3184 31.61C23.0904 36.1709 19.5289 39.7954 15.1692 39.7954C10.8094 39.7954 7.00903 35.9227 7.00903 31.1465C7.00903 26.3702 10.6623 22.4983 15.1692 22.4983C19.6761 22.4983 23.0912 26.122 23.3184 30.683C23.3213 30.7555 23.325 30.828 23.3264 30.9004V30.9019C23.3286 30.9832 23.3293 31.0645 23.3293 31.1465Z" fill="#F7F8FD"/>
<path d="M17.7914 30.2459H15.8912V28.3685C15.8912 27.7388 15.4098 27.1963 14.7834 27.167C14.1148 27.1355 13.5635 27.6707 13.5635 28.3356V31.3201C13.5635 32.0193 14.1272 32.5861 14.8228 32.5861H17.7914C18.4338 32.5861 18.9553 32.0625 18.9553 31.416C18.9553 30.7702 18.4345 30.2459 17.7914 30.2459Z" fill="#4B3A33"/>
<path d="M38.894 39.6602C38.1394 40.8097 36.473 42.3283 32.8175 43.0408C31.3791 43.3205 29.8198 43.4779 28.1745 43.5079C27.9771 43.5116 27.7783 43.5138 27.578 43.5138C25.8562 43.5138 24.0631 43.3776 22.2481 43.1089C21.806 43.043 21.4149 42.8087 21.1483 42.447C21.0799 42.3547 21.0216 42.2573 20.9743 42.1555C20.8359 41.859 20.7871 41.5288 20.8351 41.1971C20.849 41.1048 20.8694 41.0155 20.8978 40.9283C20.8978 40.9269 20.8978 40.9262 20.8985 40.9247C21.0041 40.593 21.2095 40.303 21.4935 40.0907C21.8526 39.8227 22.2947 39.7107 22.7368 39.7766C24.2903 40.0065 25.8293 40.128 27.3019 40.1412C28.7651 40.1544 30.1628 40.0614 31.4446 39.8615C31.4476 39.8615 31.4512 39.8615 31.4541 39.86C31.886 39.7934 32.3041 39.7143 32.7076 39.6228C33.6697 39.4053 34.5073 38.9777 35.2108 38.3473C35.5488 38.0442 35.8554 37.6942 36.1307 37.298C36.1445 37.2775 36.1555 37.2614 36.1642 37.2497C36.3565 36.9905 36.3033 36.6237 36.0447 36.4304C35.7869 36.2371 35.422 36.2905 35.2298 36.5504C35.2159 36.5687 35.1977 36.5951 35.1744 36.6281C35.0834 36.7599 34.9872 36.8851 34.8867 37.0037C34.8853 37.0066 34.8831 37.0088 34.8809 37.011C34.4592 37.5104 33.9596 37.8948 33.3885 38.1613C33.3856 37.4628 32.1089 36.5329 32.1868 36.4465C32.1868 36.4465 33.7287 35.3467 34.4388 33.9752C35.1496 32.6031 35.8918 30.6473 35.8918 30.6473C36.2487 30.8341 36.7454 31.2104 37.2844 31.6893H37.2851C37.2625 31.8284 37.237 31.9646 37.2086 32.0993C37.1744 32.4017 37.3739 32.6851 37.6762 32.7481C37.7119 32.7554 37.7476 32.7598 37.7825 32.7605C37.8044 32.8308 37.8401 32.8989 37.8896 32.9589C37.9034 32.9758 39.2865 34.6752 39.4992 35.9866C39.7337 37.4298 39.5247 38.7002 38.894 39.6602Z" fill="#FBD28F"/>
<path d="M39.8663 40.3057C38.9886 41.642 37.0921 43.4008 33.0397 44.1901C31.3551 44.5189 29.5175 44.6851 27.578 44.6851C25.7994 44.6851 23.9495 44.5445 22.0784 44.2677C21.3282 44.1565 20.6654 43.7581 20.2132 43.146C19.9291 42.7616 19.7492 42.3223 19.6822 41.861C19.6414 41.5878 19.6414 41.3074 19.6822 41.0262C19.7011 40.8996 19.7274 40.7751 19.7623 40.6543C19.7623 40.6528 19.7623 40.6513 19.7623 40.6506C19.9327 40.0517 20.2918 39.5281 20.7973 39.1503C21.4061 38.6956 22.1549 38.506 22.9058 38.6173C26.3886 39.1327 29.7782 39.0844 32.4512 38.4796C32.7826 38.4049 33.0943 38.2987 33.3878 38.1611C33.9588 37.8946 34.4585 37.5102 34.8802 37.0108C34.8823 37.0086 34.8845 37.0064 34.886 37.0035C34.9865 36.8848 35.0826 36.7596 35.1737 36.6278C35.197 36.5949 35.2152 36.5685 35.229 36.5502C35.4213 36.2903 35.7862 36.2368 36.044 36.4301C36.3026 36.6234 36.3557 36.9903 36.1635 37.2495C36.1547 37.2612 36.1438 37.2773 36.13 37.2978C35.8547 37.6939 35.548 38.0439 35.2101 38.3471C34.5065 38.9775 33.669 39.4051 32.7068 39.6226C32.3033 39.7141 31.8853 39.7932 31.4534 39.8598C31.4505 39.8613 31.4468 39.8613 31.4439 39.8613C30.1621 40.0612 28.7644 40.1542 27.3012 40.141C25.8285 40.1278 24.2896 40.0063 22.7361 39.7764C22.294 39.7105 21.8519 39.8225 21.4928 40.0905C21.2088 40.3028 21.0034 40.5928 20.8978 40.9245C20.897 40.9259 20.897 40.9267 20.897 40.9281C20.8686 41.0153 20.8482 41.1046 20.8344 41.1968C20.7863 41.5285 20.8344 41.8588 20.9735 42.1553C21.0209 42.2571 21.0791 42.3545 21.1476 42.4467C21.4142 42.8084 21.8053 43.0428 22.2474 43.1087C24.0623 43.3774 25.8555 43.5136 27.5772 43.5136C27.7775 43.5136 27.9764 43.5114 28.1737 43.5077C29.819 43.4777 31.3784 43.3203 32.8168 43.0406C36.4723 42.3281 38.1387 40.8095 38.8932 39.6599C39.524 38.7 39.733 37.4296 39.4985 35.9864C39.2858 34.675 37.9027 32.9756 37.8889 32.9587C37.8393 32.8987 37.8036 32.8306 37.7818 32.7603C37.9486 32.7639 38.1052 32.6966 38.2173 32.5809C38.2938 32.5025 38.3499 32.4015 38.3739 32.2858C38.3929 32.1928 38.4111 32.0998 38.4278 32.0068C38.5633 32.0281 38.6922 32.0976 38.7876 32.2126C38.8524 32.2917 40.3848 34.172 40.6492 35.7982C40.9311 37.5365 40.6601 39.0954 39.8655 40.3057H39.8663Z" fill="#524A44"/>
</g>
<defs>
<clipPath id="clip0_1011_1798">
<rect width="38" height="38" fill="white"/>
</clipPath>
</defs>
</svg>
