<svg width="32" height="32" viewBox="0 0 32 32" fill="none" xmlns="http://www.w3.org/2000/svg">
<path d="M7.21175 24.1405C7.1955 24.0947 7.15432 24.0773 7.1144 24.0798C7.14395 24.1247 7.17267 24.1563 7.21175 24.1405Z" fill="#524A44"/>
<path d="M6.83493 25.3666C6.83493 25.3666 6.84445 25.3059 6.84943 25.2789C6.81161 25.3147 6.79417 25.3559 6.83493 25.3666Z" fill="#524A44"/>
<path d="M7.06313 17.9776L6.93391 18.1527C7.08113 18.1568 7.03491 18.0595 7.06313 17.9776Z" fill="#524A44"/>
<path d="M6.53288 15.2923L6.52952 15.2391C6.47546 15.2291 6.41473 15.2196 6.34736 15.2105L6.53288 15.2923Z" fill="#524A44"/>
<path d="M6.86595 13.2673C6.71124 13.2504 6.63595 13.2217 6.60017 13.1839C6.52698 13.1885 6.44714 13.1935 6.33529 13.2207C6.32492 13.2681 6.69878 13.2645 6.8593 13.2677L6.86595 13.2673Z" fill="#524A44"/>
<path d="M6.91294 7.34591L6.89088 7.31391C6.81769 7.31853 6.75074 7.31607 6.6842 7.32028L6.91336 7.35257L6.91294 7.34591Z" fill="#524A44"/>
<path d="M7.70828 28.0904C7.70828 28.0904 7.70786 28.0837 7.70744 28.077C7.61885 28.0492 7.66087 28.08 7.70828 28.0904Z" fill="#524A44"/>
<path d="M24.6497 20.7015C24.2928 20.5504 24.6556 20.1601 24.1939 20.0423C24.3005 20.1424 24.3208 20.6755 24.6497 20.7015Z" fill="#524A44"/>
<path d="M13.9369 28.6657C13.887 28.6154 13.8454 28.5913 13.7967 28.561C13.8188 28.593 13.8541 28.6242 13.9369 28.6657Z" fill="#524A44"/>
<path d="M15.1049 27.1691C15.1582 27.1658 15.2002 27.1965 15.2222 27.1217C15.208 27.1092 15.1943 27.1034 15.1806 27.0976C15.1906 27.1504 15.1865 27.1907 15.1049 27.1691Z" fill="#524A44"/>
<path d="M16.5406 26.1032C16.5406 26.1032 16.4919 26.0729 16.4711 26.0608L16.4408 26.1095L16.5473 26.1028L16.5406 26.1032Z" fill="#524A44"/>
<path d="M29.2414 13.7584C29.1489 13.5639 29.0245 13.3914 28.8747 13.2405C28.7382 13.0888 28.5825 12.9517 28.414 12.822C28.2588 12.6915 28.0974 12.5681 27.9293 12.4452C28.0588 12.0629 27.819 11.6505 27.4703 11.3118C27.2989 11.1356 27.1017 10.9744 26.8987 10.8269C26.6806 10.6536 26.5741 10.5535 26.4979 10.4046C26.5196 10.5369 26.262 10.7936 26.1422 10.8012C26.0847 10.6311 25.6187 10.9745 25.9037 10.5156L25.9391 10.5468C26.1072 10.0352 25.7995 10.0279 25.6181 9.90574L25.2417 10.504C25.2547 9.33417 23.7743 10.1157 23.9546 9.16241C23.753 9.24862 23.6074 9.16429 23.3991 9.25092L23.5922 8.92477C23.3147 8.65505 23.1728 8.52373 22.7228 8.37847L22.938 8.1912C22.7217 8.04454 22.1193 8.97768 21.8993 8.87801L22.1131 8.35016C21.7121 8.135 21.5503 7.47722 20.91 7.70468C20.9591 7.63479 21.0509 7.50207 21.1253 7.51741C20.9444 7.40192 20.5842 6.7767 20.2753 7.49092C20.5145 7.04829 19.8905 7.21462 19.5678 7.28843L19.7822 6.98097C19.3678 7.29437 19.3013 7.40545 18.979 7.37904C18.9407 7.3013 19.0745 7.09245 19.1024 7.21761C18.9979 6.93697 18.7757 7.43863 18.6291 7.12725L18.8332 6.97409C18.6439 6.8324 18.5982 6.95552 18.3488 7.13159C18.1455 7.19118 18.0026 6.83281 18.1368 6.52374C18.0067 6.68559 17.764 6.86124 17.6878 6.71241C17.7334 6.58929 17.8178 6.55056 17.8565 6.52808C17.6367 6.11444 17.1342 6.62044 17.0724 6.1701C17.1255 6.05987 17.1417 5.99873 17.1388 5.95216C17.4096 6.11542 17.6189 6.25584 17.586 6.2646C17.7542 5.96674 17.5562 5.7922 17.9702 5.47215C17.6642 5.59835 17.0897 5.91517 16.9531 5.6566C16.9577 5.62291 16.9622 5.58923 16.9855 5.53432L17.0241 5.51184C16.9937 5.45364 16.9339 5.45742 16.8619 5.482C16.8228 5.39095 16.799 5.33233 16.7362 5.28954C16.8467 5.02872 16.5585 5.01352 16.4536 4.93998C16.2808 5.27153 16.1656 5.13853 16.1475 5.48702C16.1454 5.45376 16.1924 5.45747 16.2677 5.48612C16.2876 5.48486 16.3147 5.48983 16.3342 5.48192L16.3089 5.50356C16.3841 5.5322 16.4873 5.57913 16.5975 5.63229C16.418 5.7505 16.25 5.84127 16.2274 5.58886C16.0516 5.76696 15.8692 5.94547 15.7811 6.03119C15.8872 5.4901 15.7343 5.07892 15.8489 4.77776C15.4077 4.77222 14.987 4.4581 14.4301 4.9475C14.2912 4.96963 14.415 4.70797 14.4344 4.59319C14.5259 4.56069 14.5825 4.61056 14.6648 4.53856C14.3874 4.58947 14.0608 4.28278 13.7791 4.688C13.645 4.36247 14.1332 4.37173 13.7651 4.25469L13.8852 4.1469C13.7518 3.62093 13.3323 3.74762 12.9173 3.84062C12.7132 3.8869 12.502 3.92696 12.3385 3.87716C12.2566 3.84893 12.18 3.80033 12.1213 3.71719C12.0422 3.62867 11.9748 3.51269 11.9107 3.34306C11.9494 3.42745 11.9723 3.47277 11.9436 3.54805C11.5412 3.09918 10.8563 3.04223 10.2666 3.11953C9.65704 3.1981 9.14564 3.35063 8.45985 3.28037C8.09475 3.31678 8.20015 3.61072 8.17248 3.91306L7.89325 3.61673C7.88547 3.81094 7.88435 4.00473 7.89611 4.19103C7.84014 4.46844 7.53528 4.40085 7.22383 4.44055C6.92484 4.46611 6.59889 4.59357 6.71395 5.04054L6.98597 5.11688C6.8085 5.26837 6.83377 5.77445 6.55713 5.62491C6.59334 5.66939 6.78803 5.79069 6.62961 5.82074L6.43162 5.75308C6.49206 5.9697 6.55789 6.16594 6.6366 6.35469C6.42642 6.72868 5.82013 6.119 5.68873 6.78861C5.76002 7.07135 6.30005 7.47813 6.44055 7.37574C6.44839 7.2884 6.57348 7.15359 6.78016 7.14722L6.8913 7.32056C6.93122 7.31804 6.97114 7.31552 7.00483 7.32007C7.00525 7.32673 7.00609 7.34003 7.00651 7.34669L7.13169 9.32941L7.03063 9.31575L7.13421 9.36933L7.15017 9.62216C7.06991 9.62054 7.00211 9.60478 6.96549 9.55366C6.70446 9.75717 7.17559 9.70739 6.87962 9.88639C6.8343 9.9093 6.80685 9.89767 6.78605 9.88562L6.96373 10.0548C6.84852 10.0286 6.57327 10.1128 6.64597 9.99466C6.34719 10.3408 7.09167 10.4942 6.68714 10.6467L6.65219 10.6222C6.81334 10.9527 6.96378 10.7962 7.23328 10.8327L7.24672 11.0456L6.5715 11.2485L6.9803 11.2695C6.96993 11.3169 6.94254 11.4121 6.7816 11.4022C7.07197 11.5576 6.95956 11.3643 7.22535 11.4477C6.86704 11.6975 7.4374 12.0556 6.79538 12.1495C7.10648 12.2101 7.02146 11.9215 7.24949 12.1476C6.55508 12.2582 7.3869 12.4195 7.08056 12.6459C6.71749 12.6087 6.89784 12.3969 6.58484 12.6237C7.19828 12.7119 6.47698 13.0313 6.60766 13.1968C7.09378 13.1728 6.83121 13.5634 7.00895 13.8394C6.84801 13.8296 6.77726 14.4018 6.62149 14.6855L6.54165 14.6906C7.03029 14.7065 6.96144 14.9914 7.07384 15.1847C6.78067 15.1965 6.66504 15.1637 6.52525 15.0657L6.53744 15.2586C6.70006 15.2951 6.78368 15.35 6.85112 15.4659L6.48224 15.4425C6.51817 15.694 6.94706 15.9275 6.72147 16.269C6.95518 16.2676 7.30025 16.1256 7.57472 16.135L7.58564 16.308C7.47253 16.3151 7.3644 16.2953 7.32154 16.2512C7.34983 16.2761 7.48129 16.348 7.40522 16.4129L7.08369 16.2929C6.95987 16.4477 7.34822 16.3564 7.32916 16.4778C7.06968 16.4942 7.14833 16.5761 6.93458 16.5762C6.90587 16.5446 7.03431 16.4631 6.92534 16.4299C6.88717 16.5659 6.73799 16.7423 6.5484 16.8077C6.69393 16.7851 6.90103 16.7854 6.9406 16.8831C6.97652 17.1347 6.62669 16.9898 6.50287 17.1446C6.68629 17.1931 6.51049 17.3712 6.90305 17.3464C6.90767 17.4196 6.72221 17.4447 6.61786 17.4847C6.79925 17.6068 6.70308 18.0938 7.113 17.921L7.13751 17.886C7.13751 17.886 7.14501 17.8989 7.15873 17.9047C7.57859 18.3124 6.99588 18.8168 7.1891 19.2321L7.05603 19.2405C7.22502 19.4837 7.17823 19.8006 7.47609 19.9688C7.48071 20.042 7.24791 20.1636 7.08613 20.1404C7.19811 20.3271 7.34616 20.3444 7.14424 20.6378C6.90543 20.4524 6.94219 20.7173 6.96531 20.4487C6.86816 20.7086 6.65903 20.7819 7.03554 21.0321C6.69033 20.9603 6.6219 21.2519 6.72926 21.3653L6.95745 21.1706C7.01242 21.3007 6.99337 21.4222 6.97432 21.5436L6.52434 21.5052C6.01817 22.0582 7.50174 22.3854 6.62166 22.835C6.94319 22.955 6.82358 22.5417 7.19042 22.6388C7.14566 22.8821 6.52913 23.1682 6.52752 23.2485C6.30192 23.59 7.19222 23.5138 7.04731 23.8636C7.20405 23.8069 7.6207 23.7406 7.78345 23.9908C7.7387 24.2341 7.13659 24.3256 7.00052 24.1805C6.98343 24.1215 7.03498 24.0915 7.08863 24.0948C7.0237 24.0187 6.95087 23.9231 6.78376 24.0272L6.94554 24.0504C6.79342 24.1802 6.82731 24.5054 6.56321 24.4486C6.72758 24.6186 6.82773 24.5121 6.89875 24.3673C6.69228 24.6943 6.90652 24.8077 6.82365 25.2939C6.89845 25.209 7.07347 25.1245 7.08433 25.1906C6.98451 25.8315 7.43128 25.3958 7.58703 25.7467C7.42461 26.0308 6.99908 25.8506 7.33987 26.1698C7.29223 26.4734 6.9728 26.3866 6.8085 26.3235C7.03772 26.4627 7.05698 26.6619 7.06293 26.8619C7.06888 27.0619 7.03532 27.2711 7.07699 27.4021L6.84112 27.2634C6.98006 27.3481 7.04001 27.4512 7.10661 27.5539L7.29523 27.2614C7.31778 27.4069 7.39019 27.4959 7.2817 27.5762C7.52788 27.5607 7.64492 27.1926 8.02668 27.2085C8.00147 27.4439 8.45558 27.442 8.20253 27.7719C7.93942 27.3076 7.93744 28.1226 7.57046 27.8118C7.66654 27.8525 7.73854 27.9348 7.80059 28.0712C7.78357 28.119 7.72327 28.1161 7.68293 28.112C7.83762 28.7635 8.18145 27.967 8.58877 28.2819C8.39091 28.428 8.42936 28.7195 8.53707 28.7327C8.35442 28.5906 8.68696 28.3559 8.93103 28.3071C9.11837 28.6292 9.30866 28.3634 9.43473 28.4556L9.3107 28.2898C9.47942 28.1055 9.58678 28.2189 9.80718 28.2184C9.75157 28.3955 9.58307 28.2659 9.61598 28.364C9.80718 28.2184 9.87631 28.361 9.97414 28.5351C10.0653 28.7097 10.196 28.8752 10.3972 28.7823C10.5163 28.9752 10.3181 29.2215 10.4404 29.3607C10.8985 29.1047 10.8669 29.768 11.3583 29.5099C11.2246 29.191 11.223 29.2712 11.5039 28.9596C11.2819 29.0404 11.0462 29.1154 10.8083 29.1571C10.9733 29.0198 11.1321 28.8895 11.2688 28.7273C11.0825 28.739 10.8452 28.8943 10.7341 28.8278C10.9664 28.5927 10.9245 28.6689 10.874 28.3982C10.9698 28.646 11.1074 28.6039 11.235 28.509C11.3697 28.4203 11.4827 28.3063 11.64 28.47L11.6896 29.2551C11.9591 29.3984 12.1982 29.2698 12.4077 29.0962C12.6163 28.9094 12.8183 28.723 13.136 28.6762L12.8993 28.631C12.8521 28.3067 13.2282 28.4433 13.342 28.2357C13.4507 28.476 13.6054 28.4929 13.7713 28.5826C13.6548 28.4297 14.2095 28.3279 13.8882 27.8939L14.2588 28.0509C14.6459 27.9396 14.158 27.1955 14.4965 27.0539C14.5819 27.3491 14.819 27.4009 14.7514 27.7058C14.8474 27.6396 14.9659 27.6121 14.8564 27.4654C15.0091 27.5559 14.9127 26.9809 15.1486 27.1196C15.1206 26.9945 14.9724 26.7633 15.0888 26.7026C15.1313 26.74 15.1687 26.8044 15.1687 26.8044C15.0888 26.7026 15.2318 26.5332 14.9676 26.3695C15.7501 26.8078 15.7606 25.7049 16.4391 26.0829C16.5987 25.8591 16.8027 25.599 16.9798 25.4409C17.011 25.5124 17.0601 25.5494 17.0069 25.5527C17.4144 25.5537 16.7203 24.8227 17.1811 24.8203C17.5896 25.0484 17.16 25.1222 17.351 25.1837C17.9074 25.8499 17.6418 24.8179 18.146 25.08L18.124 25.1549C18.4522 25.2745 18.3037 24.6158 18.5956 24.4772C18.5956 24.4772 18.6268 24.5487 18.6693 24.5861C18.5787 24.1042 18.8164 23.7418 18.9858 23.4639C19.1133 23.7899 18.9802 23.6914 19.2357 23.9291C19.315 23.8105 18.8753 23.511 19.0335 23.2672C19.2133 23.3627 19.4682 23.38 19.7062 23.6589L19.5163 23.8245C19.9028 24.1274 19.7702 23.6148 19.9299 23.6047L20.0415 23.7847C20.3174 23.5001 20.0099 23.0719 20.3703 22.8555L20.2438 22.7566C20.122 22.2031 20.572 22.8761 20.5239 22.4316L20.8955 22.8156C20.9436 22.6255 21.0169 22.0932 21.1751 21.8494C21.281 22.2569 21.1494 22.6059 21.1284 22.9078C21.2498 22.82 21.5149 22.5761 21.4254 22.3213C21.41 22.3957 21.4197 22.5487 21.324 22.5147C21.2227 22.0735 21.2969 21.7682 21.5463 21.5922C22.1079 22.4452 22.3251 21.3359 22.9716 21.8429C23.1729 21.2223 23.9091 21.3495 24.3704 20.9329C23.7238 20.426 24.503 20.811 23.9886 20.1755C24.0742 20.0498 24.1261 20.0265 24.1615 20.0577L24.1207 20.0469C24.1207 20.0469 24.1549 20.0581 24.1682 20.0573L24.8045 20.1908C25.0267 20.3237 24.7988 20.4182 24.9212 20.5575C25.213 20.4188 25.2344 20.7581 25.5314 20.8062C25.3246 20.5988 25.3727 20.4087 25.5785 20.3891L25.1547 20.2355C25.2499 19.6283 25.8697 20.5577 25.965 19.9505L26.0034 20.242C26.0939 19.9824 26.6801 19.745 26.4718 19.0902C26.5621 19.1446 26.7381 19.2871 26.6916 19.397C26.8146 19.3357 26.9144 19.2226 26.9933 19.0974C27.0361 19.0345 27.0718 18.9655 27.1138 18.8893L27.2895 18.6044C27.405 18.4234 27.5076 18.2499 27.6115 18.0964C27.7224 17.9491 27.8562 17.8472 28.0188 17.7768L28.1428 17.9426C28.186 17.7796 27.9824 17.5186 28.2536 17.4747C28.3168 17.5242 28.3905 17.6331 28.4403 17.5765C28.4332 17.4634 28.3207 17.0563 28.514 16.9439L28.643 17.1896C28.9377 16.8838 28.9216 16.5241 28.8017 16.211C28.6946 15.8904 28.4969 15.6157 28.4522 15.3313C29.044 15.3941 29.2586 14.7727 29.3037 14.4292L29.3902 14.4237C29.3822 14.1904 29.328 13.9667 29.2222 13.773L29.2414 13.7584ZM16.5669 5.25346C16.5669 5.25346 16.5482 5.27468 16.5358 5.28883C16.579 5.23266 16.6156 5.17692 16.6534 5.14113C16.7532 5.13483 16.7383 5.21593 16.7158 5.28414C16.6751 5.27336 16.6339 5.25592 16.5669 5.25346ZM7.11669 9.93823C7.11669 9.93823 7.15619 9.92905 7.17573 9.92114L7.18077 10.001C7.18077 10.001 7.13833 9.96358 7.11669 9.93823Z" fill="#524A44"/>
<path d="M16.2881 5.49151C16.2881 5.49151 16.2619 5.49984 16.2415 5.49445C16.244 5.53437 16.2457 5.56098 16.2478 5.59425L16.3292 5.50895L16.2881 5.49151Z" fill="#524A44"/>
<path d="M7.11258 17.9143C7.11258 17.9143 7.13793 17.8927 7.16413 17.8844C7.14459 17.8923 7.13793 17.8927 7.11839 17.9006L7.11923 17.9139L7.11258 17.9143Z" fill="#524A44"/>
<path d="M6.65048 11.8648L6.73635 11.532C6.59376 11.6011 6.40543 11.6865 6.36292 11.5422C5.95649 11.9821 6.68348 11.4352 6.6509 11.8714L6.65048 11.8648Z" fill="#524A44"/>
<path d="M6.50808 12.8891C6.43062 12.7203 6.29517 12.9025 6.21491 12.9009C6.35512 13.0056 6.39006 13.0302 6.50808 12.8891Z" fill="#524A44"/>
<path d="M6.96307 20.2016L6.62249 20.2031C6.67746 20.3332 6.75555 20.1947 6.96307 20.2016Z" fill="#524A44"/>
<path d="M6.43803 22.4659L6.38768 22.4089L6.52837 22.6272L6.43803 22.4659Z" fill="#524A44"/>
<path d="M16.4827 26.5611L16.2022 26.2448C16.1761 26.36 16.4412 26.7508 16.4827 26.5611Z" fill="#524A44"/>
<path d="M20.4964 23.0546C20.6653 23.1909 20.867 23.2115 20.8195 22.9874C20.7089 23.0345 20.5113 22.9735 20.4964 23.0546Z" fill="#524A44"/>
<path d="M25.44 9.83682L25.2067 9.84487L25.2775 9.9072L25.44 9.83682Z" fill="#524A44"/>
</svg>
