<svg width="20" height="21" viewBox="0 0 20 21" fill="none" xmlns="http://www.w3.org/2000/svg">
<path fill-rule="evenodd" clip-rule="evenodd" d="M10 0.762695C4.47715 0.762695 0 5.23985 0 10.7627C0 16.2855 4.47715 20.7627 10 20.7627C15.5228 20.7627 20 16.2855 20 10.7627C20 5.23985 15.5228 0.762695 10 0.762695ZM15.1617 7.75767C15.435 7.4843 15.435 7.04109 15.1617 6.76772C14.8883 6.49435 14.4451 6.49435 14.1717 6.76772L8.25002 12.6894L5.82833 10.2677C5.55496 9.99435 5.11174 9.99435 4.83838 10.2677C4.56501 10.5411 4.56501 10.9843 4.83838 11.2577L7.75504 14.1743C8.02841 14.4477 8.47163 14.4477 8.74499 14.1743L15.1617 7.75767Z" fill="white"/>
</svg>
