<svg width="240" height="240" viewBox="0 0 240 240" fill="none" xmlns="http://www.w3.org/2000/svg">
<path d="M8.78046 105.375C9.48026 103.873 11.265 103.223 12.7668 103.923L75.5509 133.178C82.7687 131.555 90.901 130.643 99.5029 130.643C129.326 130.643 153.503 141.612 153.503 155.143C153.503 156.631 153.211 158.088 152.65 159.502C169.165 162.944 188.219 168.096 201.779 174.491C206.303 176.625 210.327 178.947 213.474 181.465C216.584 183.953 219.093 186.836 220.154 190.159C221.276 193.672 220.645 197.244 218.307 200.602C216.649 202.984 214.141 205.257 210.807 207.456C212.218 209.045 213 210.799 213 212.643C213 219.822 201.136 225.643 186.5 225.643C171.864 225.643 160 219.822 160 212.643C160 205.463 171.864 199.643 186.5 199.643C194.005 199.643 200.781 201.173 205.603 203.632C209.613 201.262 212.055 199.081 213.383 197.173C214.784 195.161 214.926 193.511 214.439 191.985C213.891 190.269 212.408 188.296 209.725 186.15C207.079 184.032 203.509 181.941 199.22 179.918C185.594 173.492 165.841 168.272 149.059 164.891C140.752 173.572 121.69 179.643 99.5029 179.643C69.6796 179.643 45.5029 168.674 45.5029 155.143C45.5029 147.208 53.8165 140.154 66.7072 135.677L10.2326 109.362C8.73083 108.662 8.08066 106.877 8.78046 105.375Z" fill="#DFD8D2"/>
<path fill-rule="evenodd" clip-rule="evenodd" d="M8.01758 104.318C8.19662 102.671 9.67704 101.481 11.3242 101.66C22.9989 102.929 38.3569 105.845 52.4945 110.812C66.504 115.734 79.8922 122.867 86.9546 132.918C87.9072 134.273 87.5805 136.145 86.2249 137.097C84.8692 138.05 82.998 137.723 82.0454 136.367C76.1079 127.918 64.246 121.301 50.5056 116.473C36.8932 111.69 22.0012 108.856 10.6758 107.625C9.02868 107.446 7.83854 105.966 8.01758 104.318Z" fill="#524A44"/>
<path fill-rule="evenodd" clip-rule="evenodd" d="M211.083 162.725C205.997 156.13 194.601 151.339 181.246 152.958C172.303 154.041 164.576 155.314 157.716 156.443C153.718 157.101 150.015 157.711 146.537 158.206C137.444 159.502 129.76 160.05 123.892 157.717C122.352 157.105 121.6 155.36 122.212 153.821C122.824 152.281 124.569 151.529 126.108 152.141C130.287 153.803 136.417 153.588 145.691 152.266C148.914 151.807 152.514 151.216 156.463 150.567C163.445 149.419 171.518 148.093 180.524 147.001C195.426 145.195 209.147 150.391 215.834 159.061C219.231 163.466 220.829 168.834 219.576 174.465C218.335 180.04 214.408 185.392 207.73 190.095C206.375 191.049 204.503 190.725 203.549 189.37C202.595 188.015 202.92 186.144 204.275 185.19C210.155 181.048 212.9 176.842 213.719 173.161C214.526 169.537 213.573 165.953 211.083 162.725Z" fill="#524A44"/>
<path d="M105.556 28.3105C97.6329 65.0454 90.4364 87.3218 86.9671 90.1995C83.9311 92.7164 79.926 96.3854 75.5271 97.9711C66.0003 103.643 46.0003 121.143 60.1019 133.9C60.1019 133.9 54.5606 146.556 61.5005 154.143C68.4403 161.73 76.0615 159.31 76.0615 159.31C76.0615 159.31 80.5001 174.643 103.668 167.529C103.668 167.529 117.232 169.096 126.831 158.625C136.43 148.153 133.928 144.188 134.963 141.852C135.997 139.515 153.621 100.657 171.909 63.5154" fill="white"/>
<path d="M105.329 25.1126C105.329 25.1126 95.789 88.4865 81.6425 94.3202C79.8824 95.0472 81.1087 110.425 93.4018 122.91C106.592 136.313 138.244 138.46 138.774 137.248C139.808 134.911 152.853 102.997 172.351 63.7927" fill="#FBD28F"/>
<path d="M105.329 25.1126C105.329 25.1126 95.789 88.4865 81.6425 94.3202C79.8824 95.0472 81.1087 110.425 93.4018 122.91C106.592 136.313 138.244 138.46 138.774 137.248C139.808 134.911 152.853 102.997 172.351 63.7927C172.351 63.7927 179.329 47.1128 146.829 30.1119C114.329 13.1111 105.329 25.1126 105.329 25.1126Z" fill="#FBD28F"/>
<path d="M191.729 218.011L172.776 188.739L184.204 181.339C191.622 176.537 201.528 178.657 206.331 186.074L207.892 188.485C212.695 195.902 210.575 205.808 203.157 210.611L191.729 218.011Z" fill="#7B6F65"/>
<ellipse cx="182.251" cy="203.375" rx="9.15603" ry="17.4359" transform="rotate(147.078 182.251 203.375)" fill="#524A44"/>
<path d="M183.775 206.311C184.494 205.846 185.642 206.343 186.339 207.42C187.037 208.498 187.021 209.749 186.302 210.214C186.29 210.222 186.278 210.23 186.265 210.237L175.244 217.373C174.166 218.071 172.727 217.763 172.029 216.685C171.331 215.608 171.639 214.168 172.717 213.47L183.775 206.311Z" fill="#7B6F65"/>
<path d="M177.879 197.204C178.597 196.74 179.745 197.237 180.442 198.314C181.14 199.392 181.123 200.643 180.405 201.108C180.397 201.113 180.389 201.118 180.382 201.122L169.347 208.267C168.27 208.965 166.83 208.657 166.132 207.579C165.434 206.501 165.742 205.062 166.82 204.364L177.879 197.204Z" fill="#7B6F65"/>
<path d="M106.4 21.1752C107.763 21.3962 108.689 22.6802 108.468 24.0431C106.949 33.4099 103.676 47.6245 100.355 60.2179C98.6924 66.5229 97.0097 72.4534 95.5178 77.1976C94.0616 81.8281 92.7026 85.6146 91.6595 87.4026C89.1802 91.6529 86.59 94.2608 83.8965 96.2187C83.4588 100.966 84.0935 110.056 90.2884 116.396C91.2534 117.383 91.2352 118.966 90.2478 119.931C89.2603 120.896 87.6775 120.878 86.7125 119.89C80.4938 113.527 78.9051 105.187 78.7962 99.3462C65.3859 107.025 60.2026 115.166 58.8131 121.299C58.0975 124.459 58.369 127.136 59.059 129.08C59.2937 129.741 59.5644 130.289 59.8443 130.737C60.3204 129.981 60.8951 129.212 61.7326 128.375C62.709 127.398 64.2919 127.398 65.2682 128.375C66.2445 129.351 66.2445 130.934 65.2682 131.91C64.3972 132.781 64.1167 133.291 63.5172 134.381C63.3086 134.76 63.0614 135.21 62.7372 135.769C59.1649 144.135 61.0973 149.631 64.1972 152.931C65.8308 154.67 67.8828 155.902 69.9062 156.612C71.0274 157.006 72.0812 157.219 72.9989 157.292C73.0516 154.976 73.5977 150.515 77.2304 146.876C78.2058 145.899 79.7887 145.898 80.7659 146.873C81.743 147.849 81.7444 149.431 80.7689 150.409C78.089 153.093 77.9626 156.575 77.9989 158.083C78.0049 158.332 77.9742 158.574 77.9117 158.803L77.9792 159.32C78.2341 161.274 79.4158 162.923 81.4872 164.291C83.5883 165.679 86.443 166.652 89.5437 167.178C92.6272 167.702 95.7872 167.755 98.3915 167.428C99.6929 167.265 100.803 167.012 101.668 166.706L101.734 166.682C100.609 164.15 99.5149 160.284 99.6819 155.713C99.7323 154.333 100.892 153.256 102.272 153.306C103.651 153.357 104.729 154.516 104.679 155.896C104.524 160.116 105.711 163.502 106.573 165.228C114.831 165.517 120.681 162.524 124.761 158.284C129.143 153.732 131.599 147.609 132.537 142.215C133.292 137.871 134.412 134.248 139.586 123.612C144.747 113.004 154.047 95.2112 171.288 62.4779C171.932 61.2563 173.444 60.7876 174.665 61.431C175.887 62.0745 176.355 63.5864 175.712 64.808C158.453 97.5747 149.199 115.282 144.082 125.799C138.979 136.288 138.099 139.415 137.463 143.071C136.401 149.177 133.607 156.304 128.364 161.752C123.214 167.102 115.81 170.707 105.812 170.2C105.057 170.719 104.198 171.115 103.336 171.42C102.049 171.875 100.573 172.193 99.0151 172.389C95.9007 172.781 92.2481 172.709 88.7067 172.108C85.1824 171.509 81.5995 170.357 78.7319 168.464C76.47 166.97 74.5611 164.943 73.5969 162.32C71.8764 162.307 70.0333 161.956 68.2503 161.33C65.555 160.384 62.7945 158.741 60.553 156.355C56.2229 151.745 54.1372 144.707 57.4324 135.597C56.0801 134.381 55.0254 132.663 54.3471 130.753C53.3183 127.854 53.0273 124.209 53.9367 120.195C55.766 112.119 62.3789 102.739 77.2861 94.4576C81.0506 92.3662 84.2145 90.2424 87.3406 84.8833C88.0476 83.6713 89.2511 80.4578 90.7481 75.6977C92.2092 71.0512 93.8702 65.2005 95.5202 58.943C98.8246 46.4114 102.051 32.376 103.532 23.2428C103.753 21.8799 105.037 20.9542 106.4 21.1752Z" fill="#524A44"/>
</svg>
