<svg width="16" height="16" viewBox="0 0 16 16" fill="none" xmlns="http://www.w3.org/2000/svg">
<path d="M11.6936 6.39402C9.94074 4.34347 9.3333 3.66667 8.66663 2C5.99996 3.66667 5.3333 5 6.85284 7.95966C5.3333 9 4.30047 8.15489 3.99996 7.66667C2.75956 8.94442 2.16247 10.5561 3.34998 12.3179C5.2327 15.1112 9.94013 15.6561 12.3366 12.6214C13.9964 10.5194 13.4465 8.44456 11.6936 6.39402Z" fill="#FFBC3A" stroke="#FFBC3A" stroke-width="1.4" stroke-linecap="round" stroke-linejoin="round"/>
<path d="M9.66671 12.8889C9.66671 14.1162 8.92052 14.6667 8.00004 14.6667C7.07957 14.6667 6.33337 14.1162 6.33337 12.8889C6.33337 11.6616 8.00004 10.6667 8.00004 10.6667C8.00004 10.6667 9.66671 11.6616 9.66671 12.8889Z" fill="#FFDE9D" stroke="#FFDE9D" stroke-width="1.4"/>
</svg>
