<svg width="24" height="24" viewBox="0 0 24 24" fill="none" xmlns="http://www.w3.org/2000/svg">
<path d="M17.5405 9.59103C14.9112 6.51521 14 5.5 13 3C9.00001 5.5 8.00001 7.5 10.2793 11.9395C8.00001 13.5 6.45076 12.2323 6 11.5C4.1394 13.4166 3.24376 15.8341 5.02503 18.4769C7.84912 22.6669 14.9103 23.4841 18.5049 18.9321C20.9947 15.7792 20.1698 12.6668 17.5405 9.59103Z" fill="#FFBC3A" stroke="#FFBC3A" stroke-width="2" stroke-linecap="round" stroke-linejoin="round"/>
<path d="M14.5 19.3333C14.5 21.1743 13.3807 22 12 22C10.6193 22 9.5 21.1743 9.5 19.3333C9.5 17.4924 12 16 12 16C12 16 14.5 17.4924 14.5 19.3333Z" fill="#FFDE9D" stroke="#FFDE9D" stroke-width="2"/>
</svg>
