<svg width="40" height="40" viewBox="0 0 40 40" fill="none" xmlns="http://www.w3.org/2000/svg">
<path fill-rule="evenodd" clip-rule="evenodd" d="M10 8.33333C9.07953 8.33333 8.33333 9.07953 8.33333 10V30C8.33333 30.9205 9.07953 31.6667 10 31.6667H30C30.9205 31.6667 31.6667 30.9205 31.6667 30V20C31.6667 19.0795 32.4129 18.3333 33.3333 18.3333C34.2538 18.3333 35 19.0795 35 20V30C35 32.7614 32.7614 35 30 35H10C7.23858 35 5 32.7614 5 30V10C5 7.23858 7.23858 5 10 5H20C20.9205 5 21.6667 5.74619 21.6667 6.66667C21.6667 7.58714 20.9205 8.33333 20 8.33333H10ZM25 6.66667C25 5.74619 25.7462 5 26.6667 5C27.5871 5 28.3333 5.74619 28.3333 6.66667V9.30964L32.1548 5.48816C32.8057 4.83728 33.861 4.83728 34.5118 5.48816C35.1627 6.13903 35.1627 7.1943 34.5118 7.84518L30.6904 11.6667H33.3333C34.2538 11.6667 35 12.4129 35 13.3333C35 14.2538 34.2538 15 33.3333 15H26.6667C25.7462 15 25 14.2538 25 13.3333V6.66667ZM13.3333 18.3333C13.3333 17.4129 14.0795 16.6667 15 16.6667H21.6667C22.5871 16.6667 23.3333 17.4129 23.3333 18.3333V25C23.3333 25.9205 22.5871 26.6667 21.6667 26.6667C20.7462 26.6667 20 25.9205 20 25V22.357L16.1785 26.1785C15.5276 26.8294 14.4724 26.8294 13.8215 26.1785C13.1706 25.5276 13.1706 24.4724 13.8215 23.8215L17.643 20H15C14.0795 20 13.3333 19.2538 13.3333 18.3333Z" fill="#524A44"/>
</svg>
