<svg width="24" height="24" viewBox="0 0 24 24" fill="none" xmlns="http://www.w3.org/2000/svg">
<path d="M3.99988 5C3.99988 3.89543 4.89531 3 5.99988 3H16.9999C18.1044 3 18.9999 3.89543 18.9999 5V19C18.9999 20.1046 18.1044 21 16.9999 21H5.99988C4.89531 21 3.99988 20.1046 3.99988 19V5Z" fill="#FFBC3A"/>
<path d="M18.1318 8.35354C18.327 8.15828 18.6436 8.15828 18.8389 8.35354L19.546 9.06065C19.7413 9.25591 19.7413 9.57249 19.546 9.76775L12.9777 16.3361C12.8665 16.4472 12.7308 16.5306 12.5814 16.5794L10.7072 17.1924L11.3201 15.3182C11.3689 15.1688 11.4523 15.033 11.5634 14.9219L18.1318 8.35354Z" fill="#FFDE9D" stroke="#FFDE9D" stroke-width="3" stroke-linejoin="round"/>
</svg>
