<svg width="40" height="40" viewBox="0 0 40 40" fill="none" xmlns="http://www.w3.org/2000/svg">
<path fill-rule="evenodd" clip-rule="evenodd" d="M21.0345 8.77804C20.4283 8.29814 19.5717 8.29814 18.9655 8.77803L8.96549 16.6947C8.56619 17.0108 8.33333 17.4922 8.33333 18.0014V29.1667C8.33333 30.0871 9.07953 30.8333 10 30.8333H15V24.1667C15 22.3257 16.4924 20.8333 18.3333 20.8333H21.6667C23.5076 20.8333 25 22.3257 25 24.1667V30.8333H30C30.9205 30.8333 31.6667 30.0871 31.6667 29.1667V18.0014C31.6667 17.4922 31.4338 17.0108 31.0345 16.6947L21.0345 8.77804ZM16.8965 6.16455C18.715 4.72485 21.285 4.72486 23.1035 6.16455L33.1035 14.0812C34.3014 15.0296 35 16.4736 35 18.0014V29.1667C35 31.9281 32.7614 34.1667 30 34.1667H25C23.159 34.1667 21.6667 32.6743 21.6667 30.8333V24.1667H18.3333V30.8333C18.3333 32.6743 16.8409 34.1667 15 34.1667H10C7.23858 34.1667 5 31.9281 5 29.1667V18.0014C5 16.4736 5.69857 15.0296 6.89649 14.0812L16.8965 6.16455Z" fill="#524A44"/>
</svg>
