<svg width="16" height="16" viewBox="0 0 16 16" fill="none" xmlns="http://www.w3.org/2000/svg">
<path d="M1.46802 6.00003C2.07133 5.40883 2.75456 4.89887 3.5 4.48785" stroke="#524A44" stroke-width="1.4" stroke-linecap="round"/>
<path d="M12.6667 7.90571C11.4642 6.72688 9.81697 6 8 6H7.5" stroke="#524A44" stroke-width="1.4" stroke-linecap="round"/>
<path d="M3.33325 7.90574C3.82161 7.427 4.38331 7.02279 4.99994 6.71155" stroke="#524A44" stroke-width="1.4" stroke-linecap="round"/>
<path d="M10.8365 9.84639C10.4366 9.44421 9.95176 9.1266 9.41113 8.92273" stroke="#524A44" stroke-width="1.4" stroke-linecap="round"/>
<path d="M5.16345 9.84634C5.54132 9.46632 5.99504 9.1618 6.5 8.9574" stroke="#524A44" stroke-width="1.4" stroke-linecap="round"/>
<circle cx="8" cy="12" r="1" fill="#524A44"/>
<path d="M4 1.46948L11.6477 12.3915" stroke="#524A44" stroke-width="1.4" stroke-linecap="round"/>
<path d="M14.532 6.00004C12.8486 4.35046 10.5431 3.33337 7.99999 3.33337C7.22425 3.33337 6.47062 3.42801 5.75 3.60638" stroke="#524A44" stroke-width="1.4" stroke-linecap="round"/>
</svg>
