<svg width="32" height="32" viewBox="0 0 32 32" fill="none" xmlns="http://www.w3.org/2000/svg">
<path fill-rule="evenodd" clip-rule="evenodd" d="M29.8688 9.00927L29.8599 8.9515C29.8239 8.72139 29.7871 8.48625 29.8086 8.20674L29.7919 8.25737C29.7656 8.33841 29.7407 8.41487 29.7019 8.48674C29.5333 8.44274 29.5199 8.30197 29.5054 8.1498C29.4935 8.02527 29.481 7.89309 29.3819 7.80007C29.5955 7.73985 29.6471 7.60321 29.7068 7.44552L29.7078 7.44283C29.7138 7.42685 29.72 7.41067 29.7264 7.39434C29.7334 7.37642 29.7407 7.3583 29.7486 7.34007C29.7612 7.32724 29.7898 7.29563 29.815 7.24892C29.8249 7.23047 29.8343 7.20967 29.842 7.18674C29.7963 7.23233 29.7699 7.29065 29.7438 7.34304C29.6882 7.37444 29.6319 7.308 29.5597 7.22239C29.5428 7.20248 29.5251 7.18152 29.5063 7.16051L29.494 7.14685L29.4815 7.1335L29.471 7.12255L29.4619 7.1134C29.3353 6.98674 29.1486 6.90674 28.9353 7.06007C28.9419 6.90008 28.9353 6.73341 28.8953 6.56007C28.6486 6.28007 28.3486 6.36007 28.1219 6.4734C28.0729 6.49791 28.0265 6.52379 27.9815 6.54886C27.8059 6.64658 27.6529 6.73176 27.4619 6.6734C27.538 6.57449 27.5466 6.47945 27.5544 6.39267C27.5671 6.25132 27.5779 6.13189 27.8753 6.05341L27.8486 6.04692C27.6384 5.99562 27.4417 5.94762 27.4353 6.12674C27.3753 6.04007 27.2153 6.12674 27.0686 6.2134L27.0487 6.22611C26.9099 6.31483 26.7831 6.39582 26.6686 6.30673C26.6515 6.34953 26.6454 6.40605 26.639 6.46484C26.6255 6.58926 26.6109 6.72386 26.4886 6.76007C26.4777 6.74916 26.4688 6.73526 26.4615 6.72084C26.4505 6.69859 26.4435 6.67505 26.4395 6.65916C26.4413 6.67583 26.4391 6.69349 26.4346 6.71202C26.433 6.71877 26.431 6.72565 26.4288 6.73263C26.4273 6.73775 26.4255 6.74293 26.4238 6.74817L26.4199 6.75942L26.414 6.77592C26.3776 6.87771 26.3348 6.99732 26.5173 7.11706C26.3254 6.99348 26.1273 7.0007 25.9686 7.08007C25.9286 7.10007 25.8886 7.12674 25.8552 7.1534C25.8286 7.1734 25.8086 7.1934 25.7819 7.2134C25.7353 7.25341 25.7019 7.30673 25.662 7.3534L25.6451 7.37462C25.4981 7.5609 25.3554 7.74162 25.0086 7.60674C24.8886 7.84674 24.7353 8.12674 24.582 8.30007C24.5743 8.28913 24.5667 8.27928 24.5594 8.27038L24.552 8.26131L24.5457 8.2537C24.5366 8.24297 24.5291 8.23396 24.5242 8.22635C24.5136 8.20991 24.5155 8.20001 24.5419 8.1934C24.3475 8.21933 24.4351 8.37917 24.5251 8.5435C24.6203 8.71719 24.7182 8.89591 24.4886 8.92674C24.2236 8.8248 24.2727 8.73534 24.3067 8.6736C24.3282 8.63439 24.3437 8.60635 24.2686 8.59341C23.9186 8.27957 23.881 8.42052 23.8368 8.58642C23.7993 8.7271 23.757 8.88573 23.5153 8.80007V8.72007C23.3357 8.68056 23.3245 8.84421 23.3117 9.03069C23.3007 9.19037 23.2886 9.36678 23.1686 9.44674C23.1686 9.44674 23.1545 9.42659 23.134 9.40401C23.1173 9.38552 23.0963 9.36541 23.0753 9.3534C23.2307 9.78232 23.0846 10.1417 22.967 10.4315L22.9419 10.4934C22.8818 10.387 22.8594 10.328 22.8441 10.2876C22.8152 10.2116 22.8115 10.2017 22.6286 10.0667C22.6038 10.1192 22.6716 10.1911 22.751 10.2754C22.8633 10.3945 22.9989 10.5383 22.9286 10.6867C22.8718 10.6652 22.8105 10.6517 22.745 10.6373C22.5876 10.6027 22.4064 10.5629 22.2086 10.3934L22.3686 10.2067C22.0981 10.0504 22.0848 10.1887 22.0724 10.3194C22.0651 10.3949 22.0581 10.4679 22.002 10.4801L21.8686 10.3201C21.7662 10.466 21.7909 10.6263 21.815 10.7822C21.8426 10.9612 21.8694 11.1345 21.7019 11.2734L21.842 11.3534C21.9496 11.6279 21.8527 11.5963 21.7522 11.5636C21.6598 11.5335 21.5645 11.5025 21.6219 11.7067L21.2019 11.3801C21.1991 11.42 21.1975 11.4743 21.1956 11.5377C21.1884 11.7815 21.1772 12.159 21.082 12.3601C20.9596 12.0919 20.9635 11.8337 20.967 11.5996C20.9684 11.5019 20.9698 11.4084 20.9619 11.3201C20.8552 11.4201 20.6419 11.7001 20.7686 11.9334C20.7686 11.8534 20.7353 11.7134 20.8353 11.7267C21.002 12.1467 20.9819 12.4534 20.7686 12.6534C20.3993 12.2446 20.2189 12.3778 20.0212 12.5239C19.8512 12.6494 19.6685 12.7844 19.342 12.5934C19.2866 12.9694 19.0032 13.1128 18.7025 13.2649C18.4968 13.369 18.283 13.4772 18.1286 13.6667C18.4857 13.8736 18.4586 13.9085 18.4177 13.9611C18.3768 14.0136 18.3222 14.0837 18.6219 14.3601C18.5619 14.4934 18.5153 14.5201 18.4686 14.4934L18.401 14.4885C18.3761 14.4528 18.3506 14.4034 18.3224 14.3488C18.2305 14.1708 18.1101 13.9377 17.8886 13.9467C18.0625 13.9933 18.0918 14.1108 18.1213 14.229C18.1449 14.3237 18.1685 14.4189 18.2668 14.4787L17.8286 14.4467C17.6938 14.3905 17.7 14.328 17.7064 14.2628C17.7114 14.2119 17.7166 14.1593 17.6553 14.1067C17.5069 14.2056 17.4194 14.1418 17.3158 14.0662C17.2378 14.0093 17.1507 13.9458 17.0219 13.9401C17.2553 14.1201 17.242 14.3134 17.0419 14.3534L17.4819 14.4467C17.4819 14.7501 17.2953 14.6951 17.1087 14.6401C16.922 14.5851 16.7353 14.5301 16.7353 14.8334L16.6486 14.5534C16.6347 14.6311 16.5773 14.7135 16.5121 14.8072C16.3589 15.0273 16.1622 15.3099 16.3819 15.7401C16.2886 15.7001 16.0953 15.5801 16.1219 15.4667C15.9309 15.5999 15.8416 15.8676 15.7549 16.1278C15.6419 16.4669 15.533 16.7934 15.2086 16.7934L15.0953 16.6267L15.0944 16.6309L15.0937 16.6354L15.093 16.6413C15.0921 16.6503 15.0922 16.66 15.093 16.6703C15.0939 16.6817 15.0956 16.6938 15.0978 16.7063C15.1017 16.7279 15.107 16.7508 15.1124 16.7737C15.1388 16.8849 15.165 16.9958 15.0086 16.9601C14.9943 16.944 14.9795 16.9246 14.9647 16.9051L14.9637 16.9037C14.9238 16.8511 14.8843 16.7989 14.8552 16.8134C14.8686 16.9001 14.9153 17.2467 14.742 17.2534L14.662 17.0134C14.3267 17.1238 14.3374 17.4548 14.3482 17.7866C14.355 17.9959 14.3618 18.2054 14.2819 18.3601C13.8686 17.9467 13.4486 18.0934 13.2353 18.1734L13.182 18.1067C13.0619 18.2001 12.9819 18.3134 12.922 18.4401L12.8819 18.5401L12.9019 18.5867L12.9486 18.7001C13.0086 18.8667 13.0419 19.1067 12.9953 19.3201C12.8012 18.9849 12.7472 19.0024 12.6777 19.0249C12.6685 19.0279 12.6589 19.031 12.6486 19.0334C12.6152 18.9667 12.5753 18.8801 12.582 18.7134C12.5753 18.8534 12.4953 19.2734 12.4486 19.3067C12.4512 19.244 12.4148 19.2828 12.3814 19.3185C12.3294 19.3738 12.2844 19.4219 12.4019 19.0734V19.0934C12.5362 18.6153 12.5234 18.6133 12.4994 18.6097C12.4976 18.6094 12.4957 18.6091 12.4938 18.6087C12.4938 18.6087 12.4915 18.6079 12.4902 18.6074C12.4873 18.6061 12.4845 18.6039 12.4819 18.6001L12.1019 19.2134C12.1952 18.9401 12.2286 18.8334 12.2153 18.7734C12.2286 18.7667 12.1286 18.6734 12.0686 18.6401C11.9953 18.5934 11.922 18.5534 11.842 18.5134L11.8101 18.4975C11.5155 18.3509 11.2496 18.2186 11.4619 17.8067C11.3514 17.8235 11.2678 17.8015 11.1849 17.7798C11.149 17.7703 11.1133 17.761 11.0756 17.7548C11.027 17.7468 10.9751 17.7441 10.9153 17.7534L11.1886 17.4934C11.002 17.1667 10.9019 17.0067 10.5219 16.7534L10.7752 16.6267C10.6921 16.5228 10.4253 16.6727 10.163 16.8201C9.9205 16.9564 9.68173 17.0905 9.59531 17.0201L9.94191 16.5734C9.83522 16.4712 9.76783 16.329 9.70045 16.1867C9.56568 15.9023 9.43084 15.6179 8.98194 15.6534C9.04859 15.6001 9.16863 15.4934 9.23528 15.5267C9.22836 15.5188 9.22136 15.5096 9.21437 15.4994C9.20997 15.493 9.20558 15.4863 9.2011 15.4791C9.1832 15.4506 9.16464 15.4165 9.14487 15.3799C9.02255 15.1543 8.8519 14.8397 8.4957 15.2249C8.70444 14.9454 8.20517 14.9272 7.88917 14.9157L7.82862 14.9134L8.11524 14.6801C7.65528 14.9001 7.50196 14.8867 7.06861 14.7667C7.01149 14.6867 7.09645 14.5134 7.17652 14.5709C7.18344 14.5787 7.19044 14.5872 7.19752 14.5963C7.20338 14.6037 7.20932 14.6117 7.21526 14.6201C7.20956 14.6091 7.20362 14.5998 7.1976 14.592C7.195 14.5886 7.19239 14.5855 7.18971 14.5827C7.18531 14.578 7.18092 14.5741 7.17652 14.5709C7.06275 14.4429 6.96941 14.4827 6.8672 14.5262C6.75685 14.5732 6.63624 14.6246 6.4686 14.4734C6.54192 14.4067 6.61524 14.3467 6.69524 14.2867C6.36476 14.1747 6.3025 14.2603 6.16855 14.4448C6.14308 14.4799 6.115 14.5185 6.08196 14.5601C5.86858 14.6801 5.43523 14.5267 5.24863 14.2401C5.24863 14.4534 5.16196 14.7667 4.94858 14.7867C4.86191 14.6934 4.8886 14.5801 4.90862 14.5267C4.54192 14.5734 4.40195 14.8534 4.32862 15.0667C4.31764 15.098 4.30779 15.1282 4.29827 15.1573C4.23845 15.34 4.1919 15.4823 3.96192 15.5801C3.84864 15.5334 3.78191 15.5334 3.72861 15.5534C3.95338 15.0796 4.29428 14.8106 4.33806 14.8018L4.34197 14.8067C4.34376 14.8026 4.3423 14.801 4.33806 14.8018C4.25318 14.6979 4.1386 14.6877 4.02752 14.6778C3.84929 14.6619 3.67978 14.6468 3.65528 14.2467C3.57529 14.5134 3.53525 14.8801 3.52857 15.2134C3.52654 15.2637 3.52516 15.3128 3.52377 15.3609C3.51612 15.6315 3.50945 15.8656 3.40195 16.0467L3.39365 16.0496L3.38209 16.054L3.36647 16.0602C3.35165 16.0662 3.33668 16.0723 3.32 16.0773C3.31023 16.0802 3.29982 16.0828 3.28858 16.0847C3.28427 16.0855 3.2798 16.0862 3.27524 16.0867L3.24863 16.0267C3.19524 16.1334 3.20859 16.2467 3.2553 16.3467L3.25481 16.348C3.18824 16.5007 3.14194 16.6072 3.14861 16.7601C2.85523 16.8401 3.06861 17.4134 3.1753 17.6601C3.31837 17.6023 3.41261 17.6183 3.48618 17.6308C3.58977 17.6485 3.65219 17.6591 3.75221 17.4467C3.73902 17.4666 3.70786 17.4316 3.66733 17.35L3.67547 17.3346C3.68222 17.322 3.68865 17.3099 3.69451 17.298C3.69972 17.2875 3.70452 17.2771 3.70859 17.2667L3.68434 17.2628L3.61809 17.2525C3.61223 17.2421 3.60637 17.2313 3.59986 17.2213C3.59278 17.2105 3.58489 17.2006 3.57529 17.1934H3.60857C3.56194 17.0601 3.51531 16.8667 3.50864 16.6467C3.52426 16.6608 3.53972 16.6745 3.55478 16.6878C3.73276 16.8455 3.86435 16.962 3.73528 17.2201C4.00196 17.2601 4.26197 17.2667 4.3886 17.2667C4.18857 17.4667 4.1019 17.7467 4.08196 18.0001C4.0678 18.0875 4.06617 18.1784 4.06463 18.2639C4.06178 18.4196 4.05934 18.5579 3.98194 18.6267C4.09596 18.658 4.20183 18.7121 4.30942 18.7671C4.59181 18.9113 4.88583 19.0615 5.36858 18.8201C5.47275 18.83 5.39251 18.9505 5.3226 19.0555C5.29851 19.0917 5.27565 19.1261 5.26197 19.1534C5.25042 19.1534 5.23951 19.1526 5.22918 19.1512L5.22169 19.1502C5.21062 19.1484 5.20021 19.1462 5.19011 19.1438L5.17628 19.1404C5.12973 19.129 5.08888 19.119 5.02857 19.1534C5.12232 19.1601 5.20859 19.2064 5.2964 19.2535C5.47088 19.3472 5.65138 19.4441 5.90862 19.2401C5.92522 19.4128 5.81935 19.4664 5.74846 19.5022C5.67718 19.5383 5.64137 19.5564 5.80193 19.6601L5.66196 19.7334C5.64283 20.2422 6.03321 20.2535 6.43165 20.265C6.84539 20.277 7.26783 20.2892 7.24928 20.8589C7.24708 20.8678 7.24553 20.8769 7.2444 20.8863C7.24261 20.902 7.24212 20.9189 7.24204 20.938L7.24195 20.9601C7.24586 20.9245 7.24822 20.8909 7.24928 20.8589C7.2531 20.8436 7.25896 20.8287 7.26791 20.8129C7.27499 20.8005 7.28395 20.7876 7.29526 20.7734C7.44703 21.2135 7.79908 21.4684 8.15081 21.7231C8.57179 22.0279 8.99236 22.3324 9.06861 22.9534C9.12721 23.1584 9.27149 23.1061 9.45444 23.0399C9.52141 23.0156 9.5936 22.9895 9.66863 22.9734L9.42197 23.3001L9.94191 23.1601C10.1681 23.172 10.1458 23.4058 10.1224 23.651C10.0934 23.9549 10.0628 24.2761 10.502 24.2134L10.6486 23.9801C10.6777 24.0338 10.7437 24.0823 10.8094 24.1306C10.9392 24.226 11.068 24.3206 10.9086 24.4534C10.9178 24.4495 10.9326 24.4409 10.9501 24.4308C11.0217 24.3895 11.1381 24.3222 11.0953 24.4401L10.9486 24.5934L11.2286 24.6134C11.255 24.6134 11.2857 24.6177 11.3186 24.6239C11.3415 24.6282 11.3655 24.6335 11.3899 24.6388C11.4457 24.6509 11.5036 24.6635 11.5553 24.6667C11.6775 24.844 11.5924 24.9989 11.5055 25.1571C11.4976 25.1714 11.4897 25.1857 11.4819 25.2001C11.3953 25.3667 11.322 25.5734 11.7686 25.7734C11.9553 25.8001 12.2353 25.7001 12.4153 25.5534C12.6019 25.4067 12.682 25.2334 12.6419 25.1667C12.5352 25.1601 12.3953 25.0201 12.422 24.8067C12.4886 24.7801 12.5553 24.7467 12.6152 24.7134C12.6152 24.6987 12.6152 24.684 12.6156 24.6692C12.6161 24.644 12.6177 24.6187 12.6219 24.5934H12.6486C12.9886 24.5934 13.3286 24.4601 13.5886 24.2001L14.2153 23.5734L14.2752 23.6601L14.242 23.5467L14.4153 23.3734C14.4619 23.4334 14.502 23.5001 14.4886 23.5534C14.6483 23.5867 14.642 23.5237 14.6362 23.4654C14.6303 23.407 14.6249 23.3533 14.7886 23.4067C14.7956 23.4097 14.8018 23.4129 14.8075 23.4161C14.8114 23.4184 14.815 23.4208 14.8183 23.4232C14.8211 23.4253 14.8237 23.4274 14.8261 23.4295C14.8342 23.4366 14.84 23.4441 14.8444 23.4519L14.8469 23.4564C14.8484 23.4594 14.8497 23.4625 14.8508 23.4656C14.8526 23.4704 14.854 23.4752 14.8552 23.4801V23.2401C14.8788 23.2778 14.9241 23.3205 14.9669 23.3609C15.045 23.4346 15.1148 23.5005 15.0286 23.5134C15.2625 23.5134 15.2728 23.3377 15.2811 23.197C15.2888 23.0649 15.2948 22.9635 15.4819 23.0667V23.1067C15.5811 22.8704 15.5029 22.7949 15.3942 22.6903C15.3496 22.6473 15.2999 22.5994 15.2553 22.5334L15.4019 22.3867L15.9953 22.7667L15.7353 22.4467C15.7752 22.4267 15.8619 22.3801 15.9686 22.5067C15.9253 22.3334 15.8858 22.3166 15.8408 22.2973C15.8027 22.2809 15.7606 22.2629 15.7086 22.1467C15.8921 22.1933 15.9738 22.0936 16.0488 22.0021C16.1454 21.8841 16.2308 21.7798 16.5086 22.0201C16.4341 21.8927 16.3595 21.8797 16.3024 21.8697C16.2371 21.8583 16.1948 21.851 16.2019 21.6801C16.499 21.9258 16.5015 21.8185 16.5046 21.6855C16.5073 21.5767 16.5103 21.4507 16.6753 21.4867C16.7659 21.6141 16.7686 21.6874 16.7705 21.7357C16.773 21.8012 16.7738 21.8207 16.9886 21.8667C16.7769 21.5533 16.9605 21.5555 17.1445 21.5577C17.1781 21.5581 17.2117 21.5585 17.2428 21.557C17.2543 21.5565 17.2656 21.5557 17.2763 21.5545C17.2855 21.5535 17.2944 21.5522 17.3028 21.5506L17.3095 21.5493L17.3172 21.5475C17.3349 21.5432 17.3504 21.5371 17.3629 21.5286C17.3629 21.5326 17.3625 21.5364 17.362 21.5401C17.4086 21.5934 17.4753 21.6467 17.5619 21.7134C17.6011 21.6966 17.4292 21.4969 17.3097 21.3582L17.2886 21.3335C17.2353 21.2081 17.317 21.1276 17.412 21.034C17.4868 20.9603 17.5699 20.8784 17.6019 20.7601C17.6632 20.8377 17.8621 20.7501 18.0774 20.6554C18.2136 20.5954 18.3565 20.5326 18.4753 20.5067L18.5286 20.5667C18.2944 20.2828 18.3805 20.1403 18.4667 19.9974C18.4959 19.949 18.5251 19.9007 18.5419 19.8467C18.742 20.0601 18.8019 20.1667 18.8153 20.3334L18.9486 20.2001C18.8686 20.0601 18.8486 19.9601 18.8953 19.8334L19.1219 20.1267C19.179 20.0601 19.2013 19.957 19.2246 19.8494C19.2664 19.6557 19.3114 19.4477 19.5686 19.4134C19.4974 19.3329 19.3874 19.2538 19.2719 19.1709C19.1388 19.0752 18.9984 18.9743 18.9019 18.8601L19.0219 18.7401C19.0871 18.8107 19.139 18.8812 19.1524 18.9374L19.1532 18.945C19.1543 18.9566 19.1553 18.9665 19.1553 18.9734C19.1565 18.9623 19.1554 18.9502 19.1524 18.9374C19.1469 18.8815 19.1415 18.7962 19.2153 18.8067L19.342 19.1201C19.4509 19.1201 19.4036 19.0489 19.3541 18.9744C19.3127 18.9121 19.2697 18.8474 19.3153 18.8201C19.4101 18.9149 19.4585 18.9323 19.5007 18.9475C19.5414 18.9621 19.5763 18.9747 19.6419 19.0534C19.6419 19.0686 19.6208 19.0722 19.5968 19.0764C19.5575 19.0832 19.5104 19.0914 19.5352 19.1534C19.662 19.0934 19.8819 19.0934 20.0619 19.1934C19.9486 19.0934 19.8086 18.9401 19.8552 18.8534C19.9474 18.7459 20.0286 18.8176 20.1178 18.8964C20.1834 18.9544 20.2533 19.0162 20.3353 19.0134C20.3014 18.9457 20.3184 18.9086 20.3354 18.8713C20.362 18.8131 20.3886 18.7548 20.2219 18.5801C20.2621 18.5449 20.3516 18.6044 20.4332 18.6587C20.4599 18.6764 20.4857 18.6936 20.5086 18.7067C20.4968 18.6306 20.5426 18.5502 20.5886 18.4696C20.6589 18.3462 20.7296 18.2221 20.5949 18.1113L20.7752 18.1001C20.7061 18.0211 20.6664 18.0481 20.6178 18.081L20.6018 18.0916C20.596 18.0954 20.59 18.0991 20.5838 18.1026C20.5617 18.0859 20.5346 18.0695 20.502 18.0534H20.4619V18.0334C20.4732 17.7098 20.7182 17.6049 20.9618 17.5007C21.1497 17.4202 21.3369 17.3401 21.4153 17.1601L21.5086 17.2534C21.5338 17.1479 21.5864 17.0576 21.6382 16.9685C21.7239 16.821 21.8077 16.677 21.762 16.4734C21.8153 16.4201 22.0553 16.5201 22.1419 16.6534C22.1583 16.6026 22.1651 16.5571 22.171 16.5166C22.1893 16.3926 22.2005 16.3169 22.4619 16.2867C22.4758 16.443 22.5277 16.4636 22.544 16.4701C22.547 16.4713 22.549 16.473 22.549 16.473C22.5492 16.4745 22.5457 16.4766 22.5369 16.4819L22.5261 16.4886C22.5208 16.4918 22.5144 16.4959 22.5069 16.5008L22.497 16.5073L22.4863 16.5147C22.4738 16.5233 22.4591 16.5339 22.4419 16.5467C22.5029 16.5243 22.5603 16.5134 22.6115 16.5037C22.7732 16.4731 22.8726 16.4543 22.822 16.1201C22.9953 16.4201 23.2553 16.2867 23.2686 16.1334L22.9753 16.0867C23.0352 15.9601 23.1353 15.9001 23.242 15.8334L23.5086 16.1934C23.8575 16.206 23.8775 15.9192 23.8961 15.651C23.9169 15.3503 23.9361 15.0729 24.4153 15.2667C24.3534 15.1136 24.2691 15.1197 24.179 15.1263C24.0846 15.1332 23.9839 15.1405 23.8953 14.9667C24.0253 14.8912 24.3191 14.9715 24.5322 15.0297C24.6578 15.064 24.7555 15.0907 24.7752 15.0734C24.9778 15.0464 24.912 14.8758 24.8435 14.6984C24.7768 14.5254 24.7075 14.346 24.8819 14.2867C24.742 14.2067 24.4153 13.9334 24.4819 13.6534C24.6886 13.5267 25.1553 13.9201 25.1419 14.1134C25.1086 14.1601 25.0553 14.1467 25.0219 14.1067L25.0214 14.1109C25.0081 14.2036 24.9914 14.3209 25.1753 14.3734L25.082 14.2401C25.1536 14.2524 25.2289 14.2272 25.3018 14.2028C25.4255 14.1614 25.5422 14.1224 25.6219 14.2734C25.638 14.087 25.5433 14.0452 25.4298 14.0564C25.5706 14.018 25.6389 13.9383 25.7096 13.8559C25.7801 13.7736 25.8528 13.6888 26.002 13.6401C25.9086 13.6134 25.742 13.5134 25.7752 13.4801C26.037 13.3777 25.9771 13.2774 25.9076 13.1609C25.855 13.0726 25.7967 12.975 25.8686 12.8601C25.9955 12.8803 26.0799 12.9678 26.1414 13.0315C26.2221 13.1151 26.2632 13.1577 26.3086 12.9534C26.5553 12.9334 26.6353 13.2201 26.6686 13.3667C26.6546 13.0775 26.9116 13.0821 27.1196 13.0857C27.2089 13.0873 27.2892 13.0888 27.3353 13.0667L27.3225 13.2524C27.3311 13.1443 27.3831 13.0922 27.4353 13.0401L27.1486 12.8734C27.1717 12.8688 27.1923 12.8624 27.2115 12.8564C27.2754 12.8366 27.3235 12.8216 27.3953 12.8934C27.3592 12.8075 27.2805 12.7366 27.1956 12.66C27.0763 12.5524 26.9448 12.4337 26.9019 12.2467C26.9784 12.2599 27.0142 12.2043 27.0497 12.1492C27.104 12.0648 27.1577 11.9815 27.3552 12.1467C27.1716 12.225 27.2605 12.2928 27.3695 12.376C27.4516 12.4386 27.545 12.5099 27.5418 12.6009C27.5245 12.6224 27.5153 12.6487 27.5153 12.6801C27.5328 12.6521 27.5409 12.6258 27.5418 12.6009C27.5685 12.5676 27.6145 12.5456 27.6753 12.5334C27.7153 12.5601 27.7286 12.6067 27.7286 12.6401C27.998 12.6506 27.9241 12.5271 27.8306 12.3707C27.7459 12.2291 27.645 12.0605 27.7686 11.9401C27.9019 12.1401 28.1419 12.2001 28.1486 12.1201C28.0419 12.2201 27.822 11.8867 27.7886 11.6667C27.9711 11.646 27.9575 11.5453 27.9452 11.4545C27.9378 11.3993 27.9308 11.3478 27.9686 11.3201L27.8086 11.3534C27.7053 11.1983 27.7421 11.1274 27.795 11.0257C27.8027 11.011 27.8106 10.9956 27.8185 10.9793C27.8265 10.9629 27.8345 10.9455 27.842 10.9267C27.9208 10.9943 27.9066 11.0471 27.897 11.0827C27.8896 11.1103 27.8849 11.1276 27.9286 11.1334C27.8433 10.9184 28.0008 10.9288 28.1714 10.94C28.334 10.9508 28.5083 10.9623 28.4953 10.7801C28.5939 10.7971 28.6752 10.8766 28.7516 10.9513C28.8249 11.023 28.8936 11.0901 28.9686 11.0934C28.9584 10.8836 29.0736 10.8902 29.193 10.897C29.3089 10.9037 29.4288 10.9105 29.4419 10.7201L29.3963 10.6942L29.3917 10.6917L29.3809 10.6856L29.3777 10.6838C29.2825 10.6303 29.2363 10.6044 29.2086 10.5601C29.2064 10.5551 29.2041 10.5502 29.2018 10.5453L29.2013 10.5444C29.1765 10.4912 29.151 10.4365 29.1753 10.1934C29.0998 10.3228 29.0766 10.3868 29.0528 10.4524C29.0472 10.4679 29.0416 10.4835 29.0352 10.5001L28.9419 10.7534L28.8353 10.2067C28.7835 10.2552 28.7647 10.3414 28.7477 10.4195C28.7296 10.5025 28.7135 10.5764 28.662 10.5867C28.6209 10.4395 28.6132 10.3855 28.5838 10.3488C28.58 10.344 28.5758 10.3394 28.5711 10.335C28.5636 10.3281 28.5549 10.3215 28.5444 10.3145C28.5298 10.3048 28.5117 10.2944 28.4892 10.2814L28.4865 10.2798L28.4827 10.2776L28.4812 10.2768L28.479 10.2755C28.456 10.2624 28.4285 10.2466 28.3953 10.2267C28.643 10.315 28.6524 10.2046 28.6642 10.0643C28.6757 9.92906 28.6895 9.76601 28.922 9.72674L29.5486 10.2001C29.9086 10.0067 29.9819 9.62007 29.9486 9.26673L29.9086 9.33341C29.9064 9.30319 29.9037 9.27325 29.9005 9.2435C29.8984 9.22445 29.8963 9.20547 29.894 9.18654C29.8906 9.15942 29.887 9.13243 29.8831 9.10547C29.8786 9.07337 29.8738 9.04133 29.8688 9.00927ZM3.06194 17.1401C2.98194 16.9667 3.04859 16.9001 3.12192 16.8667C3.13526 16.9467 3.16196 17.0401 3.20859 17.1601L3.2129 17.1603L3.21746 17.1608L3.22193 17.1617L3.22747 17.163C3.23211 17.1642 3.23683 17.1657 3.2413 17.1674C3.24635 17.1693 3.25115 17.1713 3.2553 17.1734C3.2365 17.1734 3.21827 17.173 3.20037 17.1719C3.19231 17.1714 3.18426 17.1707 3.17636 17.17C3.13331 17.1657 3.09295 17.1568 3.05527 17.1401H3.06194ZM14.6486 23.2267C14.6486 23.2267 14.6152 23.2067 14.5953 23.1934L14.6486 23.1401V23.2267Z" fill="#524A44"/>
<path d="M26.8219 6.26673C26.791 6.2616 26.7662 6.2525 26.742 6.24746C26.7643 6.24528 26.7909 6.24899 26.8219 6.26007V6.26673Z" fill="#524A44"/>
<path d="M26.742 6.24746C26.738 6.24784 26.7341 6.24843 26.7303 6.2492C26.7278 6.24971 26.7254 6.2503 26.7229 6.25097L26.7189 6.25217L26.7148 6.25363C26.7087 6.25593 26.703 6.25878 26.6977 6.26213C26.6946 6.26409 26.6917 6.26623 26.6889 6.26853C26.6734 6.28128 26.6622 6.29903 26.6552 6.32007C26.6482 6.31772 26.6419 6.31454 26.6362 6.31081C26.6258 6.30399 26.6172 6.29536 26.6086 6.28673C26.64 6.26206 26.6654 6.25021 26.6882 6.24587C26.7072 6.24228 26.7245 6.24382 26.742 6.24746Z" fill="#524A44"/>
<path d="M27.682 12.6867H27.6953C27.6925 12.704 27.6896 12.7188 27.6873 12.7247C27.6853 12.7295 27.6838 12.7282 27.6829 12.7172C27.6823 12.7107 27.682 12.7008 27.682 12.6867Z" fill="#524A44"/>
<path d="M26.0352 13.6734C26.0352 13.6734 25.9953 13.6867 25.9686 13.6934C26.0152 13.7067 26.0486 13.7067 26.0352 13.6734Z" fill="#524A44"/>
<path d="M24.9686 14.0534C24.9419 14.0934 24.9619 14.1401 24.9885 14.1667L24.9894 14.1599L24.9922 14.1368C24.9936 14.124 24.9943 14.1123 24.9938 14.1018C24.9928 14.0806 24.9864 14.0641 24.9686 14.0534Z" fill="#524A44"/>
<path d="M18.9487 20.2334L18.9153 20.2667C18.942 20.3134 18.9753 20.3667 19.0153 20.4201L18.9487 20.2267V20.2334Z" fill="#524A44"/>
<path d="M12.6219 24.7267L12.5886 24.7467C12.5886 24.8201 12.582 24.8867 12.5753 24.9534L12.6219 24.7267Z" fill="#524A44"/>
<path d="M24.9886 7.6334C24.9686 7.62007 24.9153 7.60007 24.9153 7.60007L25.0153 7.58007L24.9886 7.6334Z" fill="#524A44"/>
<path d="M16.3485 22.3566L16.3686 22.3467V22.3401L16.3621 22.3451L16.356 22.35L16.3485 22.3566Z" fill="#524A44"/>
<path d="M16.3485 22.3566L16.0686 22.4934C16.2086 22.5534 16.4019 22.6401 16.322 22.7667C16.6017 22.7763 16.5494 22.7373 16.4543 22.6664C16.3543 22.5919 16.2072 22.4822 16.3485 22.3566Z" fill="#524A44"/>
<path d="M17.2153 21.8001C17.1668 21.9102 17.2494 21.9388 17.3245 21.9648C17.363 21.9782 17.3994 21.9908 17.4153 22.0134L17.4138 22.0007C17.3952 21.8381 17.3908 21.8001 17.2153 21.8001Z" fill="#524A44"/>
<path d="M22.418 16.8863C22.4804 16.9206 22.5165 16.9405 22.4819 17.0134L22.2769 16.7842C22.3269 16.8362 22.3779 16.8642 22.418 16.8863Z" fill="#524A44"/>
<path d="M24.2486 15.7734L24.3153 15.5334L24.2553 15.7001L24.2486 15.7734Z" fill="#524A44"/>
<path d="M24.9019 7.14674L25.2286 7.4134C25.2353 7.30007 24.9153 6.9534 24.9019 7.14674Z" fill="#524A44"/>
<path d="M21.5486 11.1001C21.3619 10.9934 21.162 11.0001 21.242 11.2067C21.2853 11.1807 21.3475 11.1723 21.4046 11.1645C21.479 11.1543 21.5449 11.1454 21.5486 11.1001Z" fill="#524A44"/>
<path d="M12.3086 18.7601V18.7267C12.3237 18.7177 12.3387 18.7087 12.3538 18.699C12.3721 18.6873 12.3903 18.6747 12.4086 18.6601L12.3086 18.7601Z" fill="#524A44"/>
</svg>
