<svg width="240" height="240" viewBox="0 0 240 240" fill="none" xmlns="http://www.w3.org/2000/svg">
<path d="M72.1688 75.4001L70.1325 73.0313C75.4207 68.1639 80.0803 63.2861 83.5971 58.9018C88.0542 53.3539 89.436 50.1436 89.7217 48.8085C85.6386 48.9488 75.2337 54.3149 62.5691 64.2367C60.7146 65.686 58.8185 67.2341 56.8809 68.8756C54.8238 70.621 52.8291 72.3924 50.9174 74.1638C45.8006 78.9013 41.2917 83.644 37.8632 87.9141C33.4009 93.462 32.0192 96.6723 31.7387 98.0073C35.7749 97.8671 45.9825 92.6256 58.4497 82.9272L60.4808 85.2908C45.3747 97.0619 31.9724 103.612 29.1101 100.246C28.8504 99.9397 28.6842 99.5605 28.6115 99.1138C27.8686 94.6723 36.1333 83.5869 48.8811 71.8002C50.7823 70.0392 52.7823 68.2678 54.8654 66.4964C56.7718 64.8809 58.6679 63.3328 60.538 61.8679C74.4857 50.9331 87.0568 44.3879 91.3476 45.9047C91.758 46.0502 92.0956 46.2683 92.345 46.5696C95.228 49.9669 86.4282 62.2887 72.1688 75.4001Z" fill="#F47A0A"/>
<path d="M50.9173 74.1641L58.4496 82.9275C45.9823 92.626 35.7748 97.8674 31.7385 98.0076C32.019 96.6726 33.4008 93.4623 37.8631 87.9144C41.2915 83.6444 45.8005 78.9016 50.9173 74.1641Z" fill="#F47A0A"/>
<path d="M89.7217 48.8086C89.436 50.1436 88.0542 53.3539 83.5972 58.9019C80.0804 63.2862 75.4207 68.164 70.1325 73.0314L62.5691 64.2368C75.2337 54.315 85.6387 48.9489 89.7217 48.8086Z" fill="#F47A0A"/>
<path d="M80.2776 84.828L68.6675 94.8122L65.0208 90.5682L64.7299 90.2253L61.8261 86.854L60.4806 85.2904L58.4495 82.9268L50.9172 74.1634C52.8289 72.392 54.8236 70.6206 56.8807 68.8752C58.8183 67.2337 60.7144 65.6856 62.5689 64.2363L70.1324 73.0309L72.1687 75.3997L73.4362 76.8698L76.3608 80.2671L76.6153 80.5684L80.2776 84.828Z" fill="#F47A0A"/>
<path d="M91.3473 45.9047C86.4799 44.1852 70.9582 52.8344 54.8651 66.4964C38.7979 80.1324 27.7592 94.0074 28.6112 99.1138C23.3645 92.2049 20.2529 83.5817 20.2529 74.2365C20.2529 64.8912 23.3074 56.4083 28.4709 49.5306C30.0605 47.4215 31.8423 45.4631 33.8007 43.6969H33.8058C34.7149 42.8658 35.6552 42.0866 36.6369 41.3489C36.6421 41.3489 36.6473 41.3386 36.6473 41.3386C38.7668 39.7386 41.0524 38.336 43.4628 37.1672C48.8964 34.5283 55.0001 33.0479 61.4363 33.0479C73.2127 33.0479 83.8462 37.9828 91.3473 45.9047Z" fill="#FF9636"/>
<path d="M108.775 209.356C108.869 209.356 108.962 209.356 109.051 209.356C108.833 209.356 108.62 209.356 108.401 209.356C108.526 209.356 108.651 209.356 108.775 209.351V209.356Z" fill="#F47A0A"/>
<path d="M109.056 209.356C109.425 209.356 109.789 209.356 110.157 209.351C109.95 209.351 109.747 209.361 109.539 209.361C109.378 209.361 109.217 209.361 109.051 209.361L109.056 209.356Z" fill="#F47A0A"/>
<path d="M109.539 52.4814C109.752 52.4814 109.965 52.4866 110.178 52.4918C109.799 52.4918 109.425 52.4866 109.046 52.4866C109.212 52.4866 109.373 52.4866 109.539 52.4866V52.4814Z" fill="#F47A0A"/>
<path d="M108.401 52.4818C108.62 52.4818 108.827 52.4818 109.046 52.4818C108.957 52.4818 108.864 52.4818 108.775 52.4818C108.651 52.4766 108.526 52.4766 108.401 52.4766V52.4818Z" fill="#F47A0A"/>
<path d="M204.534 130.927C204.534 159.222 190.27 183.663 169.616 195.154C169.616 195.154 169.611 195.159 169.6 195.164C169.595 195.169 169.59 195.169 169.585 195.174C168.691 195.798 148.972 209.174 110.157 209.351C121.508 209.257 132.276 206.582 141.918 201.865C167.579 189.294 185.33 162.251 185.33 130.927C185.33 99.6027 167.585 72.554 141.928 59.9881C132.287 55.261 121.534 52.5909 110.178 52.4922C149.279 52.6792 168.992 66.2529 169.6 66.6789C169.611 66.6841 169.616 66.6892 169.616 66.6892C190.27 78.1851 204.534 102.626 204.534 130.927Z" fill="#F47A0A"/>
<path d="M220.685 77.1458C220.025 89.1767 214.534 99.7998 206.186 107.218C206.186 107.218 206.171 107.233 206.129 107.254C205.225 107.789 186.441 95.9349 170.192 79.0107C160.125 68.5278 144.671 54.445 144.64 46.1647C153.128 36.4714 165.829 30.6534 179.693 31.4118C203.641 32.7209 222.004 53.1931 220.695 77.151L220.685 77.1458Z" fill="#FF9636"/>
<path d="M185.33 130.926C185.33 162.25 167.58 189.294 141.918 201.865C132.1 206.67 121.118 209.361 109.539 209.361C109.285 209.361 109.03 209.361 108.776 209.356C67.2703 208.935 33.749 173.975 33.749 130.926C33.749 87.878 67.2703 52.9074 108.776 52.4866C109.03 52.4814 109.285 52.4814 109.539 52.4814C121.129 52.4814 132.105 55.1723 141.928 59.9878C167.585 72.5537 185.33 99.5972 185.33 130.926Z" fill="#FF9636"/>
<path d="M169.335 134.209C167.772 170.022 140.64 198.525 107.399 198.525C74.1583 198.525 45.3901 168.261 45.3901 130.916C45.3901 93.5715 73.1505 63.3125 107.399 63.3125C141.648 63.3125 167.766 91.8157 169.335 127.623C167.761 95.265 143.196 69.5565 113.129 69.5565C83.0619 69.5565 56.8496 97.0312 56.8496 130.911C56.8496 164.791 82.0438 192.27 113.129 192.27C144.214 192.27 167.761 166.557 169.335 134.199V134.209Z" fill="#F47A0A"/>
<path d="M169.335 130.916C169.335 131.498 169.33 132.074 169.314 132.651V132.661C169.304 133.181 169.278 133.695 169.257 134.204C167.631 166.562 142.229 192.275 111.134 192.275C80.0385 192.275 52.9326 164.801 52.9326 130.916C52.9326 97.031 78.9891 69.5615 111.134 69.5615C143.278 69.5615 167.636 95.27 169.257 127.628C169.278 128.142 169.304 128.656 169.314 129.17V129.181C169.33 129.757 169.335 130.334 169.335 130.916Z" fill="#FFF5E2"/>
<path d="M99.2878 103.503C95.3123 98.8521 93.9346 97.3171 92.4226 93.5371C86.3745 97.3171 84.8625 100.341 88.3088 107.054C84.8625 109.413 82.52 107.497 81.8385 106.389C79.0252 109.287 77.671 112.942 80.3643 116.938C84.6344 123.274 95.3109 124.509 100.746 117.627C104.511 112.859 103.263 108.153 99.2878 103.503Z" fill="#FFBC3A" stroke="#FFBC3A" stroke-width="4.05185" stroke-linecap="round" stroke-linejoin="round"/>
<path d="M94.6904 118.231C94.6904 121.015 92.998 122.263 90.9104 122.263C88.8227 122.263 87.1304 121.015 87.1304 118.231C87.1304 115.448 90.9104 113.191 90.9104 113.191C90.9104 113.191 94.6904 115.448 94.6904 118.231Z" fill="#FFDE9D" stroke="#FFDE9D" stroke-width="4.05185"/>
<path fill-rule="evenodd" clip-rule="evenodd" d="M169.314 132.651C169.33 132.074 169.335 131.498 169.335 130.916C169.335 130.334 169.33 129.757 169.314 129.181V129.17C169.306 128.785 169.29 128.4 169.273 128.014C169.268 127.885 169.262 127.756 169.257 127.628C169.065 123.797 168.555 120.059 167.75 116.446L109.342 128.999L83.9094 184.9C92.129 189.604 101.437 192.275 111.134 192.275C142.229 192.275 167.631 166.562 169.257 134.204C169.262 134.082 169.267 133.96 169.273 133.837C169.289 133.448 169.306 133.056 169.314 132.661V132.651Z" fill="#FFCE6E"/>
<path d="M123.401 142.764C122.642 142.764 121.986 143.297 121.822 144.045L118.471 159.387C118.249 160.406 119.017 161.372 120.05 161.372H123.914L122.584 169.427C122.328 170.979 124.179 171.963 125.3 170.872L138.713 157.828C139.761 156.808 139.046 155.019 137.591 155.019H133.412L137.764 145.056C138.235 143.976 137.453 142.764 136.285 142.764H123.401Z" fill="#FFF5E2"/>
</svg>
