<svg width="110" height="110" viewBox="0 0 110 110" fill="none" xmlns="http://www.w3.org/2000/svg">
<g clip-path="url(#clip0_1740_28786)">
<path d="M82.037 56.2429C86.3775 55.5619 90.5347 58.5252 90.4505 62.9179C90.3203 69.7019 88.597 76.3787 85.3741 82.3803C80.9016 90.7086 73.7957 97.2628 65.1767 101.01C56.5577 104.756 46.9158 105.483 37.7713 103.074C31.1826 101.338 25.1221 98.0464 20.069 93.5169C16.796 90.583 17.4632 85.5189 20.9234 82.8082L46.3819 62.8639C47.456 62.0225 48.7274 61.4697 50.0753 61.2582L82.037 56.2429Z" fill="#B8AFA8"/>
<path d="M28.7529 99.7109C20.3295 95.2669 13.642 88.1779 9.74489 79.5618C5.84774 70.9456 4.96256 61.2924 7.22892 52.124C9.49528 42.9556 14.7843 34.7937 22.262 28.9249C27.6382 24.7055 33.9259 21.844 40.5837 20.5305C44.9176 19.6754 48.5681 23.2912 48.6171 27.7084L48.977 60.144C48.9921 61.5011 48.6617 62.8396 48.0169 64.0337L28.7529 99.7109Z" fill="#DFD8D2"/>
<path d="M54.7154 16.445C54.6088 12.028 58.1281 8.28936 62.4966 8.95112C70.3097 10.1347 77.7324 13.3254 84.0103 18.2719C90.2882 23.2185 95.1269 29.6888 98.1054 37.0082C99.7707 41.1006 96.9591 45.3969 92.6398 46.3266L65.0763 52.2595C60.1713 53.3153 55.5162 49.6475 55.3952 44.6315L54.7154 16.445Z" fill="#A39A93"/>
<rect x="69.5" y="76.5" width="32" height="32" rx="16" fill="#524A44"/>
<path d="M90.5 87.5L80.5 97.5M80.5 87.5L90.5 97.5" stroke="white" stroke-width="2" stroke-linecap="round" stroke-linejoin="round"/>
</g>
<defs>
<clipPath id="clip0_1740_28786">
<rect width="110" height="110" fill="white"/>
</clipPath>
</defs>
</svg>
